<svg xmlns="http://www.w3.org/2000/svg" width="88.378" height="59.201" viewBox="0 0 88.378 59.201" fill="none">
<svg x="18.003" y="0.45" width="67.998" height="27.718" viewBox="0 0 68 27.7147" preserveAspectRatio="none" overflow="visible"><path id="Vector" d="M65 9.08945C67.489 10.0919 68 13.256 68 14.5894C65 16.7628 69.4811 23.3448 67 25.2628C65.386 26.5105 66.5765 26.6716 65 27.2628C61 28.7628 6 26.0895 5 25.5895C4 25.0895 2.5 23.5894 2 23.0894C1.6 22.6894 1.8333 20.256 2 19.0894L0 8.58945C1.1667 7.08945 3.6 3.98945 4 3.58945C4.5 3.0894 4.5 2.0894 8.5 0.5894C11.4251 -0.50752 14 0.26287 17 0.26287C18.0411 0.44498 19.2908 0.76287 20.5 0.76287L27.5 0.26287C30.5 -0.23713 39.5097 1.09297 40.5 0.76287C40.9606 0.60934 42.5 1.26287 44.5 2.26287C50 3.26285 55.5 5.26285 65 9.08945Z" fill="var(--fill-0, #ED8650)"/></svg>
<svg x="27.565" y="27.114" width="35.828" height="4.091" viewBox="0 0 35.8301 4.08821" preserveAspectRatio="none" overflow="visible"><path id="Vector" d="M35.6441 3.3234C35.9677 3.4786 35.8386 3.8574 35.4904 3.839C33.7676 3.7576 32.1965 4.0903 30.5325 4.0882L25.7004 4.0851L13.9809 2.9442C9.24543 2.4832 4.61053 1.9659 0.153527 0.6618C0.0881268 0.5694 -0.022772 0.378103 0.004128 0.286003C0.036528 0.178203 0.207528 0.0642 0.291028 0L3.26833 0.141201L6.77823 0.360703L6.98203 0.266701L7.21203 0.625702C7.31133 0.780102 7.48013 0.7886 7.62633 0.6311C7.71003 0.5406 7.78053 0.4434 7.69823 0.3167C8.05243 0.4404 8.40563 0.5023 8.79013 0.4207C8.82503 0.5381 9.00123 0.848102 9.22663 0.884502C11.4291 1.2705 13.6375 1.1416 15.8462 1.3866C16.8391 1.4969 17.5471 1.7839 18.573 1.2807C19.4705 0.837601 20.7139 1.1884 21.6373 1.0246C23.6176 0.673601 25.4425 0.875101 27.1442 1.7807L27.5466 2.0021L27.8994 2.1298C28.1996 2.2375 28.4892 2.3505 28.8026 2.2384C28.8608 2.2162 28.931 2.1717 28.997 2.172C29.0128 2.384 29.1934 2.623 29.3965 2.6277C29.5535 2.6322 29.7323 2.5407 29.8343 2.4673L30.1527 2.612C31.1685 3.0753 32.3583 2.9308 33.5676 3.0458C34.2164 3.1061 34.8179 3.3506 35.3009 2.9284L35.6441 3.3234Z" fill="var(--fill-0, #354452)" fill-opacity="0.81"/></svg>
<svg x="34.485" y="24.687" width="46.929" height="6.216" viewBox="0 0 46.9348 6.21568" preserveAspectRatio="none" overflow="visible"><path id="Vector" d="M46.9348 2.813C46.0376 3.8368 45.3174 3.9922 43.8862 3.9146C43.2939 3.8821 42.2175 4.6564 41.6309 4.1486C40.8199 3.4465 35.2542 4.0385 33.4808 5.8821C32.5057 6.0879 31.4794 6.0302 30.3648 6.1736C29.6807 6.262 29.1609 6.2496 28.73 5.7502L28.3868 5.3553C28.5929 5.3126 28.769 5.2223 28.881 5.0424L24.6799 4.7769C24.1326 4.7419 23.6373 4.8126 23.2386 5.0389L22.9202 4.8942C22.6479 4.7695 22.3917 4.5973 22.0829 4.5988C22.0169 4.5986 21.948 4.6458 21.8885 4.6653C21.6096 4.5273 21.2958 4.4919 20.9853 4.5567L20.6325 4.429C20.5157 4.3192 20.3538 4.2712 20.2301 4.2076C18.5284 3.302 16.7035 3.1005 14.7232 3.4514C13.7972 3.6166 12.5577 3.2671 11.6589 3.7076C10.633 4.2108 9.9237 3.9212 8.9321 3.8135C6.7207 3.5698 4.5137 3.6947 2.3125 3.3114C2.0884 3.2711 1.9109 2.9649 1.876 2.8476L2.3542 2.1488L0 0.108401C1.5863 -0.540199 2.3663 1.9132 3.0427 2.4028C4.2931 3.3081 6.2155 2.9332 7.6468 2.9977L7.2613 1.3766C8.3323 1.6584 8.7828 2.5976 9.4667 1.9219C9.8671 2.2526 9.8615 2.9083 10.6206 2.8518L13.4907 2.6358C14.3673 2.5705 14.8257 2.8988 15.7597 2.7428C17.8441 2.3962 19.9825 3.3192 22.5213 3.7261C23.2226 3.8393 23.3602 3.5711 24.1931 3.1238L28.699 0.705502C27.3728 2.5679 25.0812 2.495 24.1639 3.9652C26.2619 4.3929 28.2109 4.5988 30.19 4.0055C31.3825 4.8935 32.7075 5.0695 34.0216 4.483C36.8853 3.4005 39.7694 3.066 42.7695 3.3601C44.3862 3.52 46.577 2.0216 46.9335 2.8169L46.9348 2.813Z" fill="var(--fill-0, #393C5E)"/></svg>
<svg x="75.528" y="7.305" width="10.437" height="22.775" viewBox="0 0 10.4411 22.7762" preserveAspectRatio="none" overflow="visible"><path id="Vector" d="M0.234778 22.7762C0.0616779 22.6057 -0.053022 22.3801 0.024878 22.1645C0.110878 21.9251 0.322077 21.7126 0.581877 21.5318C1.16718 22.037 2.24488 21.2653 2.83718 21.2977C4.26968 21.378 4.98978 21.2226 5.88578 20.1962C6.03738 20.2165 6.25977 20.1001 6.38837 20.0136C6.78867 20.1507 7.13798 19.9914 7.46508 19.8069C9.29668 18.7812 10.2979 13.4795 8.90227 10.9396C8.25007 9.7521 8.69808 8.8188 9.31318 7.7571C9.66278 7.1513 9.54518 5.5391 9.09608 4.9897L6.99868 2.4222C6.56658 1.8939 4.95747 1.5694 4.30437 1.7606C3.69857 1.9875 4.07017 3.1002 4.41817 3.3648C3.70147 3.594 3.47438 3.2008 3.15677 2.931C2.49397 2.3755 2.68448 1.6875 3.04988 1.0937L1.88878 1.4832L2.14107 0L5.50428 1.0763C7.10538 1.2046 7.51578 2.0291 8.44348 3.2478C8.83738 3.7655 9.96768 3.8473 10.0416 5.0906C10.094 5.9638 10.6075 7.5906 10.0465 8.4418C9.48548 9.2931 8.95037 9.8165 9.70247 10.8398C10.6784 12.1693 10.3163 13.9036 10.4269 15.3748C10.4998 16.3627 10.279 16.8293 10.0743 17.6884C9.61998 19.5961 8.09667 20.7059 6.18297 21.1783C5.43757 21.3625 4.73968 21.9565 3.89418 22.1114L0.233473 22.7736L0.234778 22.7762Z" fill="var(--fill-0, #D2AC76)"/></svg>
<svg x="17.552" y="0" width="15.749" height="26.605" viewBox="0 0 15.7571 26.6072" preserveAspectRatio="none" overflow="visible"><path id="Vector" d="M5.46168 25.9322C5.51698 26.1509 5.47988 26.376 5.33728 26.6072C4.21218 26.5228 3.41308 25.4177 2.83968 24.4899C1.84978 22.8917 2.07628 21.5165 2.10878 19.7416L1.00458 14.7574L0.543681 11.7363C0.404381 10.8272 -0.0605192 9.86563 0.00658077 8.86773L4.10618 4.15933C5.06878 2.6209 5.92448 1.69964 7.64378 1.09359C9.79158 0.335053 11.9211 -0.447267 14.0843 0.305923C14.5938 0.484223 15.3458 0.293393 15.7571 0.779473C14.4185 1.47645 11.8626 -0.178857 8.42328 1.55863C7.48738 2.03058 5.92368 2.23162 5.42218 3.27005C4.75358 4.65023 3.99438 5.55343 2.90658 6.65163C2.21858 7.34573 1.87778 8.42953 0.71838 8.97573L1.53338 13.781C1.70128 14.7679 1.82378 15.4162 1.95898 16.3569C2.16108 17.76 3.22608 19.1834 2.96818 20.7086C2.60048 22.8984 3.40318 25.1043 5.46298 25.9282L5.46168 25.9322Z" fill="var(--fill-0, #D2AC76)"/></svg>
<svg x="39.92" y="0.734" width="19.001" height="5.186" viewBox="0 0 18.9943 5.1842" preserveAspectRatio="none" overflow="visible"><path id="Vector" d="M17.2093 5.1842C16.9672 5.0806 16.6233 4.8041 16.3673 4.7993C15.7334 3.0351 17.8944 2.47673 16.6167 1.30276C16.0985 0.82683 12.847 0.6438 11.3476 1.32175L13.1236 1.95765L11.9532 4.4224C11.5822 3.6309 12.5526 2.9221 11.8852 2.27048C11.5469 1.93873 10.6837 2.59135 10.0999 1.63586C9.9785 1.43659 10.379 1.1207 10.5933 0.841L7.2175 0.69307C6.2281 0.64996 5.6618 0.47672 4.5726 0.56492L1.0001 0.85214C0.515599 0.89119 0.1802 0.71879 0 0.42712L1.0945 0.12298L1.2003 0.0838599C1.2983 0.24223 1.4971 0.30484 1.6678 0.23041L2.1244 0.0279698C2.4593 0.26621 2.8762 0.27695 3.2468 0.10712L3.4837 0C3.9148 0.47299 4.6552 0.0319302 5.1919 0.0918202C9.178 0.53562 13.5109 0.00757024 17.4952 0.31442C17.5352 0.24872 17.6134 0.1937 17.6636 0.1952L18.1662 0.21284L18.3028 0.10931C18.4672 0.18891 18.6437 0.2396 18.8283 0.26002L18.9943 0.51608L17.0407 0.82104L17.6867 2.5563C16.7542 3.3219 16.5139 4.3692 17.2133 5.1789L17.2093 5.1842Z" fill="var(--fill-0, #D2AC76)"/></svg>
<svg x="67.963" y="28.553" width="8.157" height="2.019" viewBox="0 0 8.1501 2.0201" preserveAspectRatio="none" overflow="visible"><path id="Vector" d="M8.1461 0.285301C7.8863 0.466001 7.6739 0.6759 7.5892 0.9179C7.5113 1.1336 7.6259 1.3592 7.799 1.5297L4.89571 1.9852C3.19401 1.9066 1.5816 1.6887 0 2.0201C1.7734 0.176399 7.3391 -0.415598 8.1501 0.286602L8.1461 0.285301Z" fill="var(--fill-0, #354452)" fill-opacity="0.81"/></svg>
<svg x="75.749" y="7.045" width="4.498" height="5.79" viewBox="0 0 4.50009 5.7865" preserveAspectRatio="none" overflow="visible"><path id="Vector" d="M4.37519 4.06398L4.50009 4.33048C3.32149 4.99108 3.05129 6.17128 2.24039 5.66268C1.94179 5.51808 1.83509 5.08838 1.62749 4.94148C1.86889 4.75018 2.06559 4.74168 2.43019 4.66658L1.16289 4.13398L2.07129 3.85278C1.73489 3.62508 1.50669 3.40308 1.47539 3.14618C1.45279 2.96698 1.61799 2.71478 1.74829 2.55858C1.13489 2.54318 0.875791 2.81218 0.553891 3.01378C0.172591 2.18148 -0.136809 1.66158 0.0621914 0.877483C0.309591 1.39848 0.796792 1.35158 1.08359 1.06548C1.35189 0.801782 1.34279 0.369883 1.11509 0.0753826C1.49919 -0.147017 1.70679 0.186882 1.92149 0.254782L1.66919 1.73788L2.83019 1.34838C2.46749 1.94098 2.27699 2.62898 2.93719 3.18568C3.25739 3.45418 3.48059 3.84608 4.19849 3.61958C4.24579 3.65528 4.26349 3.77788 4.28299 3.82398L4.37519 4.05738V4.06398ZM2.93219 4.78298C2.97669 4.01938 2.61649 3.81008 2.39549 3.70918C2.42469 4.30178 2.64589 4.57648 2.93219 4.78298Z" fill="var(--fill-0, #E8CFA6)"/></svg>
<svg x="22.881" y="25.788" width="4.976" height="1.989" viewBox="0 0 4.9714 1.9888" preserveAspectRatio="none" overflow="visible"><path id="Vector" d="M4.8339 1.9888C2.2696 1.2368 0.7517 1.7106 0 0.821603C0.1453 0.589103 0.181101 0.361404 0.124401 0.146604L0.2596 0.0536052C0.3846 0.100105 0.595401 0.153604 0.726101 0.138204C1.5062 -0.309296 1.8931 0.480903 3.8809 0.392003C4.0049 0.803303 4.577 1.3084 4.9714 1.327C4.8852 1.3925 4.7156 1.5025 4.6846 1.613C4.6576 1.7051 4.7659 1.8977 4.8339 1.9888Z" fill="var(--fill-0, #596571)"/></svg>
<svg x="72.028" y="5.21" width="5.011" height="3.12" viewBox="0 0 5.00544 3.1204" preserveAspectRatio="none" overflow="visible"><path id="Vector" d="M3.7829 2.7198C4.1336 1.3292 1.5337 1.5923 0 0C1.8232 0.2779 3.6084 0.7124 4.8371 1.9204C5.0608 2.2135 5.0726 2.6442 4.8056 2.9105C4.5175 3.1939 4.0316 3.2435 3.7842 2.7224L3.7829 2.7198Z" fill="var(--fill-0, #D2AC76)"/></svg>
<svg x="43.402" y="0.326" width="14.017" height="0.722" viewBox="0 0 14.0116 0.72176" preserveAspectRatio="none" overflow="visible"><path id="Vector" d="M0 0.40734C1.5921 -0.31636 2.7675 0.14353 5.1479 0.14957L12.1863 0.166C12.945 0.16877 13.5615 0.12361 14.0116 0.72176C10.0246 0.41622 5.6957 0.9456 1.7083 0.49916C1.1716 0.43926 0.4311 0.88032 0 0.40734Z" fill="var(--fill-0, #E3DBC6)"/></svg>
<svg x="59.655" y="1.504" width="4.339" height="1.634" viewBox="0 0 4.3409 1.63919" preserveAspectRatio="none" overflow="visible"><path id="Vector" d="M0 0.00394011L1.0439 0.19078L1.4402 0.31995L1.8352 0.45307L2.2355 0.58358C2.5406 1.16803 3.2094 1.39564 3.809 1.11603L4.3409 1.50642C3.5119 1.96164 2.7138 1.11204 1.9204 0.96561C1.0518 0.80707 0.399697 0.64009 0.001297 0L0 0.00394011Z" fill="var(--fill-0, #D2AC76)"/></svg>
<svg x="66.752" y="3.836" width="3.836" height="1.19" viewBox="0 0 3.8392 1.1882" preserveAspectRatio="none" overflow="visible"><path id="Vector" d="M0 0.0483999L0.809196 0C1.1818 0.5346 1.7026 0.609 2.2697 0.6439C2.8369 0.6789 3.395 0.9022 3.8392 1.1882C2.5025 1.182 0.3274 0.6382 0 0.0483999Z" fill="var(--fill-0, #D2AC76)"/></svg>
<svg x="67.565" y="3.83" width="1.458" height="0.651" viewBox="0 0 1.4605 0.64892" preserveAspectRatio="none" overflow="visible"><path id="Vector" d="M0 0.00502049C0.6257 -0.0348795 1.0388 0.16152 1.4605 0.64892C0.893403 0.61392 0.3739 0.54232 0 0.00502049Z" fill="var(--fill-0, #E3DBC6)"/></svg>
<svg x="65.948" y="3.528" width="0.681" height="0.237" viewBox="0 0 0.681602 0.235098" preserveAspectRatio="none" overflow="visible"><path id="Vector" d="M0 0.0436648C0.2288 -0.0331952 0.495202 -0.013785 0.681602 0.143585C0.458902 0.299485 0.1742 0.249685 0 0.0436648Z" fill="var(--fill-0, #D2AC76)"/></svg>
<svg x="64.383" y="2.901" width="1.264" height="0.586" viewBox="0 0 1.26199 0.58734" preserveAspectRatio="none" overflow="visible"><path id="Vector" d="M1.26199 0.58734C0.844493 0.46862 0.4121 0.39989 0 0.25223L0.5242 0C0.8004 0.13268 1.04029 0.37848 1.26199 0.58734Z" fill="var(--fill-0, #D2AC76)"/></svg>
<svg x="63.464" y="2.623" width="1.441" height="0.527" viewBox="0 0 1.4444 0.53007" preserveAspectRatio="none" overflow="visible"><path id="Vector" d="M0.922901 0.52876L0.531898 0.39039L0 0C0.4826 0.04389 1.005 0.0681806 1.4444 0.277841L0.9203 0.53007L0.922901 0.52876Z" fill="var(--fill-0, #E3DBC6)"/></svg>
<svg x="58.223" y="0.847" width="0.53" height="0.148" viewBox="0 0 0.526798 0.1511" preserveAspectRatio="none" overflow="visible"><path id="Vector" d="M0 0L0.526798 0.1511C0.344398 0.12931 0.1675 0.0785 0 0Z" fill="var(--fill-0, #E3DBC6)"/></svg>
<svg x="70.95" y="5.02" width="0.857" height="0.391" viewBox="0 0 0.856705 0.391498" preserveAspectRatio="none" overflow="visible"><path id="Vector" d="M0.00130463 0.1517L0.281998 0L0.856705 0.3036C0.578605 0.454 0.1685 0.417 0 0.1491L0.00130463 0.1517Z" fill="var(--fill-0, #D2AC76)"/></svg>
<svg x="70.791" y="4.92" width="0.442" height="0.255" viewBox="0 0 0.4412 0.252771" preserveAspectRatio="none" overflow="visible"><path id="Vector" d="M0.162399 0.251471L0 0.00267046C0.1482 -0.0112295 0.3107 0.030271 0.4412 0.100671L0.159798 0.252771L0.162399 0.251471Z" fill="var(--fill-0, #E3DBC6)"/></svg>
<svg x="41.122" y="0.817" width="0.468" height="0.178" viewBox="0 0 0.4687 0.178205" preserveAspectRatio="none" overflow="visible"><path id="Vector" d="M0 0C0.1653 0.0072 0.3277 0.0619202 0.4687 0.14692C0.2976 0.22155 0.0982 0.15877 0 0Z" fill="var(--fill-0, #E3DBC6)"/></svg>
<svg x="22.881" y="17.535" width="59.903" height="11.976" viewBox="0 0 59.9035 11.9729" preserveAspectRatio="none" overflow="visible"><path id="Vector" d="M59.6845 9.06562C59.3578 9.18432 59.0726 9.42692 59.0373 9.78232C58.9088 9.86872 58.6863 9.98512 58.5347 9.96482C58.1783 9.16952 55.9861 10.6652 54.3707 10.5079C51.3706 10.2139 48.4866 10.5484 45.6228 11.6309C44.3088 12.2173 42.985 12.044 41.7913 11.1534C39.8121 11.7466 37.8631 11.5407 35.7652 11.113C36.6798 9.64422 38.9714 9.71702 40.3002 7.85342C40.3969 7.80242 40.6886 7.78632 40.7341 7.68512C40.7837 7.57202 40.6903 7.32282 40.6089 7.25142C40.0631 6.77272 35.3941 8.89422 34.1278 10.8713C31.5864 10.4657 29.4507 9.54152 27.3662 9.88812C26.4323 10.044 25.9752 9.71182 25.0973 9.78102L22.2272 9.99712C21.4681 10.0536 21.4736 9.39782 21.0733 9.06722L15.1429 4.17872C14.7701 3.87052 13.792 3.91702 13.8596 4.48742C14.0448 6.06962 15.8715 6.81492 17.2944 7.57602C17.7941 7.84112 18.1511 8.76422 18.7706 8.24502C18.827 8.31242 18.8499 8.44542 18.8678 8.52192L19.2533 10.1429C17.822 10.0785 15.8997 10.4533 14.6493 9.54812C13.9728 9.05842 13.1968 6.60642 11.6066 7.25372C11.4531 7.31632 11.1856 7.46152 11.3132 7.73322C11.7167 8.60382 11.3342 9.19632 10.6222 9.51502L5.87703 8.71422C5.16523 8.59312 4.45913 8.61032 3.88893 8.63582C1.90113 8.72472 1.51563 7.93722 0.734233 8.38212L0.574132 8.03782C0.381632 7.60782 -0.176368 6.75122 0.0554325 6.20692C0.628832 4.85402 2.12173 5.40332 3.09353 5.09742L7.35503 3.75792C9.14673 3.58542 10.6817 3.11952 12.3754 2.58852L19.0354 0.50452C21.9687 -0.11018 24.9672 -0.17958 27.9338 0.38692C28.2765 0.45392 28.6564 1.49692 29.3179 0.82252C30.4665 1.76162 31.8461 1.44802 33.0851 0.422719C35.9297 0.688619 38.9845 0.873519 41.5587 2.14572C45.3325 4.01352 49.0605 5.00812 53.191 5.57752L58.6853 6.85512C59.2031 6.97682 59.6198 7.43392 59.8069 7.87972C59.9382 8.19222 59.9694 8.68222 59.6819 9.06042L59.6845 9.06562ZM41.9103 10.901C44.2581 9.20702 46.9862 8.70992 48.4719 6.87712C46.94 7.06902 45.9036 7.96462 44.6482 8.66982C43.6113 9.25072 42.375 9.42792 41.909 10.905L41.9103 10.901Z" fill="var(--fill-0, #E7601A)"/></svg>
<svg x="51.268" y="1.604" width="5.683" height="15.742" viewBox="0 0 5.68253 15.7431" preserveAspectRatio="none" overflow="visible"><path id="Vector" d="M5.021 3.92451C3.5844 3.86921 2.3376 3.64481 2.2917 4.82581C2.2568 5.74211 4.0333 5.67881 5.0662 7.78421C4.3276 10.2031 5.3303 11.2536 4.853 12.0143L3.8012 10.8108C3.1338 10.7531 2.8449 11.7818 3.2995 12.2825L4.5625 13.7066C4.483 14.1659 4.6863 14.9712 4.1654 15.5434C2.8168 15.9598 1.3281 15.5791 0.00260162 15.6823L0.0466995 12.9303L0.630001 12.4979C0.809001 12.7804 1.3075 12.823 1.4556 12.576C1.5436 12.4275 1.386 11.9081 1.4977 11.7742C2.1186 11.0378 2.7126 10.1801 2.3002 9.25811C2.187 9.00881 1.8443 8.75481 1.6503 8.74881C1.4102 8.74261 1.0361 9.05201 0.928299 9.19391L0.385899 7.77501C1.0765 7.07961 0.505999 5.90431 0.540699 5.22761C0.559099 4.83791 1.1171 4.24741 0.677799 3.81121C0.601799 3.73721 0.606598 3.60031 0.605598 3.54501L1.776 1.08026L0 0.44436C1.4994 -0.23359 4.7509 -0.0505596 5.2691 0.42538C6.5495 1.59804 4.3884 2.15641 5.0197 3.92191L5.021 3.92451Z" fill="var(--fill-0, #E3DBC6)"/></svg>
<svg x="27.035" y="9.188" width="10.879" height="9.514" viewBox="0 0 10.8761 9.51258" preserveAspectRatio="none" overflow="visible"><path id="Vector" d="M3.1627 4.60548C1.8676 4.27688 0.1625 1.23018 0.1173 1.07858C0.0398 0.821478 0.169101 0.203078 0.601501 0.0716777C2.4088 -0.482722 3.5138 2.32218 5.3717 3.55748C5.2645 3.19368 5.4961 2.88898 5.6026 2.93808C7.1009 3.67838 8.0165 4.93258 9.2656 6.03538C9.7603 6.47038 11.3261 7.16738 10.751 8.15688C10.1252 9.23698 7.7832 8.79528 7.1613 7.62238C5.1785 7.96798 3.691 8.64338 1.904 9.51258L0 7.85038C0.0378 6.06628 1.3633 4.93608 3.1587 4.60418L3.1627 4.60548Z" fill="var(--fill-0, #E3DBC6)"/></svg>
<svg x="33.354" y="5.932" width="12.841" height="9.312" viewBox="0 0 12.8435 9.31536" preserveAspectRatio="none" overflow="visible"><path id="Vector" d="M12.1425 5.6966C11.9813 5.7237 11.467 5.8759 11.4089 6.0916C11.3616 6.2626 11.6975 6.5627 11.8698 6.6582C12.4549 6.9829 13.0396 7.5737 12.7802 8.3154C12.4925 9.1465 12.0162 9.3357 11.0373 9.3137C9.92902 9.29 8.81813 8.6473 8.74993 7.5554C8.98983 8.0079 9.71622 7.9052 10.0714 8.0711C10.995 8.5011 11.2653 8.5285 12.2582 8.0251C12.176 7.6785 11.9988 7.3131 11.6886 6.7115C11.4731 7.2019 11.618 7.6488 11.2984 7.6885C11.128 7.7102 10.8652 6.931 10.6846 6.8922C9.87953 6.722 8.78733 6.4573 8.41963 5.3591C8.26813 4.9056 7.41852 4.252 7.03142 4.535C6.78622 4.7119 6.76762 5.3478 6.55742 5.4024C6.25342 5.4803 5.95202 5.15 5.66412 4.7736C5.56632 5.2091 5.76103 5.5101 5.64813 5.8283L4.76972 6.1767C4.30832 5.2954 3.29513 4.6373 2.26613 4.6072C1.92583 3.9647 0.985925 3.6083 0.347925 3.2966C0.415825 2.5936 -0.130577 2.194 0.0295234 1.311C0.808923 2.6096 2.00912 3.113 3.26962 3.6785C3.89462 3.9573 4.23042 4.4774 4.93102 5.1028C5.12102 3.867 4.52202 3.2472 3.93022 2.7223L1.30213 0.3873C1.57933 0.175 1.91042 -0.0147007 2.23092 0.000899322C2.50662 0.0124993 2.83442 0.349399 3.01322 0.658199C3.41512 1.3589 4.01053 1.5243 4.52733 2.0108L6.37552 3.7333C7.88252 3.5044 9.17773 3.6 10.4514 4.1722L10.5228 4.3502C10.6316 4.4638 10.7736 4.5381 10.9346 4.544L12.1199 4.9038C12.0645 5.0985 12.0817 5.5002 12.1451 5.7019L12.1425 5.6966Z" fill="var(--fill-0, #E3DBC6)"/></svg>
<svg x="28.926" y="3.215" width="8.352" height="6.388" viewBox="0 0 8.35609 6.39176" preserveAspectRatio="none" overflow="visible"><path id="Vector" d="M8.35609 5.43556L7.69549 6.39176C6.43499 5.82626 5.23349 5.32016 4.45529 4.02426C4.29529 4.90716 4.84299 5.30946 4.77379 6.00976C3.60309 5.43276 2.72739 4.53936 1.58639 3.64906C0.646288 2.91876 -0.276313 2.12396 0.0771867 0.712359C0.498387 -0.975571 3.08889 0.629859 5.06169 2.47786L5.72539 3.10186L8.35349 5.43686L8.35609 5.43556Z" fill="var(--fill-0, #463439)"/></svg>
<svg x="74.618" y="14.38" width="5.409" height="6.873" viewBox="0 0 5.40885 6.8744" preserveAspectRatio="none" overflow="visible"><path id="Vector" d="M4.9844 6.1922C4.9127 6.2538 4.8995 6.4671 4.9148 6.5514L4.307 6.8744C4.2187 6.6555 4.2709 6.3344 3.7658 6.0784C3.9178 6.4595 3.4501 6.953 3.2307 6.802L1.9404 4.9156C1.8136 4.7321 1.8425 4.3504 1.5393 4.3032C1.4259 4.287 1.2248 4.3732 1.1505 4.4361C0.885497 3.7794 0.4585 3.288 0 2.7596C0.3686 2.6924 0.771597 2.8216 1.0143 2.2128C0.300397 1.594 -0.0758986 0.8118 0.112701 0C0.581601 0.5495 0.9965 0.6695 1.4226 0.4722L1.6982 0.917C1.4466 1.4744 3.1039 3.1238 2.9079 3.0335C3.1434 3.1437 3.5453 3.024 3.6939 2.8981L4.0174 3.6867C4.1367 4.0085 4.0711 4.369 3.8623 4.6198C4.3263 4.8993 4.6173 4.7819 4.8797 4.6064C5.018 4.8531 5.3387 5.0623 5.401 5.4286C5.4518 5.7251 5.2495 6.0022 4.9817 6.1935L4.9844 6.1922ZM1.3529 2.9054L1.1554 2.8388L1.0882 3.0361L1.2857 3.1027L1.3529 2.9054Z" fill="var(--fill-0, #E8CFA6)"/></svg>
<svg x="33.99" y="4.813" width="9.81" height="5.287" viewBox="0 0 9.8129 5.2834" preserveAspectRatio="none" overflow="visible"><path id="Vector" d="M9.8129 5.2834C8.5393 4.7113 7.2441 4.6157 5.737 4.8446L3.8888 3.1221C3.3707 2.6395 2.7767 2.4701 2.3747 1.7695C2.1959 1.4607 1.8695 1.1263 1.5925 1.1122C1.2733 1.0992 0.9408 1.2862 0.6637 1.4986L0 0.874599L1.3793 0C2.3618 0.2893 3.0392 0.8343 3.7952 1.4586C5.4478 2.8183 7.4802 3.6 9.3241 4.3467L9.8103 5.2782L9.8129 5.2834Z" fill="var(--fill-0, #E8CFA6)"/></svg>
<svg x="59.037" y="9.348" width="4.666" height="4.529" viewBox="0 0 4.66405 4.52693" preserveAspectRatio="none" overflow="visible"><path id="Vector" d="M3.19295 4.43224C2.41075 5.00874 -0.180253 2.84904 0.00994725 0.766544C0.0454472 0.378244 0.854651 -0.0902575 1.20635 0.0150425C2.33625 0.983043 3.73455 2.08114 4.66405 3.23014C4.48465 3.63374 3.82825 3.51154 3.54005 3.18784C3.54645 3.84094 3.44875 4.25014 3.19155 4.43624L3.19295 4.43224Z" fill="var(--fill-0, #463439)"/></svg>
<svg x="47.539" y="6.406" width="4.463" height="3.001" viewBox="0 0 4.46576 3.00076" preserveAspectRatio="none" overflow="visible"><path id="Vector" d="M4.1197 2.9797C2.7205 3.0602 1.1602 2.9479 0 1.9653C0.7759 1.5493 0.9576 0.997 0.8097 0.3907L1.3881 0.1215L1.6541 0C2.3915 0.4465 3.3218 0.4499 4.2759 0.4349C4.2439 1.1103 4.813 2.2896 4.121 2.9823L4.1197 2.9797Z" fill="var(--fill-0, #463439)"/></svg>
<svg x="71.012" y="12.053" width="5.038" height="5.085" viewBox="0 0 5.0341 5.08558" preserveAspectRatio="none" overflow="visible"><path id="Vector" d="M5.0301 2.79818C4.604 2.99548 4.1904 2.87808 3.7202 2.32598C3.5316 3.13778 3.9119 3.92128 4.6218 4.53878C4.3791 5.14758 3.9761 5.01838 3.6075 5.08558L1.6309 2.80948C1.9156 2.65258 2.2224 2.55358 2.5862 2.61678C2.4439 1.34818 1.2952 0.842278 0.323196 1.16798C0.228396 0.929278 0.2643 0.681879 0 0.333279C0.7686 0.649479 1.3027 0.283978 2.0525 0.0352785C2.8023 -0.213522 3.2991 0.919379 3.7184 1.37528L5.0341 2.79958L5.0301 2.79818Z" fill="var(--fill-0, #D2AC76)"/></svg>
<svg x="53.566" y="5.476" width="3.747" height="3.913" viewBox="0 0 3.74939 3.91311" preserveAspectRatio="none" overflow="visible"><path id="Vector" d="M2.77518 3.91311C1.73958 1.80911 -0.0369157 1.87241 0.000584269 0.954709C0.0464843 -0.226291 1.29329 -0.00179024 2.72998 0.0534098C2.98719 0.0610098 3.32988 0.33481 3.57198 0.43841C4.03178 0.96941 3.45218 1.63621 3.45528 2.17611C3.46118 3.10181 3.45018 3.58641 2.77778 3.91181L2.77518 3.91311Z" fill="var(--fill-0, #463439)"/></svg>
<svg x="38.984" y="10.396" width="6.628" height="3.937" viewBox="0 0 6.62229 3.93388" preserveAspectRatio="none" overflow="visible"><path id="Vector" d="M3.11399 3.08912C3.03549 2.98352 2.79009 2.76672 2.66299 2.83602C2.27309 2.31972 2.18829 1.75452 2.59969 1.17402L0.692394 1.67272C0.513494 1.59702 0.127991 1.61662 0.0121911 1.36212C0.127791 1.04252 -0.0696063 0.742919 0.0281937 0.307419C0.314794 0.681119 0.617493 1.01402 0.921493 0.936119C1.13559 0.882919 1.15149 0.248318 1.39549 0.0687181C1.78259 -0.214282 2.63219 0.439319 2.78359 0.892819C3.15139 1.99112 4.24359 2.25582 5.04869 2.42592C5.22919 2.46482 5.49079 3.24132 5.66249 3.22222C5.98209 3.18252 5.83709 2.73562 6.05269 2.24522C6.36289 2.84682 6.53999 3.21222 6.62229 3.55882C5.63069 4.06482 5.36029 4.03752 4.43549 3.60492C4.08029 3.43902 3.35519 3.54432 3.11399 3.08912Z" fill="var(--fill-0, #BFB6A4)"/></svg>
<svg x="61.396" y="6.376" width="3.968" height="3.694" viewBox="0 0 3.9714 3.6918" preserveAspectRatio="none" overflow="visible"><path id="Vector" d="M2.5433 3.6918C1.441 3.3533 0.4796 2.4531 0 1.3084L1.2276 0C2.4676 0.4707 3.2655 1.3664 3.9714 2.6028C3.5408 2.6776 3.3052 2.5872 3.05 2.6573C2.8266 2.7184 2.5527 3.044 2.5459 3.6905L2.5433 3.6918Z" fill="var(--fill-0, #463439)"/></svg>
<svg x="77.994" y="11.378" width="3.818" height="3.73" viewBox="0 0 3.82211 3.72682" preserveAspectRatio="none" overflow="visible"><path id="Vector" d="M0.00270081 1.3323C0.810901 1.8422 1.08371 0.6607 2.26231 0C2.66841 0.8758 3.2185 1.5165 3.8041 2.389C3.1643 2.5605 2.94911 3.1984 3.82211 3.0791C3.56231 3.4666 2.8774 3.6735 2.2794 3.7226C0.905004 3.8335 0.8183 1.7237 0 1.3336L0.00270081 1.3323Z" fill="var(--fill-0, #D2AC76)"/></svg>
<svg x="51.25" y="10.354" width="2.457" height="3.99" viewBox="0 0 2.46318 3.98861" preserveAspectRatio="none" overflow="visible"><path id="Vector" d="M0.655899 3.74933L0 1.71383L0.954201 0.445231C1.062 0.303431 1.4387 -0.00727011 1.6762 0.000129887C1.8702 0.00612989 2.2129 0.260231 2.3261 0.509531C2.7385 1.43143 2.1471 2.28783 1.5235 3.02563C1.4118 3.15953 1.5695 3.67893 1.4815 3.82733C1.3334 4.07443 0.833599 4.02913 0.655899 3.74933Z" fill="var(--fill-0, #BFB6A4)"/></svg>
<svg x="54.344" y="12.414" width="1.776" height="2.901" viewBox="0 0 1.77557 2.89794" preserveAspectRatio="none" overflow="visible"><path id="Vector" d="M1.48497 2.89794L0.222067 1.47384C-0.235233 0.974437 0.0537656 -0.0542644 0.723666 0.00223556L1.77557 1.20564L1.48497 2.89794Z" fill="var(--fill-0, #BFB6A4)"/></svg>
<svg x="23.182" y="9.567" width="0.999" height="3.901" viewBox="0 0 0.992162 3.89948" preserveAspectRatio="none" overflow="visible"><path id="Vector" d="M0.35337 3.4086C-0.24913 2.295 -0.0853298 1.046 0.87667 0C1.12677 1.3335 0.95077 2.4376 0.54017 3.5001C0.51207 3.5698 0.50217 3.6633 0.50707 3.7265C0.36467 4.125 0.178669 3.7016 0.192769 3.7635L0.35337 3.4086Z" fill="var(--fill-0, #E8CFA6)"/></svg>
<svg x="43.314" y="8.999" width="2.422" height="1.829" viewBox="0 0 2.4242 1.83435" preserveAspectRatio="none" overflow="visible"><path id="Vector" d="M2.1547 1.83435L0.969398 1.47444C0.836398 1.43184 0.683898 1.34304 0.557598 1.28074L0.486198 1.10264L0 0.171244C0.793 -0.450056 2.3975 0.792244 2.423 1.15054C2.44 1.37184 2.2721 1.62535 2.1547 1.83435Z" fill="var(--fill-0, #D2AC76)"/></svg>
<svg x="71.33" y="13.125" width="2.262" height="1.741" viewBox="0 0 2.2629 1.74023" preserveAspectRatio="none" overflow="visible"><path id="Vector" d="M1.30901 1.74023C0.857106 1.21843 0.2675 0.758035 0 0.0960353C0.9719 -0.229565 2.118 0.277534 2.2629 1.54483C1.9004 1.48433 1.591 1.58454 1.3077 1.73754L1.30901 1.74023Z" fill="var(--fill-0, #E8CFA6)"/></svg>
<svg x="35.616" y="10.538" width="2.501" height="1.835" viewBox="0 0 2.5063 1.83446" preserveAspectRatio="none" overflow="visible"><path id="Vector" d="M2.5063 1.5682C2.3383 1.6347 2.1759 1.8593 1.9715 1.8322C1.7672 1.8052 0.3103 0.5818 0 0C1.033 0.0314 2.0422 0.688202 2.5037 1.5695L2.5063 1.5682Z" fill="var(--fill-0, #463439)"/></svg>
<svg x="75.766" y="18.684" width="3.164" height="3.013" viewBox="0 0 3.15659 3.01513" preserveAspectRatio="none" overflow="visible"><path id="Vector" d="M3.1526 2.57189C2.9486 3.11899 2.2781 3.13499 1.7184 2.75499C0.801399 2.13149 0.3767 1.07119 0 0.13489C0.0743 0.0719896 0.275494 -0.0142106 0.388794 0.00198941C0.690694 0.0465894 0.661893 0.428291 0.789993 0.614491L2.0803 2.50089C2.2997 2.65179 2.76859 2.16099 2.61539 1.77729C3.12049 2.03319 3.06829 2.35439 3.15659 2.57329L3.1526 2.57189Z" fill="var(--fill-0, #D2AC76)"/></svg>
<svg x="50.702" y="12.065" width="1.202" height="2.475" viewBox="0 0 1.19805 2.4706" preserveAspectRatio="none" overflow="visible"><path id="Vector" d="M1.19805 2.0382L0.614646 2.4706C0.474346 2.133 0.0171465 1.814 0.00964654 1.1384C0.00694654 0.739401 -0.108952 0.2847 0.540748 0L1.19675 2.0356L1.19805 2.0382Z" fill="var(--fill-0, #463439)"/></svg>
<svg x="39.682" y="11.574" width="1.971" height="1.752" viewBox="0 0 1.9705 1.7516" preserveAspectRatio="none" overflow="visible"><path id="Vector" d="M1.9705 1.662C1.2091 2.074 0.4602 0.957299 0 0.498699L1.9073 0C1.4958 0.5805 1.5806 1.1457 1.9705 1.662Z" fill="var(--fill-0, #E3DBC6)"/></svg>
<svg x="76.288" y="15.292" width="2.024" height="2.161" viewBox="0 0 2.02175 2.15995" preserveAspectRatio="none" overflow="visible"><path id="Vector" d="M2.02175 1.9812C1.87315 2.107 1.47125 2.2267 1.23575 2.1166C1.43305 2.2095 -0.225549 0.5574 0.026051 0L2.02175 1.9812Z" fill="var(--fill-0, #D2AC76)"/></svg>
<svg x="49.191" y="5.423" width="2.925" height="1.421" viewBox="0 0 2.92709 1.42087" preserveAspectRatio="none" overflow="visible"><path id="Vector" d="M2.6218 1.4164C1.665 1.4326 0.7374 1.428 0 0.981501C0.8444 0.597401 1.6739 1.2905 2.7589 0C3.1982 0.4362 2.6402 1.0267 2.6218 1.4164Z" fill="var(--fill-0, #D2AC76)"/></svg>
<svg x="76.306" y="9.608" width="1.874" height="2.386" viewBox="0 0 1.8764 2.38363" preserveAspectRatio="none" overflow="visible"><path id="Vector" d="M1.0763 2.38234C0.460302 1.94154 0.3033 1.11004 0 0.455836C0.3246 0.252936 0.581004 -0.0147645 1.1945 0.000635475C1.0642 0.156835 0.901601 0.407736 0.921501 0.588236C0.952901 0.845136 1.1824 1.06984 1.5174 1.29494L0.6091 1.57603L1.8764 2.10864C1.5104 2.18104 1.315 2.19223 1.0737 2.38363L1.0763 2.38234Z" fill="var(--fill-0, #D2AC76)"/></svg>
<svg x="37.066" y="1.054" width="2.696" height="0.527" viewBox="0 0 2.7007 0.522151" preserveAspectRatio="none" overflow="visible"><path id="Vector" d="M0 0.109362C0.9156 0.136392 1.8598 -0.185408 2.7007 0.163972C1.7894 0.505652 0.7676 0.783722 0 0.109362Z" fill="var(--fill-0, #D2AC76)"/></svg>
<svg x="78.48" y="18.062" width="1.016" height="1.101" viewBox="0 0 1.0174 1.10187" preserveAspectRatio="none" overflow="visible"><path id="Vector" d="M1.0174 0.9196C0.752403 1.0964 0.4653 1.2152 0 0.932999C0.2087 0.682299 0.273099 0.3191 0.154999 0C0.602699 0.153 0.798203 0.529 1.0174 0.9196Z" fill="var(--fill-0, #D2AC76)"/></svg>
<svg x="81.918" y="26.605" width="1.078" height="0.764" viewBox="0 0 1.0768 0.768242" preserveAspectRatio="none" overflow="visible"><path id="Vector" d="M0 0.716702C0.0327 0.362602 0.320601 0.1187 0.647301 0L1.0768 0.509903C0.749697 0.694403 0.4003 0.853702 0 0.716702Z" fill="var(--fill-0, #B4811B)"/></svg>
<svg x="34.741" y="0.527" width="1.971" height="0.574" viewBox="0 0 1.9666 0.577581" preserveAspectRatio="none" overflow="visible"><path id="Vector" d="M1.9666 0.516492C1.3003 0.707632 0.6293 0.408912 0 0.188032C0.675 -0.132128 1.5124 -0.0566483 1.9666 0.516492Z" fill="var(--fill-0, #D2AC76)"/></svg>
<svg x="48.21" y="6.05" width="0.716" height="0.74" viewBox="0 0 0.713697 0.740785" preserveAspectRatio="none" overflow="visible"><path id="Vector" d="M0.713697 0.471685L0.135297 0.740785C0.0202973 0.567885 -0.0587034 0.341085 0.0560966 0.133485C0.140197 -0.0229152 0.362097 -0.0537151 0.486497 0.104785C0.558397 0.197185 0.642096 0.326585 0.712396 0.469085L0.713697 0.471685Z" fill="var(--fill-0, #D2AC76)"/></svg>
<svg x="33.584" y="0.533" width="1.052" height="0.32" viewBox="0 0 1.0508 0.319076" preserveAspectRatio="none" overflow="visible"><path id="Vector" d="M0 0.10489C0.3482 -0.0768803 0.7542 -0.0148301 1.0508 0.23249C0.7226 0.388 0.3007 0.3272 0 0.10489Z" fill="var(--fill-0, #D2AC76)"/></svg>
<svg x="23.146" y="25.587" width="0.468" height="0.343" viewBox="0 0 0.469002 0.347095" preserveAspectRatio="none" overflow="visible"><path id="Vector" d="M0 0.2577L0.3085 0L0.469002 0.345198C0.336702 0.357898 0.125301 0.304298 0.00130081 0.260298L0 0.2577Z" fill="var(--fill-0, #D2AC76)"/></svg>
<svg x="79.531" y="20.572" width="0.097" height="0.361" viewBox="0 0 0.102241 0.3612" preserveAspectRatio="none" overflow="visible"><path id="Vector" d="M0.00476235 0.3612C-0.00793765 0.2751 0.00136205 0.0593 0.074762 0C0.124462 0.1008 0.109962 0.306 0.00476235 0.3612Z" fill="var(--fill-0, #D2AC76)"/></svg>
<svg x="80.035" y="10.834" width="0.318" height="0.278" viewBox="0 0 0.318253 0.281157" preserveAspectRatio="none" overflow="visible"><path id="Vector" d="M0.0926971 0.281157L0 0.0464575C0.4165 -0.136143 0.399297 0.278257 0.0926971 0.281157Z" fill="var(--fill-0, #D2AC76)"/></svg>
<svg x="33.495" y="24.799" width="3.341" height="2.771" viewBox="0 0 3.3385 2.7746" preserveAspectRatio="none" overflow="visible"><path id="Vector" d="M2.8603 2.7391C2.4745 2.818 2.1252 2.7575 1.7684 2.6351C1.5617 2.5632 1.2672 2.6003 1.0522 2.5851L0.8484 2.6791C0.6156 2.5545 0.2913 2.311 0 2.2612C0.7119 1.9425 1.0944 1.3501 0.690899 0.4795C0.564699 0.2104 0.830799 0.0626 0.984299 0L3.3385 2.0403L2.8603 2.7391ZM2.1669 2.2152L1.9694 2.1486L1.889 2.3458L2.0472 2.3727L2.1669 2.2152Z" fill="var(--fill-0, #D2AC76)"/></svg>
<svg x="26.77" y="26.161" width="7.583" height="1.314" viewBox="0 0 7.5817 1.31478" preserveAspectRatio="none" overflow="visible"><path id="Vector" d="M1.0905 0.952777C0.6961 0.934177 0.124 0.429075 0 0.0177753C0.5675 -0.00642474 1.2762 -0.0249251 1.988 0.0961749L6.7332 0.896975C7.0245 0.946775 7.3476 1.18758 7.5817 1.31478L4.0718 1.09527L1.0945 0.954074L1.0905 0.952777Z" fill="var(--fill-0, #463439)"/></svg>
<svg x="57.72" y="29.452" width="5.639" height="0.829" viewBox="0 0 5.6423 0.828519" preserveAspectRatio="none" overflow="visible"><path id="Vector" d="M5.1481 0.586406C4.6678 1.00741 4.0637 0.764207 3.4148 0.703907C2.2055 0.588907 1.0157 0.733307 0 0.270107C0.3986 0.0437069 0.891303 -0.0255933 1.4413 0.00800671L5.6423 0.273506C5.5303 0.453506 5.3543 0.543706 5.1481 0.586406Z" fill="var(--fill-0, #463439)"/></svg>
<svg x="34.556" y="27.38" width="0.751" height="0.48" viewBox="0 0 0.752827 0.478719" preserveAspectRatio="none" overflow="visible"><path id="Vector" d="M0 0C0.215 0.0152 0.509398 -0.0219008 0.716198 0.0499992C0.798498 0.176699 0.727899 0.273899 0.644199 0.364399C0.497999 0.521899 0.3292 0.513397 0.2299 0.358997L0 0Z" fill="var(--fill-0, #463439)"/></svg>
<svg x="56.562" y="29.287" width="0.84" height="0.456" viewBox="0 0 0.837402 0.455975" preserveAspectRatio="none" overflow="visible"><path id="Vector" d="M0 9.66072e-06C0.3088 -0.00149034 0.562402 0.172008 0.837402 0.295408C0.733902 0.372708 0.556601 0.460309 0.399601 0.455809C0.196401 0.451109 0.0185 0.21081 0 9.66072e-06Z" fill="var(--fill-0, #463439)"/></svg>
<svg x="54.715" y="28.896" width="0.407" height="0.225" viewBox="0 0 0.4034 0.221901" preserveAspectRatio="none" overflow="visible"><path id="Vector" d="M0 0C0.1213 0.0651 0.285 0.109301 0.4034 0.221901L0 0Z" fill="var(--fill-0, #463439)"/></svg>
<svg x="55.466" y="29.21" width="0.901" height="0.189" viewBox="0 0 0.903198 0.188521" preserveAspectRatio="none" overflow="visible"><path id="Vector" d="M0 0.0329892C0.3092 -0.0343108 0.623098 0.00108904 0.903198 0.141689C0.589798 0.253789 0.3015 0.143389 0 0.0329892Z" fill="var(--fill-0, #463439)"/></svg>
<svg x="36.73" y="21.531" width="7.22" height="5.316" viewBox="0 0 7.21694 5.31677" preserveAspectRatio="none" overflow="visible"><path id="Vector" d="M7.21694 5.07727C6.53304 5.75287 6.08254 4.81367 5.01154 4.53197C4.99354 4.45557 4.96933 4.31977 4.91433 4.25507C3.90463 3.05707 1.41764 2.18157 0.00333555 0.497468C-0.0642645 -0.0729321 0.913835 -0.119433 1.28653 0.188767L7.21694 5.07727Z" fill="var(--fill-0, #D2AC76)"/></svg>
<svg x="57.004" y="24.722" width="6.62" height="3.712" viewBox="0 0 6.62011 3.71329" preserveAspectRatio="none" overflow="visible"><path id="Vector" d="M6.1777 0.667645L1.6718 3.08604C0.838903 3.53334 0.7 3.79884 0 3.68824C1.2675 1.71374 5.9352 -0.410355 6.4811 0.0683446C6.5624 0.139745 6.6558 0.388945 6.6063 0.502045C6.5621 0.605845 6.2717 0.618046 6.1724 0.670346L6.1777 0.667645Z" fill="var(--fill-0, #ED8650)"/></svg>
<svg x="78.144" y="10.757" width="0.539" height="1.072" viewBox="0 0 0.540075 1.0738" preserveAspectRatio="none" overflow="visible"><path id="Vector" d="M0.536697 1.0738C0.250397 0.867301 0.0318 0.5913 0 0C0.221 0.1008 0.578597 0.311501 0.536697 1.0738Z" fill="var(--fill-0, #D2AC76)"/></svg>
<svg x="64.79" y="24.409" width="6.566" height="4.032" viewBox="0 0 6.5629 4.0279" preserveAspectRatio="none" overflow="visible"><path id="Vector" d="M0 4.0279C0.4674 2.5535 1.6997 2.3749 2.7392 1.7928C3.9933 1.0915 5.0284 0.1933 6.5629 0C5.0772 1.8329 2.3478 2.3338 0.00140381 4.024L0 4.0279Z" fill="var(--fill-0, #ED8650)"/></svg>
<svg x="36.739" y="22.029" width="4.905" height="3.913" viewBox="0 0 4.911 3.91468" preserveAspectRatio="none" overflow="visible"><path id="Vector" d="M4.911 3.7576C4.2927 4.2794 3.9358 3.3564 3.4348 3.0886C2.0119 2.3275 0.1851 1.5822 0 0C1.4116 1.6854 3.9 2.557 4.911 3.7576Z" fill="var(--fill-0, #B4811B)"/></svg>
<svg x="36.624" y="8.649" width="1.697" height="2.38" viewBox="0 0 1.69731 2.3805" preserveAspectRatio="none" overflow="visible"><path id="Vector" d="M0 0.9563L0.660599 0C1.2537 0.5276 1.8514 1.1447 1.6614 2.3805C0.9608 1.7551 0.6223 1.2364 0 0.9563Z" fill="var(--fill-0, #533A79)"/></svg>
<svg x="43.871" y="10.271" width="0.415" height="0.195" viewBox="0 0 0.412899 0.194201" preserveAspectRatio="none" overflow="visible"><path id="Vector" d="M0 0C0.1266 0.0625 0.280799 0.154101 0.412899 0.194201C0.251499 0.188301 0.1091 0.1139 0 0Z" fill="var(--fill-0, #E8CFA6)"/></svg>
<svg x="75.705" y="17.222" width="0.274" height="0.266" viewBox="0 0 0.267395 0.266401" preserveAspectRatio="none" overflow="visible"><path id="Vector" d="M0.267395 0.0671997L0.067894 0L0 0.1992L0.199501 0.266401L0.267395 0.0671997Z" fill="var(--fill-0, #D2AC76)"/></svg>
<svg x="35.387" y="26.948" width="0.274" height="0.225" viewBox="0 0 0.278198 0.228001" preserveAspectRatio="none" overflow="visible"><path id="Vector" d="M0.278198 0.0669022L0.1591 0.228001L0 0.200901L0.0795975 0L0.278198 0.0669022Z" fill="var(--fill-0, #463439)"/></svg>
<svg x="41.414" y="30.015" width="41.485" height="28.784" viewBox="0 0 41.4825 28.7842" preserveAspectRatio="none" overflow="visible"><path id="Vector" d="M40.3435 20.203C40.2714 20.2346 40.206 20.2379 40.1462 20.2071C38.3326 22.2358 36.4861 21.4192 35.9152 24.4379C34.3812 25.4456 31.525 25.2953 30.3204 23.9324L28.7466 20.5879C27.7789 19.2555 26.3441 18.5055 24.7626 19.4202C26.5155 20.8091 26.7342 21.7814 26.7374 23.301C26.7394 23.7114 27.644 24.3241 27.5036 24.8392L26.7324 28.1504C26.3403 28.5238 25.7007 28.7789 25.1613 28.7842L23.9613 28.6288L23.3311 28.7262C22.8482 27.9773 21.5065 28.4901 21.128 27.7217C20.9089 27.2741 20.8458 26.7942 20.8329 26.182C20.3033 26.6232 19.8818 26.7444 19.3625 26.8089C19.2601 26.7112 18.9962 26.5209 18.9985 26.3735C19.0034 25.776 18.3944 25.5545 18.069 25.1329C17.3545 24.2056 18.4299 22.7383 18.3914 21.4623C18.3912 21.4293 18.3662 21.392 18.3515 21.3618C18.7642 21.3053 19.0306 20.8055 18.9354 20.4426C18.5788 19.1033 16.5725 19.8819 14.9108 20.4488L8.22602 22.7237C7.29752 23.039 6.87533 24.3237 6.56073 25.0304L6.62852 25.3115C5.94132 25.8244 5.63923 26.6457 5.18253 27.3311C4.58123 27.4381 3.90953 27.4263 3.73843 26.8827C3.56723 26.3392 3.63952 25.8609 3.84632 25.1714L1.33403 26.3088C0.863826 26.5231 0.300324 26.368 0.135024 26.0153C-0.0392756 25.6462 -0.0672766 25.1777 0.185523 24.7495C1.95022 23.2757 3.81202 22.0955 5.99322 21.1611C7.21982 19.1407 8.83243 17.5605 10.577 15.9796L11.8778 11.8284C10.4514 11.6825 8.86652 12.0671 7.79642 11.2606C6.96082 10.6319 6.11343 6.83924 6.89093 6.23144C7.27593 5.93134 7.74553 6.00204 8.40773 6.02754C7.78823 5.04654 7.36182 3.39953 8.25722 2.50873C8.82882 1.93963 9.68843 1.86514 9.45753 0.523237C10.3309 0.794037 10.7792 -0.0157657 11.3166 0.000234264L13.4279 0.0684334C14.3493 0.0993334 14.6261 0.422136 15.1412 0.895036C16.0919 1.76894 17.01 2.70893 16.6764 4.08193C17.4256 4.04313 17.7658 4.33604 18.0645 4.61574C18.437 4.96854 19.1294 8.41563 17.6669 9.83563L18.0332 10.1237L20.6743 8.52123C21.5691 7.97843 22.3836 7.75953 23.1538 7.22503C23.4777 6.99933 24.1514 6.79784 24.6418 6.62784C25.2391 6.41964 25.7894 6.99993 25.962 7.47123C26.1223 7.90893 25.9615 8.47584 25.3462 8.97214C27.7545 10.6217 25.7582 16.0729 24.3191 16.2112L21.1039 16.5152C20.7615 16.5465 20.4951 16.7585 20.4255 16.9635C20.3926 17.0596 20.3471 17.1851 20.5573 17.4095L24.3068 17.0411C25.2326 16.9512 26.0745 16.958 26.84 16.7183C27.4633 16.5203 27.4618 15.7769 27.8252 15.4418C29.5519 13.8462 28.0177 11.4958 32.1515 11.0793C33.5981 10.9335 35.5971 11.1548 36.0168 12.782L35.5342 13.7452C35.1192 14.5727 37.749 14.0609 39.449 15.5676C40.1767 16.2135 40.8216 17.1538 41.4825 18.1631C40.8602 18.9096 40.2733 19.4456 40.3453 20.1967L40.3435 20.203ZM12.8868 14.6433C14.3434 13.863 15.3597 12.9285 16.4002 11.8666C15.4833 11.9398 14.4469 11.8886 13.8371 12.3659C13.3162 12.9015 13.2327 13.8317 12.8868 14.6433ZM11.5156 18.9636L16.8444 17.5251C16.6762 16.933 16.1949 16.2888 15.8279 16.2048C14.0721 16.5585 12.6093 17.5618 11.5162 18.9665L11.5156 18.9636Z" fill="var(--fill-0, #609939)"/></svg>
<svg x="59.646" y="20.815" width="28.732" height="26.611" viewBox="0 0 28.7329 26.6143" preserveAspectRatio="none" overflow="visible"><path id="Vector" d="M28.4481 6.8842C28.5844 7.1464 28.6779 7.5006 28.6315 7.7972C27.7502 8.0437 27.5797 8.9902 27.8224 9.8351C27.614 10.0362 27.4458 10.4036 27.3534 10.6788L25.6334 12.0543C25.7179 12.7281 26.1032 13.3093 26.6734 13.5321C26.8206 13.8043 26.809 14.2862 26.8448 14.5883L26.6842 15.0442L26.4167 15.3463C25.9165 15.5122 25.4814 15.8488 25.1066 16.315L23.6893 16.5692C23.3176 16.636 22.9337 16.6061 22.5022 16.8341C22.2477 16.9658 21.9902 17.305 22.101 17.767C21.9123 17.7215 21.6809 17.7679 21.4917 17.8154C17.2099 16.6286 16.6811 12.2304 13.0629 14.3371L8.28114 17.1212C8.65284 17.726 9.19985 17.4733 9.58825 17.2235L12.234 15.5182C13.5193 14.6892 14.4613 14.8451 15.7128 15.5305C16.3584 15.883 17.2133 15.8634 17.4029 16.6973C17.5453 17.3273 17.527 17.9813 17.1934 18.7786C18.4231 18.7246 19.156 18.1671 20.0809 18.9679C20.4612 19.2983 20.2256 19.9782 20.3796 20.414C20.5499 20.8258 21.6767 20.959 21.6581 21.6431L21.7551 22.2396C21.4151 22.3634 21.2016 22.6493 21.2495 23.0961C21.2747 23.3103 21.3675 23.5807 21.6679 23.6772C21.7353 23.8924 21.8163 24.132 21.9641 24.3112L21.2156 24.7696C19.5156 23.2628 16.8887 23.7742 17.3008 22.9472L17.7834 21.984C17.3637 20.3567 15.3676 20.1349 13.9181 20.2812C9.78724 20.6972 11.3185 23.0482 9.59184 24.6438C9.62554 24.3437 9.12815 23.5975 8.79815 23.9024C8.34815 24.3197 8.50494 25.3787 8.60724 25.9231C7.84514 26.1652 6.99984 26.1561 6.07404 26.246L2.32454 26.6143C2.11424 26.39 2.15684 26.265 2.19274 26.1683C2.26234 25.9634 2.53164 25.7509 2.87104 25.7201L6.08624 25.4161C7.52294 25.2812 9.52175 19.8266 7.11345 18.177C7.72875 17.6806 7.88945 17.1138 7.72915 16.6761C7.55665 16.2048 7.00684 15.6274 6.40894 15.8326C5.91564 16.0032 5.24484 16.2042 4.92104 16.4299C6.44914 12.8657 1.90324 14.412 0.141243 10.7371L0.78334 10.0318C1.12464 9.6589 -0.431158 9.0636 0.118942 7.0053C0.375842 6.0395 0.767441 5.5192 1.60464 5.293C2.44174 5.0669 2.94484 5.2362 3.66284 5.9739C3.35894 4.5798 3.07094 3.7014 3.21094 2.5927C4.00384 2.3388 4.89134 2.0132 4.86354 1.0979L5.27464 0.984699L7.85164 0C9.47164 0.8892 9.82325 2.7931 10.8755 2.7214L11.2103 3.513C11.0388 3.911 11.1295 4.3138 11.2522 4.6955C11.3091 4.8707 11.3284 5.149 11.4493 5.2972L10.552 6.2902L12.2574 7.0104C12.4907 8.5407 12.5626 10.2663 11.625 11.5878C10.6873 12.9093 7.74644 12.5321 7.15834 14.9153C8.98284 14.2878 10.4974 13.1608 12.1823 12.1578C14.397 10.8423 14.6966 8.1055 13.4258 6.0864C13.0623 5.51 13.5308 4.7593 13.4436 4.263L14.2848 2.8277C15.2749 2.2969 16.1664 1.8806 16.4618 0.8957C16.6658 0.9593 17.1334 0.8595 17.3194 0.7946C17.3973 1.0978 17.6174 1.0864 17.8863 0.999901C18.0275 0.952401 18.316 0.970199 18.2618 0.617599C18.5052 0.682799 18.9563 0.559101 19.2001 0.498301C20.232 1.261 20.6906 2.2004 21.0586 3.6005C21.7915 2.6592 22.4633 2.3682 23.2932 2.3592C24.0483 2.3194 24.5431 2.6522 24.473 3.0941C24.4079 3.4991 24.6389 3.7376 24.9765 3.6652L25.6982 3.5117L25.9226 3.4756C26.4174 4.3841 27.9748 3.6928 28.701 5.3855L28.7329 5.6193C28.4714 5.8094 28.0156 6.0839 27.9105 6.4514C27.8499 6.6727 28.0419 6.8315 28.1216 6.8405L28.4475 6.8813L28.4481 6.8842Z" fill="var(--fill-0, #438030)"/></svg>
<svg x="67.927" y="34.591" width="13.451" height="7.874" viewBox="0 0 13.4505 7.86961" preserveAspectRatio="none" overflow="visible"><path id="Vector" d="M13.3771 7.86901C13.3957 7.18491 12.2689 7.05171 12.0985 6.63991C11.9446 6.20411 12.1831 5.5236 11.7999 5.1938C10.875 4.393 10.1421 4.9505 8.91241 5.0045C9.24601 4.2072 9.2642 3.55321 9.1219 2.92321C8.9352 2.08881 8.0774 2.10901 7.4318 1.75651C6.1802 1.07101 5.2383 0.915105 3.953 1.74411L1.30721 3.4494C0.921705 3.6987 0.3747 3.95131 0 3.34711L4.78191 0.563006C8.40011 -1.54369 8.9289 2.85461 13.2106 4.04141C12.1603 6.12161 13.8144 6.87241 13.3742 7.86961L13.3771 7.86901Z" fill="var(--fill-0, #E3DBC6)"/></svg>
<svg x="66.805" y="26.114" width="7.017" height="9.62" viewBox="0 0 7.01882 9.6187" preserveAspectRatio="none" overflow="visible"><path id="Vector" d="M4.2939 0C4.546 0.3035 4.7583 0.6984 5.0252 0.8251C5.4309 1.0188 5.9726 0.8661 6.2675 0.7897C7.5417 2.8112 7.2387 5.5457 5.024 6.8611C3.3391 7.8642 1.8245 8.9912 0 9.6187C0.5882 7.2354 3.50961 7.6373 4.46671 6.2912C5.42371 4.9451 5.3353 3.2436 5.0991 1.7138L3.3937 0.993599L4.291 0.000598907L4.2939 0Z" fill="var(--fill-0, #E3DBC6)"/></svg>
<svg x="47.972" y="49.723" width="12.399" height="5.328" viewBox="0 0 12.394 5.3268" preserveAspectRatio="none" overflow="visible"><path id="Vector" d="M11.7914 1.6611C11.8784 1.357 11.6822 0.632198 11.3052 0.607098C9.9968 0.513998 9.1956 1.6509 8.2005 2.0747C6.3549 2.862 4.3276 2.9369 2.3957 3.2008C1.4977 3.9182 1.007 4.9338 0 5.3268C0.3146 4.6201 0.736798 3.3354 1.6653 3.0201L8.3501 0.745301C10.0124 0.181201 12.0181 -0.600301 12.3747 0.738999C12.4699 1.1019 12.2035 1.6017 11.7908 1.6582L11.7914 1.6611Z" fill="var(--fill-0, #E3DBC6)"/></svg>
<svg x="66.177" y="49.036" width="15.387" height="9.135" viewBox="0 0 15.3888 9.13818" preserveAspectRatio="none" overflow="visible"><path id="Vector" d="M1.9698 9.13478L2.7409 5.82368C2.8808 5.30568 1.9762 4.69298 1.9747 4.28548C1.9715 2.76588 1.7523 1.79058 0 0.404582C1.5838 -0.513518 3.0162 0.239883 3.9839 1.57238L5.5577 4.91688C6.7594 6.28028 9.6185 6.42998 11.1525 5.42228C11.7205 2.40418 13.5699 3.22018 15.3835 1.19148C15.4727 2.14628 14.4176 3.22588 13.4824 3.37758C12.0868 3.60368 12.2796 4.46998 11.7577 5.33558C11.1672 6.31598 9.1274 6.85208 8.1287 6.60178L5.3093 5.89598L3.3398 1.48348C3.195 1.15978 2.7165 0.961881 2.4991 0.939681C2.2119 0.912681 1.7989 1.23908 1.9092 1.49128L2.2241 2.20868L3.2038 5.82668L2.7084 8.19248C2.5575 8.90748 2.1892 8.92868 1.9674 9.13818L1.9698 9.13478Z" fill="var(--fill-0, #E3DBC6)"/></svg>
<svg x="60.778" y="56.205" width="3.968" height="2.634" viewBox="0 0 3.9686 2.63437" preserveAspectRatio="none" overflow="visible"><path id="Vector" d="M0 0.627003C0.5198 0.565403 0.941303 0.4442 1.4703 0C1.4832 0.6123 1.5464 1.0922 1.7655 1.5398C2.1434 2.3053 3.4852 1.7925 3.9686 2.5443C3.3853 2.6358 2.2762 2.7721 1.7618 2.2871L0.000499725 0.629902L0 0.627003Z" fill="var(--fill-0, #E3DBC6)"/></svg>
<svg x="58.807" y="51.481" width="1.608" height="4.914" viewBox="0 0 1.61008 4.9113" preserveAspectRatio="none" overflow="visible"><path id="Vector" d="M1.61005 4.9113C0.790446 4.8314 0.201945 4.2553 0.0630449 3.2919C-0.120455 2.043 0.0686443 0.7002 1.00294 0C1.04144 1.2761 -0.0368548 2.744 0.680545 3.6706C1.00595 4.0923 1.61495 4.3137 1.61005 4.9113Z" fill="var(--fill-0, #E3DBC6)"/></svg>
<svg x="73.062" y="21.662" width="3.049" height="3.416" viewBox="0 0 3.04732 3.41914" preserveAspectRatio="none" overflow="visible"><path id="Vector" d="M0.029113 3.41914C-0.159587 2.36614 0.589717 1.64074 1.67702 0.875842C2.06972 0.601242 2.50242 -0.211657 3.04732 0.0518428C2.75192 1.03674 1.86041 1.45304 0.870315 1.98384L0.029113 3.41914Z" fill="var(--fill-0, #E3DBC6)"/></svg>
<svg x="62.854" y="21.916" width="1.653" height="1.498" viewBox="0 0 1.65322 1.4947" preserveAspectRatio="none" overflow="visible"><path id="Vector" d="M0 1.4947C0.1112 0.616299 0.785203 0.2409 1.6526 0C1.6799 0.9124 0.7923 1.238 0 1.4947Z" fill="var(--fill-0, #E3DBC6)"/></svg>
<svg x="81.723" y="37.385" width="1.617" height="1.225" viewBox="0 0 1.6149 1.22061" preserveAspectRatio="none" overflow="visible"><path id="Vector" d="M0.0266061 1.1978C-0.0846939 0.732904 0.173305 0.3966 0.427805 0.2649C0.859805 0.0398002 1.2432 0.0668 1.6149 0C1.2057 0.4906 0.735106 1.3736 0.0266061 1.1978Z" fill="var(--fill-0, #E3DBC6)"/></svg>
<svg x="80.892" y="43.057" width="0.636" height="1.439" viewBox="0 0 0.640627 1.4376" preserveAspectRatio="none" overflow="visible"><path id="Vector" d="M0.425676 1.4376C0.128276 1.3406 0.0325719 1.0707 0.0073719 0.856499C-0.0434281 0.410299 0.172972 0.1238 0.512972 0C0.589472 0.4714 0.798276 1.0558 0.425676 1.4376Z" fill="var(--fill-0, #E3DBC6)"/></svg>
<svg x="76.96" y="21.188" width="0.954" height="0.687" viewBox="0 0 0.949936 0.681859" preserveAspectRatio="none" overflow="visible"><path id="Vector" d="M0.00289917 0.421652C0.0758992 0.266952 0.178001 0.058951 0.385101 0.011051C0.663701 -0.056249 0.793597 0.204151 0.942497 0.245151C1.0001 0.600151 0.708702 0.582952 0.566902 0.627552C0.298502 0.716952 0.078 0.725351 0 0.422151L0.00289917 0.421652Z" fill="var(--fill-0, #E3DBC6)"/></svg>
<svg x="65.373" y="58.645" width="1.202" height="0.556" viewBox="0 0 1.20619 0.556216" preserveAspectRatio="none" overflow="visible"><path id="Vector" d="M0.00619562 0.00289917L1.20619 0.158302C1.02859 0.251702 0.780292 0.496198 0.566292 0.539398C0.135792 0.629198 -0.0344079 0.3464 0.00569208 0L0.00619562 0.00289917Z" fill="var(--fill-0, #E3DBC6)"/></svg>
<svg x="52.93" y="46.218" width="5.329" height="2.759" viewBox="0 0 5.3287 2.7617" preserveAspectRatio="none" overflow="visible"><path id="Vector" d="M0.000499725 2.7617C1.0908 1.3576 2.5541 0.3572 4.3123 0C4.6798 0.0869 5.1605 0.728197 5.3287 1.3203L0 2.7588L0.000499725 2.7617Z" fill="var(--fill-0, #E3DBC6)"/></svg>
<svg x="54.299" y="41.885" width="3.517" height="2.777" viewBox="0 0 3.5133 2.7767" preserveAspectRatio="none" overflow="visible"><path id="Vector" d="M0 2.7767C0.3459 1.9651 0.429399 1.0349 0.950199 0.499298C1.5601 0.0219981 2.5964 0.0732 3.5133 0C2.4729 1.0619 1.4565 1.9964 0 2.7767Z" fill="var(--fill-0, #E3DBC6)"/></svg>
<svg x="68.139" y="44.643" width="1.105" height="2.096" viewBox="0 0 1.09784 2.09261" preserveAspectRatio="none" overflow="visible"><path id="Vector" d="M1.09681 0.816105C0.733415 1.1512 0.735515 1.89741 0.111715 2.09261C0.00991521 1.55101 -0.147481 0.489104 0.302519 0.0718037C0.632619 -0.233096 1.12991 0.513105 1.09621 0.813205L1.09681 0.816105Z" fill="var(--fill-0, #E3DBC6)"/></svg>
<svg x="1.997" y="27.961" width="17.711" height="16.28" viewBox="0 0 17.7064 16.2779" preserveAspectRatio="none" overflow="visible"><path id="Vector" d="M17.1645 0.666978C17.2969 0.919878 17.8262 1.15738 17.6816 1.81428L15.7672 10.4588C15.5733 11.3315 15.4779 13.0062 14.49 13.4102C10.7074 14.9583 6.6756 15.3408 2.66531 16.0686C1.57887 16.266 0.84945 16.5713 0 15.6307C0.20621 13.6322 1.29572 11.7972 1.79432 9.77098C2.61915 6.42178 4.26573 3.67088 7.68202 2.57598L10.609 0.673181C12.591 -0.615919 14.967 0.272278 17.1645 0.666978Z" fill="var(--fill-0, #E5BA16)"/></svg>
<svg x="0" y="25.214" width="19.169" height="18.376" viewBox="0 0 19.165 18.3755" preserveAspectRatio="none" overflow="visible"><path id="Vector" d="M19.165 3.41179C16.9675 3.01709 14.5915 2.13199 12.6095 3.41799L9.68254 5.32079C6.26626 6.41569 4.61967 9.16349 3.79484 12.5158C3.29625 14.542 2.20673 16.377 2.00053 18.3755C1.62196 17.956 1.29265 17.4132 1.02181 16.7224L0 14.101C0.504748 9.60449 1.94513 4.80269 5.92155 2.82279C8.35604 1.60769 10.9444 0.596087 13.5759 0.0841874C15.0501 -0.199613 15.918 0.250685 16.8598 1.18519C17.6569 1.97469 18.6295 2.38489 19.165 3.41179Z" fill="var(--fill-0, #B4811B)"/></svg>
<svg x="17.172" y="33.91" width="21.405" height="14.605" viewBox="0 0 21.4067 14.6086" preserveAspectRatio="none" overflow="visible"><path id="Vector" d="M0.113199 11.0325C0.220999 11.0079 0.386099 10.9248 0.427299 10.8165C1.1786 8.86505 2.6553 7.30835 3.8652 5.47295L7.108 0.557453C8.0491 -0.259847 10.4823 -0.0800472 11.4814 0.466553L16.1971 3.04685L20.9806 6.35505C21.3737 6.62815 21.4519 7.05165 21.3857 7.40565C20.1491 7.84205 18.7485 8.24925 17.6078 9.14985L15.7464 11.7947C14.409 13.695 8.9704 15.2657 6.897 14.3309L2.719 12.4434L0 11.6689L0.1138 11.0295L0.113199 11.0325Z" fill="var(--fill-0, #E5BA16)"/></svg>
<svg x="17.154" y="41.316" width="21.829" height="8.904" viewBox="0 0 21.8261 8.90408" preserveAspectRatio="none" overflow="visible"><path id="Vector" d="M0.013482 4.2632L2.73248 5.0377L6.91048 6.9252C8.98338 7.863 14.422 6.2923 15.7599 4.389L17.6213 1.7442C18.759 0.843098 20.1596 0.4358 21.3993 0C22.4538 0.3408 21.4056 1.9892 19.875 3.4613C18.1477 5.1234 16.566 7.0239 14.3688 8.1053C9.50098 10.4997 -0.452617 7.0062 0.0159826 4.2667L0.013482 4.2632Z" fill="var(--fill-0, #B4811B)"/></svg>
<svg x="17.278" y="44.72" width="0.318" height="0.219" viewBox="0 0 0.3141 0.216287" preserveAspectRatio="none" overflow="visible"><path id="Vector" d="M0.3141 0.000187842C0.2734 0.105488 0.1077 0.191687 0 0.216287C0.0237 0.0829866 0.199 -0.00461216 0.3141 0.000187842Z" fill="var(--fill-0, #B4811B)"/></svg>
</svg>
