<?xml version="1.0" encoding="UTF-8"?>
<svg id="_圖層_1" xmlns="http://www.w3.org/2000/svg" version="1.1" viewBox="0 0 635.4 488.3">
  <!-- Generator: Adobe Illustrator 30.3.0, SVG Export Plug-In . SVG Version: 2.1.3 Build 182)  -->
  <defs>
    <style>
      .st0 {
        fill: #bf5730;
      }

      .st1 {
        fill: #f3a839;
      }

      .st2 {
        fill: none;
        stroke: #fcf8e2;
        stroke-linecap: round;
        stroke-linejoin: round;
        stroke-width: 7px;
      }

      .st3 {
        fill: #15120f;
      }

      .st4 {
        fill: #f3cfa8;
      }

      .st5 {
        fill: #fcf9f0;
      }

      .st6 {
        fill: #8dc556;
      }

      .st7 {
        fill: #9e4827;
      }
    </style>
  </defs>
  <path class="st5" d="M177.9,469.6l.5,1.2-.5.5-.5-.5.5-1.2Z"/>
  <g>
    <g>
      <path class="st2" d="M324,400.4c-1.4-3.4-1-7.9-3.4-11.3-2.1-2.9-6.2-2.5-10.2-3.9l10.4-3.4,3.1-12.6c1.4,4.6.5,9.6,3.8,12.9l8.9,3.1c-3.3,1.3-7.1,1.1-9.1,3.6-2.6,3.1-1.9,7.2-3.6,11.7h.1Z"/>
      <path class="st2" d="M539.7,41.3l13,8.9,3.3-21.1,4.2,21.1,15.1-8.6-10.5,12.9,19,3.1c-6.1,2.3-11.4,2-18,3.1,0,1.3.2,3.1,1,4.3l5,8.2h0c1.2.5.4,2.1-.8,1.1l-.7-.8c-3.3-2.1-5.7-5.4-10.9-6.5l-3.6,21.9-3.2-22.8-14.9,7.6,9.6-12.8-19.8-3.3,19.7-3.4-8.2-11.9c-.2-.3-.5-.6-.8-.6-.8-.9.5-1.5.9-.7,0,0,0,.2.2.3h.3Z"/>
      <path class="st2" d="M597.1,247.4c-1.5,11.2-12.9,20.5-23.1,27.2-22.7,14.9-46,27.3-70.4,39.5-21.4,10.7-42.2,20.5-64.9,28-26.5,8.7-59.3,16-80.2-3.5-5.8-5.4-10.4-11.4-11.3-19l5.1-.7c3.3,4.7,8.8,7.1,14.2,9,.3,2.1,2.9,4.8,5.1,5.5,4.6,1.5,8.9.3,12.3-1.9,8.6.4,17.2.2,25.6-1.9,4.9,4,10.5,6.4,17.4,4.5,5.3-1.5,9.6-6.6,12.2-12.2l9.7-2.7c5.1.3,9.8-.6,12.4-5.7l12.4-5.4c8.2,4.3,17.9,6.3,26.7,1.6,7.4-4,6.6-15.6,9.7-20.1,4.9-3.3,10.4-5,15.6-7.8l-.4-1.1c3.1,0,6.7.4,10,1,8.6,1.4,14.2-3.2,16.1-11l11-5.4c3,1.6,7.1,1.7,10,.5,0,.4,0,1.1-.2,1.4-.3.4-.9.7-1.8.7l-7-.3c-4.6-.2-6.8,2.9-7.2,7-.2,2.3-3.5,2.2-4.8,3.1-2.9,1.8-4.8,5.7-8.2,5.8l-16.7.4c-3.6,0-5.7,4.8-8.6,6.2-5.2,2.6-8.6,5.1-9.1,11.5-.1,1.4-2.6,3.9-1.3,6.4,6.3-1,11.4-5,17-8l24.1-12.9c4.8-2.5,8.2-5.4,12.3-8.5,1.8-1.4,4.8-1.4,5.8-4.5l7.3-2.5,10.2-8.1c0-1.4-2-3.1-2.4-5.4,6.3,0,11.6-2.3,11.8-8.4l-9.5.6c-1.2,6.4-8.4,15.7-11.1,15.6,3-3,3.7-6.9,4.3-11l7.6-6.2c2.9-2.4,8.5-.1,12.2-1.1h0v-.2Z"/>
      <path class="st2" d="M339.4,281.8c0,.4.4.8,1.4.8-.9.6,0,1.6.3,2.1,2.9,6.5,10.3,9.8,17.1,10.1h.7c6.9,6.5,14.1,13.3,23.6,16.6,18.5,6.4,38.1,7.3,57.7,5.5,0,1.7-.6,3.4-1.2,4.7-2.6,5.7-6.8,10.8-12.1,12.2-6.9,1.9-12.5-.6-17.4-4.5-5.4-4.4-8.7-9-15.8-4.4l-9.8,6.3c-3.4,2.2-7.7,3.4-12.3,1.9-2.2-.7-4.8-3.4-5.1-5.5-.4-3.2-.6-7.3-4.1-9.1-3.3-1.6-7-.3-10,.1l-5.1.7c-5.5.7-15.2-2.4-15.2-9.3s8.9-9.1,8.3-11.9c-.5-2.2-8.3-4.2-9.1-8.6-.9-4.9,4.2-7.7,8.2-7.8h-.1Z"/>
      <path class="st2" d="M592.2,201.6c5.3-.6,13.3,0,16.1,5.8,3.7,7.5-9.1,13.5-9.5,15.8-.5,3.8,11,9.7,6.2,18.4-1.6,2.8-5.2,5-8,5.7-3.8,1-9.3-1.3-12.2,1.1-.7,0-1.5.4-2.7-.2l5.8-3.8c2.4-1.6,3.8-4.3,3.6-7.1,0-2.3-1.6-4.8-3.4-6.6l-13.1-13.2c-2.3-2.5,5.6-5.6,13.4-14.5,1.1-1.2,2.3-1.2,3.6-1.4h.2Z"/>
      <path class="st2" d="M512.9,284.8c-1.4,1.5-2,3.3-3,4.7-3.1,4.5-2.3,16.1-9.7,20.1-8.8,4.7-18.5,2.7-26.7-1.6-1.4-.8-4.1-1.7-6.1-1.1-3.1,1-5.1,4.2-6.3,6.5-2.6,5.1-7.3,5.9-12.4,5.6-1.4-.4-3.1-.6-4-2.9,6.4-2,12.7-3.9,17.6-8.3,5.3-4.8,5.5-12.5.9-17.1l-2.2-7.1c17.2,2.5,34.5,2.7,51.9,1.1h0Z"/>
      <path class="st2" d="M463.3,290.8c4.6,4.7,4.4,12.4-1,17.1-4.9,4.4-11.2,6.4-17.6,8.3.9,2.3,2.6,2.5,4,2.9l-9.7,2.7c.6-1.4,1.2-3,1.2-4.7-19.7,1.7-39.2.9-57.7-5.5-9.5-3.3-16.8-10.1-23.6-16.6l1.4-.2c.7,1.4,2.7,1,4,1.2,17.4,16.4,49.3,19.8,73.6,17.5,11.4-1.1,26.2-7.8,23.9-15.6-1.6-5.2-9.8-6.3-15.3-3.9l-21.6,9.3c-15.1,6.5-31.7,3.6-42.4-8.2l8.9-.7c6.4,6,16.4,9.8,25.4,7.7l25.5-10.4c7.2-2.9,14.4-4.3,21.2-.9h-.2Z"/>
      <path class="st2" d="M577.2,254.7c-.6,4.1-1.2,8.1-4.3,11h-.6c-2.9,1.1-6.9,1-10-.5-2.1-1.1-5.2-4.5-8.5-1.7-1.7,1.5-2.1,5.2-2.6,7.1-1.9,7.8-7.6,12.4-16.1,11-3.3-.5-6.9-1-10-1,3.5-2.4,7.8-4.2,8-8.7,0-1.9-.2-3.8-1.4-5.8l-3.2-5.3-1.6-3.2c2.8-1.1,5.8-1.1,9.2-1,14,.2,27.6-1.7,40.9-5.8.3,1.5.2,2.7,0,3.8h.2Z"/>
      <path class="st2" d="M572.3,265.7h.6c2.7.2,9.9-9.1,11.1-15.5l9.5-.6c-.2,6.1-5.4,8.5-11.8,8.4.4,2.2,2.5,4,2.4,5.4l-10.2,8.1-7.3,2.5c-.9,3.2-4,3.2-5.8,4.5-4.1,3.1-7.6,6-12.3,8.5l-24.1,12.9c-5.6,3-10.7,7-17,8-1.3-2.6,1.2-5,1.3-6.4.5-6.4,3.9-8.9,9.1-11.5,2.9-1.4,5-6.1,8.6-6.2l16.7-.4c3.5,0,5.3-4,8.2-5.8,1.3-.8,4.6-.8,4.8-3.1.4-4.1,2.6-7.1,7.2-7l7,.3c.9,0,1.5-.3,1.8-.7.2-.3.3-1,.2-1.4h0Z"/>
      <path class="st2" d="M588.2,230.7c1.8,1.8,3.2,4.2,3.4,6.5.2,2.8-1.2,5.5-3.6,7.1l-5.8,3.8c1.1.6,2,.2,2.7.2l-7.6,6.2c0-1.1.2-2.4,0-3.8-13.3,4.1-26.8,6-40.9,5.8-3.4,0-6.4,0-9.2,1l-1.7-2.2c3.4.7,6.6-.3,10.2-.4,15.3-.8,42-4.5,51.3-13.7,2.1-2,2.4-5,.7-7.3-3.1-4.1-10.7-1.7-16.3,2.6-16.7,12.9-33.3,18.5-52.8,9.8,1.1-.2,2.5-2.3,3.7-2.9l7.2,2.1c8.1,2.2,17.6,2.6,25.8-1.2l17-11c5.3-3.5,10.4-4.7,16.2-2.8h0l-.3.2Z"/>
      <path class="st2" d="M533.2,272c-.2,4.4-4.6,6.2-8,8.6l.4,1.1c-4.6-.2-8.9,1.1-12.6,3-17.4,1.5-34.7,1.3-51.9-1.1-1.3-.2-1.7-1.7-2.7-2.1,5.1,1.5,10.3,1,16,.9,14-.3,27.7,0,41.4-2.4,6-1.1,10.8-3.1,14.4-7.4.7-.8,2.2-1,3.1-.7h-.1Z"/>
      <path class="st2" d="M409.5,329.5c-8.5,2.2-17.1,2.3-25.6,1.9l9.8-6.3c7.1-4.6,10.4,0,15.8,4.4h0Z"/>
      <path class="st2" d="M366.4,327.8c-5.4-1.9-10.9-4.2-14.2-8.9,3.1-.4,6.7-1.8,10-.1,3.6,1.8,3.7,5.9,4.1,9.1h.1Z"/>
      <path class="st2" d="M562.3,265.2l-11,5.4c.5-1.9.9-5.6,2.6-7.1,3.3-2.9,6.3.6,8.5,1.7h0Z"/>
      <path class="st2" d="M473.5,308l-12.4,5.4c1.2-2.3,3.2-5.6,6.3-6.5,2-.6,4.6.4,6.1,1.1h0Z"/>
      <path class="st2" d="M525.5,281.8c-5.2,2.7-10.7,4.4-15.6,7.8,1-1.4,1.6-3.3,3-4.7,3.8-1.9,8-3.2,12.6-3h0Z"/>
      <path class="st2" d="M575.2,217.5l13,13.2c-5.8-1.9-10.9-.7-16.2,2.8l-17,11c-8.2,3.8-17.7,3.4-25.8,1.2.5-2.6,2.6-4.6,5.2-5.9l28.1-14.8,12.6-7.5h.1Z"/>
      <path class="st2" d="M449.4,277.6l8.9,4c1,.4,1.5,1.9,2.7,2.1l2.2,7.1c-6.8-3.4-14-2.1-21.2.9l-25.5,10.4c-9,2.1-19-1.7-25.4-7.7,14.7-3,29.1-6.9,43.7-11.9l14.4-4.9h.2Z"/>
      <path class="st2" d="M364.2,295.9l.2-1c5.9,1.3,12,.5,18,.1,10.7,11.8,27.3,14.8,42.4,8.2l21.6-9.4c5.5-2.4,13.8-1.3,15.3,3.9,2.3,7.8-12.4,14.4-23.9,15.6-24.4,2.4-56.2-1-73.6-17.5h0Z"/>
      <path class="st2" d="M510.2,250.3c2.5,4,9.4,4,15.1,5.2l1.7,2.2,1.6,3.2c-8.4-1.1-15.9.1-23.4,4.8-14.6,9.2-21.4,10.3-38,5.3.3-1.1.9-1.8,2-2.3l27.6-12.3,13.4-6.1h0Z"/>
      <path class="st2" d="M528.6,260.9l3.2,5.3c1.2,2,1.5,3.9,1.4,5.8-.9-.3-2.5,0-3.1.7.5-2.2.5-4.9-1.4-6.9-1.1-1.2-3.5-2.4-5.9-2.7-12.3-1.4-24.5,11.9-40.8,14.2-7.8,1.1-15-1.9-22-3.6,1.7-2.1,4.6-3.5,7.1-2.7,16.7,5,23.4,3.9,38-5.3,7.5-4.7,15-5.9,23.4-4.9h0Z"/>
      <path class="st2" d="M525.3,255.5c-5.7-1.2-12.6-1.2-15.1-5.2l8.2-3.8c19.5,8.7,36.1,3.1,52.8-9.8,5.6-4.3,13.3-6.7,16.3-2.6,1.7,2.2,1.3,5.2-.7,7.3-9.4,9.2-36,13-51.3,13.7-3.6.2-6.8,1.2-10.2.4h0Z"/>
      <path class="st2" d="M530.1,272.7c-3.6,4.3-8.5,6.4-14.4,7.4-13.7,2.4-27.3,2.1-41.4,2.4-5.7.1-10.9.6-16-.9l-8.9-4c3.3-1.1,7.1-4.7,10.7-3.8,7,1.7,14.2,4.7,22,3.6,16.3-2.3,28.4-15.6,40.8-14.2,2.4.3,4.8,1.5,5.9,2.7,1.9,2,1.9,4.7,1.4,6.9h-.1Z"/>
      <path class="st2" d="M592.2,201.6c-1.3.2-2.6.1-3.6,1.4-7.8,8.9-15.8,11.9-13.4,14.5l-12.6,7.5-28.1,14.8c-2.6,1.4-4.8,3.3-5.2,5.9l-7.2-2.1,19.1-10c13.7-7.2,26.5-14.6,38.9-24,6.8-5.1,11.7-11.8,12.5-20.8-4.4-4.1-8.1-10.1-13.4-12.9-12.6-6.6-27.1-5.7-40.9-4.5-8.8.8-21.9.8-24.3,7.4,6.1-.9,11.9-2.2,17.5-.4l15,5c1.4.5,2,1.2,1.7,2.3l-7.5-2.5c-17.8-6-27.4-2.7-43.7,2.5-2.5-1.5,3.7-.8,8.9-5.3-2.6-1.9-4.9-.7-7.6.3l-16,6-23.9,9.1c-1.4.5-2.6,1.2-3,2.6-.4,1.2,1.3,3,3,3.1l13.7.4,10.2.9c4.6.4,16.3,5.7,17.1,9.1-24.7-11.9-44.4-12.2-68.8.5,14.3,2.4,26.9,5.1,40.1,8.7,11.3,3.1,22.6,3.4,34,.4-3.1,4.7-16,4.9-24.5,3.1l-24.2-5.2c-6.1-1.3-12.4-4.1-18.8-3.5-4.5.5-7.2-2.3-9.1-5.3-7.8,1-15.9,4.7-22.8,8l-8.2,4c-15.2,7.3-31.4,17-42.7,29.3-9.2,8.1-13.4,19.1-13.8,30.7-1,0-1.3-.4-1.4-.8-2.3-31.9,43.6-54.7,70.5-67.6,21.9-10.4,44.4-19.9,67.4-28.5l18.3-6.8c21.3-7.9,43.2-12.9,66.2-10.8,21,1.9,38.7,18.3,32.3,28.4-1.2,1.8-2.2,3.2-1.9,5.1h.2Z"/>
      <path class="st2" d="M522.1,243.6c-1.2.6-2.5,2.7-3.7,2.9l-8.2,3.8-13.4,6.1-27.6,12.3c-1.1.5-1.7,1.2-2,2.3-2.5-.8-5.4.6-7.1,2.7-3.6-.9-7.5,2.7-10.7,3.8l-14.4,4.9c-14.6,4.9-29,8.8-43.7,11.9l-8.8.7c-6,.4-12.1,1.2-18-.1l-2.6-1.1c-.5-.2-1.2.4-1.5,1l-1.4.2h-.7c-2.4-4.4-12-1.6-17.1-10.1-.2-.5-1.2-1.5-.3-2.1.5-11.6,4.6-22.6,13.8-30.7,11.4-12.4,27.5-22,42.7-29.3l8.2-3.9c6.9-3.3,15-7,22.8-8.1,1.9,3,4.6,5.7,9.1,5.3,6.5-.6,12.7,2.2,18.8,3.5l24.2,5.2c8.4,1.8,21.4,1.6,24.5-3.1l3.2-.9c.3,0,.8.8,1.1.9.5.1,1.2-.6,1.1-1.8,0-.4,1.2-.7,1.5-1.1.3-.5,0-1.2-.4-1.8-2.1-2.4-5.6-4.6-9-4.6s-1.8.2-2.8-.3c-.8-3.4-12.5-8.6-17.1-9.1l-10.2-.9-13.7-.4c-1.7,0-3.4-1.9-3-3.1.4-1.3,1.6-2,3-2.6l23.9-9.1,16-6c2.7-1,5-2.2,7.6-.3-5.2,4.5-11.5,3.8-8.9,5.3,0,.3.2.7.2,1-.1.8.3,1.8.8,1.8h2.1c0,.1,18.8,3.7,18.8,3.7l14.9,3.2c1.5.3,2.7.5,3.5-.8h2c0,.4-.2,1.2,0,1.5.2.4,1,.6,1.9.6h8.2c.8,0,1.6-.3,1.8-.6s.3-1,.2-1.4h2c1.9,1.8,5.6,1.4,7.1-.8.4-.6.8-1.1.8-1.9,0-1.3-9.5-6.1-12.1-6.2h-.9c.2-1.1-.3-1.8-1.7-2.3l-15-5c-5.6-1.8-11.3-.6-17.5.4,2.4-6.6,15.5-6.7,24.3-7.5,13.8-1.2,28.3-2.1,40.9,4.5,5.3,2.8,9,8.8,13.4,12.9-.8,9-5.7,15.7-12.5,20.8-12.4,9.4-25.2,16.8-38.9,24l-19.1,10h0l-.4-.2ZM431.8,252.3c8.2,1.1,15.6-1.2,22.8-5.1-29.4-16.8-54.7-23.2-83.4-2.8l29.7,3.6,30.9,4.2h0Z"/>
      <path class="st2" d="M358.2,294.9c-6.8-.3-14.2-3.6-17.1-10.1,5.1,8.5,14.8,5.8,17.1,10.1Z"/>
      <path class="st2" d="M499.5,211.9c1.1.5,1.8.3,2.8.3,2,2.7,5.7,3.6,9,4.6.5.6.8,1.3.5,1.8-.2.4-1.5.7-1.5,1.1-.8-.2-1.6.1-2.3.9l-3.2.8c-11.3,3-22.7,2.7-34-.4-13.2-3.6-25.8-6.3-40.1-8.7,24.3-12.8,44-12.4,68.8-.5h0Z"/>
      <path class="st2" d="M548.2,185.8h.9l12.1,6.2c0,.9-.4,1.3-.8,1.9-2.4-.5-4.7.8-7.1.8h-16.1l-9.1-1.8c-10.6-2-20.7-4.8-31-6.1,0-.3,0-.8-.2-1,16.3-5.2,25.9-8.5,43.7-2.5l7.5,2.5h0Z"/>
      <path class="st2" d="M364.4,294.9l-.2,1c-1.2-.1-3.2.2-4-1.2.3-.5,1.1-1.2,1.5-1l2.6,1.2h.1Z"/>
      <path class="st2" d="M431.8,252.3l-30.9-4.2-29.7-3.6c28.7-20.4,54-14,83.4,2.8-7.2,3.9-14.6,6.2-22.8,5.1h0Z"/>
      <path class="st2" d="M537.3,194.6c-.9,1.2-2,1.1-3.5.8l-14.9-3.2-18.8-3.5h-2.1c-.5-.2-.9-1.2-.8-1.9,10.3,1.3,20.3,4.1,31,6.1l9.1,1.8h0Z"/>
      <path class="st2" d="M551.4,194.8c0,.4,0,1.1-.2,1.4-.3.3-1,.6-1.8.6h-8.2c-.8,0-1.6-.3-1.8-.6s-.2-1.1,0-1.5h12.1,0Z"/>
      <path class="st2" d="M511.3,216.9c-3.2-1.1-7-1.9-9-4.6,3.4,0,6.9,2.2,9,4.6Z"/>
      <path class="st2" d="M560.4,193.9c-1.5,2.3-5.1,2.6-7.1.8,2.3,0,4.6-1.3,7.1-.8Z"/>
      <path class="st2" d="M510.3,219.8c.1,1.1-.6,1.9-1.1,1.8-.3,0-.8-.9-1.1-.9.7-.8,1.4-1.1,2.3-.9h0Z"/>
      <path class="st2" d="M561.2,192l-12.1-6.2c2.6,0,12,4.9,12.1,6.2Z"/>
      <path class="st2" d="M444.4,129.6c.3,1.2-.2,2.3-1.6,2.2-.9,0-1.8-.3-2.5-1.1.9-1.5,2.8-.8,4.1-1.1h0Z"/>
      <path class="st2" d="M350.2,113.8c-1,0-2.1.2-3.3-.2-.7-.2-.8-1.1-.8-1.9,1.7,0,3.4.6,4.1,2.1h0Z"/>
      <path class="st2" d="M499.8,67.2c-18-22.3-54.7-30.6-83.5-30.4-18.5.2-36,2.9-52.9,10-22.2,9.2-40.7,24.9-36.5,50.1.2.9-.9,3.3-1.7,3.4-10.9-3.4-25.4.3-31.9,9.5-.3,0-.8.8-1,1-7.9,5.8-8.9,23-3.1,35.4,4.6,9.8,12.8,17,22.2,22.8,12,7.4,26.3,9.4,40.2,11.7,3.7,1.2,5.4,6.1,7.8,8.1.4,1,1,1.6,2,1.8.6,2.5,3.4,3.8,5,5.4l1.9,1.8c3.3,3.3,7.5,5.5,11.9,8.3,8.8,5.7,19.4,6.7,29.8,8.2,21.9-10.4,44.4-19.9,67.4-28.5.4-1.5,1.2-2.9,2.2-4l.9-.9c4.3-4.6,7.6-10.2,10.1-16.1.4-.3.7-.7.9-1.1,11.2-22.4,15.8-46.2,16.4-71.9.2-9.1-2.3-17.5-8-24.6h0ZM318.8,153.5c-7.8-5-13.9-12.7-16.6-21.6-.6-2-1-4.3-.1-6.2.6-1.3,1.7-2.2,2.9-3.1,3.2-2.5,6.6-4.7,10.4-5.9,3.2-1,9.8-1.8,12.4,1.2,1.3,1.5,16.7,32.2,17.6,42.5-9.3.4-18.7-1.9-26.5-6.9h0ZM492.4,103.9c-17.2,21-59.6,28.8-86.1,26.2-18.9-1.8-37.2-5.9-53.1-16.2-11.9-7.7-20.7-20.1-15-32.5,3.7-8,10.5-14.2,18.2-17.6,0-.4.5-.9.9-1l9.5-4.7c33.1-11.4,69.4-11.7,102.1.9,10.4,4,19.1,10,25.3,18.7,6,8.3,4.5,18.5-1.8,26.2Z"/>
      <path class="st2" d="M356.3,63.8c-4,3.1-7.8,6.6-11.3,10.3-1.2,1.3-3.2,2.9-3.8,4.4-.3.8-1.6,2.2-.9,3.1-.9.4-1.1,1.2-1.1,2.1v2c-2.4,3.9.4,14.1,3.9,18.1.8.9,2.1,1.6,3.1,2.2,3.1,3.4,7.8,7.6,11.2,7.7.1,1.8,1.7,1.9,3.3,2.7l5.4,2.6c.5.3,1.7.5,2.1.9.9.6,1.9.7,2.9,1.1l2.2.9h3.8c0,.5,0,1.1.3,1.4.5.6,1.2.6,1.9.6h4.7c0,1.3.7,1.8,2.2,2l8.1,1c.8,0,2.3-.3,3,0,2.8,1.6,6.1,1.2,9.5,1.4l17.6.6c1.8,0,2.8-.5,3.3-1.7l1.6.5c2.7.9,5.5-.2,8.1-.6l8.9-1.4,2.1-.5,2.8-.5,1.4-.2c.6,0,.9-.9.8-1.6,2.4.5,4.5-.4,6.8-1.1,1.9-.6,4.7-.5,5.1-2.8,1.8,0,3.4-.2,5-1.1l1.9-1.1,2-.9c4.1-1.8,8.2-4.7,11.2-8.2,5.6-.9,7.1-6.6,9-10.8,3.5-7.8,1-15.8-4.4-22.3-1.8-2.2-3.2-4-5.9-5.2-1.6-.8-6.1-5-13.2-7.6l-6.8-2.4c-2.2-.8-5.2-2.3-7.3-1.7-.5-1.6-1.5-1.6-2.8-1.8l-16.9-2.9c-10.7-1.8-21.6-1.3-32.9-1-1,0-1.5,1.2-1.3,1.7-13.7-1.9-29,3.4-42.5,9.4-1.3.6-2.8.7-3.4-.3l9.5-4.7c33.1-11.4,69.4-11.7,102.1,1,10.4,4,19.1,10,25.3,18.7,6.2,8.7,4.5,18.5-1.8,26.2-17.2,21-59.6,28.8-86.1,26.2-18.9-1.8-37.2-5.9-53.1-16.2-11.9-7.7-20.7-20.2-15-32.5,3.7-8,10.5-14.2,18.2-17.6h0l.2-.2Z"/>
      <path class="st2" d="M403,53.6l11.6,1.6.7,10.5c0,.8.4,1.1,1.1.9v.9c-.7,1.8-2.4,2.3-4.7,2.3s-2.9-1.6-3.4-3.5v-.3c-.8-2-1.6-3.9-3.3-5.3l-1.8-1.4c-.9-.7-1.5.8-2,1.5-1.6,1.9,0,5.1,2.1,6,.6.3,1,1,1,1.5-.5,1.5-.5,3.3-2,5l-8.7-6.1c-1-.7-2-.3-2.4.4l-2.1.3-1.3.3c-2.2.4,1.1,6.9,6.8,9.4,2.6-.5,2.2,3-.2,2.3-3-1.5-5.5-2.3-9.3-2.2h-2.2c-.5,0-.9.9-.6,1.8.2.6.2,1.3.2,1.9,0,1.7.7,3.1,2.7,3.5l7.8,1.3c1.2.2.4,4-.8,4.1-6.4.5-10.6-3.4-14.7-7-.5-.5-1.6-.5-2.3-.4-1.9,4-1,8.5,1.3,13.6-5,.8-8.2-4.7-8.3-9.6l-.5-8.5c.4,0,.6-.4.4-.7.9-.2,2-.6,2.5-1.1.8-.8.5-2.2.6-3,.1-.9,1.2-2,1.7-2.7.2-.2,1.2,0,1.8-.2.4,0,.9-.8.5-1.5-.3-.6-.9-.6-1.5-.6-.9,0-1.4.2-1.6,1.4h-.7c-.7-.5-1.2.2-1.1.8-.2,0-.5,0-.7,0-.6,0-1.1.4-1.3.9-.2,0-.5,0-.7,0-3.9.3-13.6,9-13.1,14.4,1.8,20.7,7.1,21.5,22.9,27.2,3,1.1,5.7,2.8,9,3,10.2.4,22.7,6.3,22.8,6.9.8,4.8-6.3,1-12,3.5-.7-.4-2.2,0-3,0,.4-.8,0-1.8-.7-1.9l-2.3-.2c-2.8-.2-5-.8-7.3-.9h-4.7c.3-.8,0-1.8-.6-2s-1.2,0-1.5,0h-3.8v-1.6c-.1-.4-.7-.8-1.5-.6-.4,0-.8.4-.7,1.2-1-.4-2-.5-2.9-1.1,0-.5.1-1.1,0-1.6-.1-.4-.8-.8-1.4-.5-.3.2-.7.6-.7,1.2l-5.4-2.6c-1.6-.8-3.2-1-3.3-2.7,0-1.4-1.2-2.3-2.6-3.4l-6.9-5.2c-.7-.6-1.7,0-1.7.9-.9-.5-2.2-1.2-3.1-2.2,3.1-1.1-4.1-6.5-3.9-18.1v-2c.5.2,1.6.3,2-.5.3-.6-.6-1.1-.9-1.5-.7-1,.5-2.3.9-3.1-.2.6.2,1.5.9,1.4,2.6-1.5,3.3-3.6,3-5.8,3.6-3.7,7.4-7.2,11.3-10.3,0-.4.5-.9.9-1.1.6,1,2,.9,3.4.3,13.5-6,28.8-11.3,42.5-9.4h0l-.2.2Z"/>
      <path class="st2" d="M454.2,55.7c-.3.8.2,1.7.8,1.8.6,0,1.6,0,2,0,2.1-.6,5.2.9,7.3,1.7,0,1.5.8,2.6,2.4,3,10,2.8,15.1,9.8,17.6,7,2.7,1.2,4.1,3.1,5.9,5.2-.7,0-1.5.3-1.6.8,0,.3.2,1.3.4,1.8l4.1,6.9c5.5,9.1-2.1,9.1,1.5,12.9-1.9,4.2-3.5,9.9-9,10.8-2.4.4-3.9.8-6.4,3.2-1.5,1.4-5.1,2.1-4.8,5l-2,.9c0-.7-.3-1-.6-1.1-.6-.2-1.4.2-1.4.6v1.6c-1.5.9-3,1.1-4.9,1.1s-5.1.4-5.1,2.8c-2.3.7-4.4,1.6-6.8,1.1-.6,0-1.7,0-2.1.3-.3.3-.3,1.2-.2,1.5l-2.8.5c.1-.6,0-1.1-.6-1.5-.5-.3-1.3,0-1.5.5-.1.4-.1,1,0,1.5l-8.9,1.4c-4-2.4-9-1.7-8.1.6l-1.6-.5-5.9-.8c8.1-10.8,25.5-6.6,36-11.3l15.2-6.8c4.4-2,10-15.1,6.7-23.1-1-2.3-1.6-5.6-4.7-5.4.2-.4-.1-.8-.5-1,.7-3-4.3-6.3-8.1-6,1.8,10.5,5.5,19.8-5.3,25.1-1.1-2.4.3-4.7,0-6.8.1-.2.2-.4.2-.6,1.3-.5,1.7-1.7,2.1-2.6.9-2.2-.4-3.3-1.8-3.6-.5,0-1.4-.6-2.1,0-5.3,3.8-10.6,7.5-18.1,8.3l1.7-8.2c2.2.8,4.2.4,4.6-.9l.7.2h2.6c1.1,0,1.7-.8,1.6-2l.8-1.6c.2-.5-.3-1-.7-1.4,0-.3.1-1-.2-1.4-.5-.6-1.3-.4-2.2,0l-7.9,2.4c-1.2.4-1.9-.4-2.3-.8-3.9-2.8,6.6-3.2,7.4-9.3.1-.8-1-1.7-1.6-1.8l.5-1c.7-1.4-4.5-.8-7.8,5-.1,0-.2.3-.2.4-1.9,1-4.1,1.5-5.5.8-2.3-1.2-.8-3.6-.1-5.3l.8-1.9c.7,0,.8-.6,1-1.2l1.1-5.3h-1.8c-.7-.6-1.2,0-1.1.7l-.8,1c-.7-.3-1.9,0-2.2.5-.3.7,0,2.2.1,2.7v.7c-.6.3-1,.7-1.3,1.1v.3c-.4,2.2-1.3,3.6-3.4,3.6s-4.6-.6-4.7-3.3v-.9c2.4-2.2.4-10.3,4.5-10.5l12.4-.6c.4,0,.5-1.6.2-1.6l16.9,2.9h-.4Z"/>
      <path class="st2" d="M366.3,73.8c-4.9,2-8.4,7.5-9.4,12.3-3.6,16.7,15.5,26.4,33.8,29.2,9.9,1.5,19.2,2.6,27.4,8.9,15.4-11.8,35.6-3.5,53.8-18.6,8.3-6.9,9.4-17.9,2.9-25.8,3.1-.2,3.8,3.1,4.7,5.4,3.3,8.1-2.3,21.2-6.7,23.1l-15.2,6.8c-10.5,4.7-27.9.5-36,11.3l5.9.8c-.5,1.2-1.5,1.8-3.3,1.7l-17.6-.6c-3.4-.1-6.6.2-9.5-1.4,5.8-2.5,12.8,1.3,12-3.5-.1-.6-12.6-6.5-22.8-6.9-3.3,0-5.9-1.9-9-3-15.8-5.7-21.1-6.5-22.9-27.2-.5-5.5,9.2-14.1,13.1-14.4-.6.6-1,1.3-1.4,1.9h.2Z"/>
      <path class="st2" d="M485.5,107.6c-3,3.6-7.1,6.4-11.2,8.2-.3-2.9,3.4-3.6,4.8-5,2.5-2.5,4-2.8,6.4-3.2h0Z"/>
      <path class="st2" d="M394.3,126.7l-8.1-1c-1.5-.2-2.1-.7-2.2-1.9,2.3,0,4.5.7,7.3.9l2.3.2c.6,0,1,1.1.7,1.9h0Z"/>
      <path class="st2" d="M437.4,127c-2.6.4-5.4,1.5-8.1.6-.9-2.3,4.1-3,8.1-.6Z"/>
      <path class="st2" d="M465.4,118.9c-.5,2.4-3.2,2.3-5.1,2.8,0-2.4,3-2.9,5.1-2.8Z"/>
      <path class="st2" d="M448.4,125.2l-2.1.5v-1.5c.2-.5,1-.8,1.5-.5s.7.9.6,1.5h0Z"/>
      <path class="st2" d="M453.4,122.9c.1.7-.3,1.6-.8,1.6l-1.4.2c0-.3,0-1.2.2-1.5.4-.4,1.5-.5,2.1-.4h-.1Z"/>
      <path class="st2" d="M379.3,123.7c-.6,0-1.4,0-1.9-.6-.2-.3-.3-.9-.3-1.3.4,0,1-.2,1.6,0s.9,1.2.6,1.9h0Z"/>
      <path class="st2" d="M373.3,121.7l-2.2-.9c0-.7.3-1,.7-1.2.7-.3,1.3.2,1.4.6s.1,1,0,1.5h.1Z"/>
      <path class="st2" d="M368.2,119.8c-.5-.3-1.6-.6-2.1-.9,0-.6.4-1.1.7-1.2.6-.3,1.4,0,1.4.5.1.4,0,1,0,1.6Z"/>
      <path class="st2" d="M472.3,116.8l-2,1.1v-1.6c-.1-.4.8-.8,1.3-.6.3,0,.7.4.6,1.1h.1Z"/>
      <path class="st2" d="M357.4,113.6c-3.4,0-8.1-4.3-11.2-7.7,0-.9,1-1.5,1.7-.9l6.9,5.2c1.4,1,2.5,1.9,2.6,3.4h0Z"/>
      <path class="st2" d="M343.1,103.8c-3.4-3.9-6.3-14.2-3.9-18.1-.2,11.6,7,17,3.9,18.1Z"/>
      <path class="st2" d="M339.3,83.7c0-.8.2-1.7,1.1-2,.3.4,1.2.9.9,1.5-.4.8-1.4.7-2,.5h0Z"/>
      <path class="st2" d="M341.2,78.6c.7-1.6,2.6-3.1,3.8-4.4.4,2.3-.3,4.3-3,5.8-.6,0-1-.8-.9-1.4h.1Z"/>
      <path class="st2" d="M490.2,74.6c5.4,6.5,7.9,14.5,4.4,22.3-3.6-3.8,4-3.8-1.5-12.9l-4.1-6.9c-.2-.4-.5-1.4-.4-1.8.1-.5,1-.9,1.6-.8h0Z"/>
      <path class="st2" d="M366.3,73.8c.9.7,1.8.9,2.5,1,.2,1,0,2-.7,2.9.2.3,0,.8-.4.7-3.7,6.4-1.2,14.9,4.8,20.2,15.9,14.1,37.6,9.1,45.8,24,10.1-17.1,35.5-9.3,49-27.7,4.6-6.2,3.4-14.2-.4-21.3,3.7.6,4.9,3.9,7.4,5.3.3.2.7.5.5.9,6.5,7.9,5.4,18.9-2.9,25.8-18.3,15.1-38.5,6.8-53.8,18.6-8.2-6.4-17.5-7.4-27.4-8.9-18.4-2.7-37.4-12.4-33.8-29.2,1-4.8,4.5-10.3,9.4-12.3h0Z"/>
      <path class="st2" d="M377.5,83.2c.4,3.6,3.4,5.9,6.7,7.6,11.9,6.2,25.6,4.3,34,15.5,11.1-14.6,32.7-7.8,41.1-22,.7-.5,1.5,0,2.1,0l-.3,6.1c0,.2,0,.4-.2.6-2.2,3-4.3,7-8.1,9-12.1,6.2-24.8,4.8-34.4,14-9.7-10.6-24.9-7.5-35.8-15.7-5.4-4-8-9.6-7.4-15.8.6,0,1.8,0,2.3.4h0v.2Z"/>
      <path class="st2" d="M404.4,68.2c1.1.5,2.4.6,3.2.3s.9-1.6.7-2.2c.5,2,1.5,3.5,3.4,3.5s3.9-.6,4.8-2.3c1,0,2.6,0,3.5-1,0,2.7,2,3.4,4.7,3.3,2.1,0,3-1.4,3.4-3.6-.3,1.1,0,2.6,1.6,2.5.8,0,1.9-.6,2.6-1.2-.7,1.7-2.2,4.1.1,5.3,1.4.8,3.6.2,5.5-.8,0,.6.5,2.2,1.3,2.5,3-1.2,5.4-3.5,7.8-5.2-.8,6.1-11.3,6.5-7.4,9.3.5.3,1.1,1.2,2.3.8l7.9-2.4c.9-.3,1.7-.5,2.2,0,.3.4.1,1.1.2,1.4-3,0-7.6,0-9.5,2.9.2,1.8,3.5,2.4,4.6,1.9-.4,1.3-2.4,1.8-4.6.9l-1.7,8.2c7.5-.8,12.8-4.5,18.1-8.3-8.4,14.2-30,7.4-41.1,22-8.4-11.2-22.1-9.3-34-15.5-3.4-1.8-6.4-4.1-6.7-7.6,4.1,3.7,8.3,7.5,14.7,7,1.1,0,1.9-3.9.8-4.1l-7.8-1.3c-2-.3-2.7-1.8-2.7-3.5,4.3,2.6,9.9,4,10.6,1.7.7-2.6-4.6-3.6-10.8-3.6-.3-.8,0-1.7.6-1.7h2.2c3.7,0,6.3.7,9.3,2.2,2.4.7,2.8-2.9.2-2.3-5.6-2.5-9-9-6.8-9.4l1.3-.3c.4,5.2,9.1,9.6,9.1,6.3s-.3-1.7-1.2-2.3l-5.8-4.3c.4-.7,1.4-1.1,2.4-.4l8.7,6.1c1.5-1.7,1.5-3.5,2-5h.3ZM418.7,99.3c8.3-7.6,20.3-8,21.5-10.4,2.2-4.5-4.2-14.7-15.8-17.5-18.7-4.4-31.2,12.1-28.6,17.2,1.1,2.2,14.1,3.8,22.9,10.6h0Z"/>
      <path class="st2" d="M474.3,78.8c-2.5-1.4-3.7-4.6-7.4-5.3,3.8,7.1,5,15,.4,21.3-13.5,18.4-38.9,10.6-49,27.7-8.2-14.9-29.9-9.9-45.8-24-6-5.2-8.5-13.7-4.8-20.2l.4,8.5c0,4.9,3.3,10.3,8.3,9.6-2.3-5.1-3.1-9.6-1.3-13.6-.6,6.2,2,11.7,7.4,15.8,10.9,8.1,26.1,5.1,35.8,15.7,9.6-9.3,22.3-7.9,34.4-14,3.8-2,6-6,8.1-9,.3,2.1-1.1,4.5,0,6.8,10.8-5.4,7.1-14.6,5.3-25.1,3.8-.4,8.8,3,8.1,6h0v-.2Z"/>
      <path class="st2" d="M437.2,52.8c.2,0,.2,1.6-.2,1.6l-12.4.7c-4.1.2-2.1,8.3-4.5,10.5,0-3,1.1-6.8-1.9-9.7-2.7,3.5-2,7.3-1.8,10.7-.7.2-1-.2-1.1-.9l-.7-10.4-11.6-1.6c-.2-.5.3-1.7,1.3-1.7,11.3-.4,22.2-.9,32.9,1h0v-.2Z"/>
      <path class="st2" d="M420.1,65.6v.9c-.9.9-2.5.9-3.5,1v-.9c-.4-3.4-1.1-7.2,1.6-10.7,3,2.9,1.8,6.7,1.9,9.7Z"/>
      <path class="st2" d="M405,60.7c.5,2.1,1.4,4.2,3.2,5.3v.3c.3.7.2,1.9-.6,2.2-.9.3-2.1.2-3.2-.3,0-.5-.4-1.2-1-1.5-1-1.8-1.8-3.8-2.1-6,.5-.6,1.1-2.2,2-1.5l1.8,1.4h0Z"/>
      <path class="st2" d="M391.2,67.6l5.8,4.3c.9.6,1.2,1.5,1.2,2.3,0,3.3-8.7-1.1-9.1-6.3l2.1-.3Z"/>
      <path class="st2" d="M382.5,81.3c0-.6,0-1.3-.2-1.9,6.1,0,11.5,1,10.8,3.6-.7,2.4-6.3.9-10.6-1.7h0Z"/>
      <path class="st2" d="M373,70.9c-.5.6-1.6,1.8-1.7,2.7l-2.5,1.2c-.8,0-1.7-.3-2.5-1,.4-.6.8-1.3,1.4-1.9.2,0,.5,0,.7,0l1.3-.9h.7l1.1-.9h.7c0,0,.8,1,.8,1h0Z"/>
      <path class="st2" d="M373,70.9l-.8-.8c.2-1.2.8-1.4,1.6-1.4s1.1,0,1.5.6c.4.7-.2,1.4-.5,1.5-.5.2-1.5,0-1.8.2h0Z"/>
      <path class="st2" d="M368.2,77.7c.6-.9.8-1.9.7-2.9l2.5-1.2c-.1.8.2,2.2-.6,3-.5.5-1.6.9-2.5,1.1h-.1Z"/>
      <path class="st2" d="M403.4,66.7c-2.1-1-3.8-4.1-2.1-6,.3,2.2,1.1,4.2,2.1,6Z"/>
      <path class="st2" d="M408.2,66c-1.8-1.2-2.7-3.2-3.2-5.3,1.7,1.4,2.5,3.3,3.2,5.3Z"/>
      <path class="st2" d="M368.3,71.8c.1-.6.7-.9,1.3-.9l-1.3.9Z"/>
      <path class="st2" d="M370.3,70.8c-.1-.6.4-1.2,1.1-.9l-1.1.9Z"/>
      <path class="st2" d="M484.3,69.3c-2.5,2.8-7.7-4.2-17.6-7-1.6-.5-2.4-1.6-2.4-3.1l6.8,2.4c7.2,2.6,11.6,6.9,13.2,7.6h0Z"/>
      <path class="st2" d="M456.9,57.5c-.5,0-1.4.2-2,0-.6,0-1.1-1-.8-1.8,1.3.2,2.3.2,2.8,1.8Z"/>
      <path class="st2" d="M434.1,64.4l-1,1.2-.8,1.9c-.7.6-1.8,1.2-2.6,1.2-1.5,0-1.9-1.4-1.6-2.5v-.3c.7,0,1.2-.5,1.3-1.1v-.7c1.1-.8,1.8-2,2.1-3.2l.8-1,1.1-.9h1.8c0,0-1.1,5.4-1.1,5.4h0Z"/>
      <path class="st2" d="M452.4,78.7c.4.3,1,.9.7,1.4l-.8,1.6c-1.6,0-3.2.7-4.1,2l-.7-.2c-1.1.5-4.4,0-4.6-1.9,1.9-2.8,6.5-2.9,9.5-2.9h0Z"/>
      <path class="st2" d="M445.5,67.7c.6,0,1.7,1,1.6,1.8-2.4,1.7-4.8,4-7.8,5.2-.8-.3-1.4-2-1.3-2.5,0,0,0-.3.2-.4,2.1-1.5,4.4-4,7.3-4h0Z"/>
      <path class="st2" d="M461.1,90.6l.3-6.1c1.5.3,2.7,1.4,1.8,3.6-.4.9-.8,2-2.1,2.5h0Z"/>
      <path class="st2" d="M445.5,67.7c-2.9,0-5.1,2.5-7.3,4,3.3-5.9,8.5-6.5,7.8-5.1l-.5,1h0Z"/>
      <path class="st2" d="M452.4,81.7c.1,1.2-.5,2.2-1.6,2.1h-2.6c1-1.4,2.5-2,4.1-2.1h.1Z"/>
      <path class="st2" d="M431.5,60.9c-.3,1.3-1,2.4-2,3.2-.2-.5-.4-2-.1-2.7.2-.6,1.4-.9,2.1-.5Z"/>
      <path class="st2" d="M433.1,65.6l1-1.2c-.1.6-.3,1.1-1,1.2Z"/>
      <path class="st2" d="M428.2,65.9c.3-.5.7-.8,1.2-1.1,0,.6-.6,1-1.2,1.1Z"/>
      <path class="st2" d="M432.3,59.8c-.1-.6.3-1.3,1.1-.9l-1.1.9Z"/>
      <path class="st2" d="M418.7,99.3c-8.8-6.9-21.8-8.4-22.9-10.6-2.6-5.2,9.9-21.7,28.6-17.2,11.6,2.8,18.1,13,15.8,17.5-1.2,2.4-13.1,2.9-21.5,10.4h0Z"/>
      <path class="st2" d="M87.4,94.4l8.6,6,2.3-16.2,2.4,16.3,10.3-6-6.4,8.9,11.9,2.2-12.6,2.2,5.1,8.9-8-5.4-2.6,15.7-2.5-16.2c-2.9,1.6-4.9,3.9-8.8,4.6l5.7-7.8-13.4-2.3,13.4-1.9-5.5-8.3c-.2-.3-.4-.4-.6-.5-.4-.2-.3-.8.2-.8l.5.5h0Z"/>
      <path class="st2" d="M319.6,251.5c-.5,1.2-.8,2.6-1.5,4.1v2.1c-3.6,4.1-4.7,8.3-6.8,13.1l-80.8,186.9c-1.8,2.8-6.5,1.1-8.4,0-1.7-.9-5.8-3.4-4.3-6.5l85.5-181.9,6.7-12.9,2.4-6.5,9.7-20.5c1-2.1,2.7-2.9,4.1-2.4,1.8.5,2.8,2.6,2,4.4l-8.5,20.2h-.1Z"/>
      <path class="st2" d="M307.4,248.8c-1.8,3.7-3.9,6.9-5.8,11.2l-3,6.8-87.9,182.1c-2.9,3.2-13.1-2.2-12-6.6l40.9-79.6,50.7-97,3.9-8.3,6.1-10.6,11.9-22.3c.9-1.7,2.7-2,3.8-1.7,1.5.5,2.6,2.5,1.8,4.2l-10.4,21.7h0Z"/>
      <g>
        <path class="st2" d="M333.2,254.1c-3.7-2.8-9.4-2.2-13.5-2.9-.4.4-6.3,13-8.4,19.6,5.5,2.2,10.7,3.3,16.4,3.5l6.4-10c1.4-2.2,1.6-8.4-.8-10.2h-.1Z"/>
        <path class="st2" d="M300.2,246.9l-12-5.5c-2.3,3.5-4.4,6.2-5.7,9.5h0c-1.4,3.6-1.3,7.8-.5,12l8.2,2.9"/>
        <path class="st2" d="M307.4,248.8c-1.8,3.7-3.9,6.9-5.8,11.2l-3,6.8c1.4,1.5,2.9,2.1,4.7,2.4l6.7-12.9,2.3-6.5-4.9-1h0Z"/>
      </g>
      <path class="st2" d="M263.6,276.7c1.4,4.1-1.1,6.9-2.9,10.5-11.5,23.4-29.5,42.6-52.8,53.9-34.8,16.8-76,16.5-110.8,0-22-10.5-38.9-28.6-50.7-50.2-2.5-4.5-5.7-8.7-6.2-13.5,28.8,15.6,60.3,24.8,93.7,26.6l41.6-.2c31.8-1.9,61.3-11.3,88.1-27.1h0Z"/>
      <path class="st2" d="M261.8,263.6l-.9,1.3c-.4.5-1,.4-1.2,0-.1-.3,0-1.6.3-1.6l1.8.3h0Z"/>
      <path class="st2" d="M270.6,252.9c1,0,1.9.3,1.9,1.3,0,2.7-1.3,4.5-3.6,5.1-.8.2-1,.6-.4,1.1l1.1,1c.6,3.9-.8,7.6-2.3,11.1-27.7,17.5-59.3,27.3-92.6,29.5h-41.7c-33.6-1.9-65.1-11.6-93.9-27.8-2.4-4.1-3.1-9.4-4.9-13.8.7.4,1.8,0,1.8-.5,0-1.2-.7-1.7-1.1-2-.4-.3-1.2-.5-1.6.2-.8-1.9-.7-3.8-1.2-5.7l26.4,14.5c46.4,20.2,101.9,22.7,151.1,12.2,22.5-4.8,42.6-13.5,61-26.1h0ZM40.5,264.4c1.1-2.2,0-3-1-4.2-.6-.6-1.9-1.8-2.8,0l3.8,4.1h0ZM261.9,262c-.8.3-1.8.5-1.9,1.3l-4.2,7.6c-.3.3-2-.2-2.4,0s-.8,1-.6,1.7c-2.3,0-3.5,1.3-5.2,2.4-.3.2-.6.5-.7.8,1.2.9,2.7,2,4.3,2.1,2,.1,3.1-1.5,4.1-2.9,2-2.7,2.9-5.9,4.1-9.2,1.8,2,.7,3.6.9,4.4,1.3,0,1.9-.5,2.1-.8.4-.7-1.1-2.5-.7-3.5.2-.5,1.2-.9,2.5.1l-.6-5.4c0-.7-1.6-.3-1.5.3,0,.3,0,.9-.2,1.2h0ZM49.6,274.6c-2-1.6-2.6-4-.9-5.9.7,2.4.6,3.9,3,4.8-.8-3.1-1.9-6.1-4.1-9.1l-6.4,1.3c-1.7.3-1.4,1.8-.8,2.6.7.9,1.7,1.9,2.7,1,.5-.5.6-1.6,1.9-2,0,3.7,1.5,7.1,4.3,8.2l.3-.9h0ZM66.6,275.9c1.6.9,2.2-1.5.5-1.9-2.9,2.8-8.7,2.1-9.2,1.8-.5-.4-.8-1.8-.9-2.9-2.7-.3-4.5,2.1-5.8,5.1,1.8,1.4,4.5-.3,6.8-.4,2.9-.2,5.3.2,8.5-1.7h0ZM227.1,278.3c-1,.7-2.4.8-3.5,2.9l-1.9,3.7c-1.7-.6-3.8-.4-3.8,1.5h-1c-1.9-1.1-3.9-.5-6.3.8-2-.6-1.9,2,0,1.5l2.6-.3c.9-.1-.8,2.6-.5,2.7,1.2.7,2.4-1.1,3.1-1.4.6-.2.9,1,1.8,1.1,5-.6,4.7-7.4,9.2-10.4v1.5c0,.5.7.6,1,.2.2-.4.6-1.3,1-1.3,2.7-.2,4.9-1.5,8.1-2.6-.7,2.2-.7,3.6.8,4.4,0-1.7-.1-3.3.3-4.1.4-.7,1.9-1.3,3.4-1.6-.4-1.4-1.1-1.5-1.9-2.1,2.9-.6,4.8.3,6.7.8l.9-.7c-2.7-2.5-12.4-2.7-14.7,2.6-1.8.1-4.1.1-5.5,1.1h0l.2-.3ZM50.6,275.1l-.3,1.2c.9.2,1.2-.9.3-1.2ZM87.4,284.5c-1.9-3.1-6.2-5.7-9.9-7.2-1,1.6-2.1,2.7-3.7,2.4.9,1.5,2.1.9,2.8,1.2.8.3-1.8,2.1-1.7,2.6.4,1.6,3.6,3.2,4.9,2-.8-2.1,1.5-2.5,1.4-.6.2,1.2.9,2.1,1.4,2.4.8.6,2-.5,1.2-1.4l-.6-.6c-.8-.4,1.5.3,0-1.6.5,1.3,1,1.6,1.1,1.7l1.8.4,1.2-1.2h0ZM198.9,287.3c.5,1.3,1.2,2.4,2.5,4l3-3,.5-.5c-.3-.4-1-1.2-1-1.6.5-2.7-2.1-1.8-7.2.2,0,1.1,1.5,1.5,2.2,1h0ZM87.6,284.9l-.7.9c0,1,.5,2,1.4,2.5l.7-.5-1.4-2.9h0ZM188,288.2l5-2.5c-1.7-.7-4,.6-5,2.5ZM206.6,285.8h-.6,1.9-1.4,0ZM93.9,290.4v-2.1c.2-1.1-1.2-1.1-1,0-1,1-2.3.8-3.5,0l-.6.6c.7.2,1,1.2.7,1.5-.6.5-1.5,1.1-1.6,1.9,2.7.6,3.5-1.4,5-2,2.7,5.1,6.4-2.8,11.1-.4-1.6,2.1-.4,3.5,1.3,2.2.7-1.4,2-2.6,3.1-2.6s2.1,1.2,2.8,1.9l.7-.6,5.6-1.4c-.2,1,0,2,.3,2.3l2.2.5c0,1,.8.8.9,0l4.5,2c1.8.8,2,3.2,4,4.1,1.9.8,4.6,2.1,5.5-.9,1.7.8,3.3.6,4.6,0,2.2-1.1,2.7-2.3,1.9-4.4-1.8,4.1-5.3,0-7.7,2.4-1.5,0-2.9-.5-3.9-2-1.2-1.8-3.4-2.2-5-3-1-1.7-3.9-4.4-5.9-3.9-7.4,4.4-13.7-4-22.5,3.5-.7.6-1.9.5-2.5.4h0ZM146.4,294.8c.9.3,2.7.7,2.9.3,1-3.2,2.7-2.1,3.4-3.5s.1-1.9-1.1-2.4c-1.1-.5-1.7-1.7-3.2.4,1.7.3,2.6.5,3.2,2.1-3.4-.4-5.5,1.6-5.2,3.2h0ZM163.4,293.1c3.5,4.6,9.6,7.9,16.3,4.9-7.3-1.7-12.8-5.1-18.9-10.2l-3.4,5.6c2.3.3,2.9-.8,4.6-1.3-.7,2.2-1.9,2.5-3.3,4,2.4.4,3.4-1.2,4.7-3h0ZM186.4,288.3v1.9-1.9h0ZM205.1,289l1.5-.2c-1.7-1.3-1.3.4-1.5.2ZM184.4,290.3l-.5.5.5.5.5-.5-.5-.5ZM208.4,290.3l-.5.5.5.5.5-.5-.5-.5ZM112.3,292.4l.7-.6c-.7-1-1.7,0-.7.6ZM210.4,291.3l-.5.5.5.5.5-.5-.5-.5ZM182.2,292.5c-.6.5-.4,2.4.3,2.6.2,0,2-1.4,1.5-2.4-.2-.5-1.1-.9-1.8-.3h0ZM111.4,293.3l-.5.5.5.5.5-.5-.5-.5ZM179.6,295.8h-.6,1.9-1.4,0Z"/>
      <path class="st2" d="M261.8,263.6c.3-.5.1-1.2.1-1.6,1.6-.8,2.3,1.4-.1,1.6Z"/>
      <path class="st2" d="M40.9,239.8l6.3,5.4c14.8,9,30.5,15.3,47.9,19.1,41.2,8.9,83.6,8.1,124.3-2.4,16-4.1,30-10.6,43.1-20,2-1.5,2.2-2.5,2.5-4.8,2.4.8,4.3-.9,5.7-3.1l6.3-9.9c1.4,1.6,1,3.7.6,5.7l-3.6,17.3c-46.7,37-121.3,42-178.4,29.6-18.4-4-35.2-10.5-51.4-19.7l-13.3-8.8-4-25.1c1.2,0,1.7.7,2.2,1.8,2.6,6.3,7.2,10.8,11.8,14.7h0v.2Z"/>
      <path class="st2" d="M109.7,162.5c-7.2,2.9-12.7,4.3-14,13.8-5.3-.1-10.2.3-14.1,3.7-3.4,2.9-3,8.2-4,11.9l-11.6,4.1c-10.1,3.6-8,10.4-9.1,11.7-1.3,1.6-5.3-.4-8,2-4.1,3.7,1.5,12.4-4.7,15.7-1.9,1-3.8,1.3-4.5,3.2-1.9,4.9,3.4,7.4,1.3,11.2-4.6-4-9.2-8.5-11.8-14.7-.5-1.1-.9-1.8-2.2-1.8-1.5-9.5-.2-18.5,6.5-26.6,17.3-20.8,50.8-30.8,76.3-34.1h-.1Z"/>
      <path class="st2" d="M207.9,341.1c-.2,22.1-32.6,28.3-54,28.3s-54.7-5-56.8-28.4c34.8,16.6,76,16.9,110.8,0h0Z"/>
      <path class="st2" d="M277,224.2l-6.3,9.9c-1.4,2.2-3.4,3.8-5.7,3.1l1.3-7.8c.6-3.4-1.6-5.8-4.9-6.6-4-1,.9-6.7-2-11.3-1.3-2.1-3.8-3.9-6.5-4.1-.3-5.1-4.1-8.5-8-7.6.4-7.2-6.4-12.8-13-11.7-2.8-1.1-6.3-3.7-10.1-4.3-1.1-5.6-3.6-10.1-7.6-12.2-9.8-5.2-15.3,3.7-19.5-1.3-.1-2.7-.9-5.4-1.9-7.8,25.6,3,60.7,12.9,77.6,32.3,7.5,8.6,10.3,19.3,6.6,29.5h0Z"/>
      <path class="st2" d="M270.6,252.9c-18.4,12.6-38.5,21.2-61,26.1-49.2,10.6-104.7,8.1-151.1-12.2l-26.4-14.5-1.1-3.9,13.3,8.8c16.1,9.2,32.9,15.7,51.4,19.7,57.1,12.4,131.8,7.4,178.4-29.6-.5,2.6-1.3,4.1-3.4,5.6h0Z"/>
      <path class="st2" d="M267.3,272.4c-.9,2.1-1.9,3.3-3.7,4.3-26.9,15.8-56.4,25.2-88.1,27.1l-41.6.2c-33.4-1.8-64.9-11-93.7-26.6,0-.9-.7-2.5-1.1-3.3,28.8,16.3,60.3,25.9,93.9,27.9h41.7c33.3-2.2,64.9-12,92.6-29.5h0Z"/>
      <path class="st2" d="M34.2,260.2l-.9-2.3c.4-.7,1.2-.6,1.6-.2.4.4,1.2.8,1.1,2,0,.5-1.1.9-1.8.5Z"/>
      <path class="st2" d="M269.6,261.3l-1.1-1c-.6-.5-.4-.9.4-1.1.5,0,1.2-.2,1.6-.1.4,0,.8,1,.4,1.5-.3.3-.7.6-1.2.7h0Z"/>
      <path class="st2" d="M65.9,196c-2.5,3.9-2.8,8.2-2.9,13.1l-7.8,5.4c-4.1,2.8-5.9,7.6-4.8,12.7.9,3.9,4.5,7.1,8.7,8.8-.2.9-.3,2.1-1.4,3.2-1.7,1.8-.7,7,2.4,6.5,1.8-.3,3.8-3.4,7-2.5.7.2,1.2-1.9.6-2.3-3.4-2.2-6.1-2-6.6-4.2,12.5,3,23.4-9.7,29.7,1.7,3.4,6.2,10.6,7.8,17.6,6l11.4-2.9-3.4,5.9c2.3,3.2,5.4,1,7.9-.8l4.8.4c1.1,0,2-1.9,3-3.2,3.7,1.5,6.9,4.1,10.3,6.7,9.6,7.4,21.6,7.1,30.2-2,3.5-3.7,6.6-8.5,12.4-9.6,2.8-.5,5.3,1.1,7.6,2.5,6.2,3.8,15.2,4.9,19.5-1.2l7-9.9c2.7-3.8,7.7-4.5,11.6-2.1,5.4,3.3,10.9,1.9,15.5-1.8,5.6-4.6,8-11.3,5.2-18l1.5-1.2c2.7.2,5.2,2,6.5,4.1,2.9,4.6-1.9,10.4,2,11.3,3.3.8,5.5,3.2,4.9,6.6l-1.3,7.8c-.4,2.2-.5,3.3-2.5,4.8-13.1,9.4-27.1,15.9-43.1,20-40.8,10.5-83.2,11.2-124.3,2.4-17.4-3.7-33.1-10.1-47.9-19.1l-6.3-5.4c2.1-3.8-3.2-6.3-1.3-11.2.7-1.8,2.6-2.1,4.5-3.2,6.2-3.4.6-12,4.7-15.7,2.8-2.5,6.7-.4,8-2,1.1-1.3-1-8.1,9.1-11.7h0ZM256.9,235.5c.7-1.4.3-2.7-.5-3.2-1.7-1.1-5.3,2.9-6.9,2.1l-3.7-2c-3.5,0-6.8,5.4-5.2,7.8,2.1,1.3,4.7-1.5,6.1-1.6,3.3,1.2,7.9,1.1,10.2-3.1h0ZM76.8,239.3c-.5-.9-2.5-2.7-3.6-1.8-3,2.6-1.6,9.8,2.6,9.7,2.2,0,4.3-2.1,6.3-1.4,2,.7,3.3-1,3.3-2.1,0-5-6.5-.7-8.5-4.5h-.1ZM224.5,239c-1.2-3.1-4.2-.8-5.3.3-1.4,1.6-3.1,5.2-.2,6.1,2.2.6,6.4-3.9,5.4-6.4h.1ZM186.8,251c.9-1.5.8-2.1.6-2.8-.5-2.2-9.2.8-8.6,4,.7,3.2,6.5,1,7.9-1.2h.1ZM110.4,254.4c1.4-4-7.6-8.5-9.4-4.9-2.1,4.1,8.1,8.6,9.4,4.9ZM94.7,257.3c.9-2.8-5.2-7.5-7.2-5.8-2.2,1.8.5,4.7,1.7,5.8,1.1,1,4.3,3.5,5.5,0ZM205.6,255.1c-.8-3.4-5.2-2-7-.8-1.7,1.1-4.2,3.9-1.8,6.3s9.7-1.6,8.8-5.5ZM144.1,260.6c-1.7-1.2-4.1,0-5,1.3-.7.9-1.5,3.2,0,4.2,1.7,1.1,3.8-.4,4.7-1.3.8-.8,2.1-2.9.3-4.1h0Z"/>
      <path class="st2" d="M132.1,243.9c-1,1.3-1.9,3.3-3,3.2l-4.8-.4c-2.5,1.8-5.6,4-7.9.8l3.4-5.9c4.3-1.1,8.2.6,12.3,2.2h0Z"/>
      <path class="st2" d="M61.1,236.8c.6,2.2,3.3,1.9,6.7,4.2.5.4,0,2.5-.6,2.3-3.2-.9-5.2,2.2-7,2.5-3.1.5-4.1-4.7-2.4-6.5,1-1.1,1.1-2.3,1.4-3.2l2,.8h0Z"/>
      <path class="st2" d="M175.8,160.7c1.1.7,2.5,2.1,3.4,4.1-3.3.3-7.4,2.2-8,5.8-.5,3.2,4.3,5.2,6.9,4.1,3.5-1.4,5.7.9,8.8,1.8,2.3.7-.2-5.6.4-6.4,1.3-1.8,3.8.4,7.3,0,4.2,5,9.7-3.9,19.5,1.3,3.9,2.1,6.5,6.7,7.6,12.2,3.7.6,7.3,3.2,10.1,4.3l3.7,9.7c1.1,2.7,6.1,1.8,8.1,2.8,3.3,1.7,6.4,4.7,7.8,8,2.7,6.7.4,13.5-5.2,18-4.6,3.8-10.1,5.1-15.5,1.8-3.9-2.4-8.9-1.7-11.6,2.1l-7,9.9c-4.3,6.1-13.3,5-19.5,1.2-2.3-1.4-4.8-3-7.6-2.5-5.8,1.1-8.9,5.8-12.4,9.6-8.5,9.1-20.5,9.3-30.2,2-3.4-2.6-6.7-5.2-10.3-6.7-4.1-1.7-8-3.3-12.3-2.2l-11.4,2.9c-7,1.8-14.2.2-17.6-6-6.3-11.4-17.2,1.3-29.7-1.7l-2-.8c-4.2-1.7-7.8-4.9-8.7-8.8-1.1-5.1.7-9.9,4.8-12.7l7.8-5.4c.2-4.9.4-9.2,2.9-13.1l11.6-4.1c1-3.7.7-9,4-11.9,3.9-3.4,8.8-3.8,14.1-3.7,1.3-9.5,6.7-10.9,14-13.8,1.2,1.5,3,.7,4.1.8h2.1c1.4,1.6,3.5,5.5,6.1,5.8l12.9-2.6c1.5-.3,2.5-1.9,2.8-2.8.7-2.6-2.2-3.6-2.9-6,2.3-2.4,5.2-5.6,9.1-6.2,5.9-1,10.7,2.5,15.1,6l9.7-.7c2.8-.2,5,2.8,7.1,4.1h0v-.2ZM161.3,178.7c2.8-1,4-3.2,3.7-5.8-.5-4.1-8.5-8.2-11.2-5.8-8.8,7.7-19.4,6.9-20.3,15.3,5-.2,8.8.6,12.8,2.6,6.6,3.3,7.7-3.7,15-6.4h0ZM133,191.3c1.8-1.4,1.5-7.1-.3-7.5-2.7-.6-5.4-2.9-7.1-4.1-4.8-.3-8.6-.4-12.5-3.8-2.8-2.4-7.1-.5-8.7,1.6-2.1,2.7-2.4,7.2,0,8.9,3,2.1,5.6-.9,7.8-1.3,7.7-1.2,15.3,8.3,20.7,6.2h0ZM211.6,190.6c2.4,2.8,5.5,2.9,7.6.5,1.9-2.3,2-5.1-1-7-4.4-2.7-8.8-.3-12.3,3.1,2.8.4,4.3,1.6,5.8,3.4h-.1ZM185.3,190.2c.1-2.8-3-7.7-5.8-5.5-3.2,2.5-5,4.6-9.7,3.9-1.7-.3-3.8,1.7-4.3,2.9-.5,1.6.3,3.1,1,3.9,1.1,1.2,3.4,1.5,4.9.6,7.4-4.5,13.3,4,13.8-5.8h.1ZM95.8,192.6c-4-2.3-10-2.1-12.8,2.1-1.2,1.8,1.4,4.1,2.7,4.5,2.6.8,9.2-2.9,10.1-6.6h0ZM150,207.8c1.5,1,4.6-3.5,4-5.5-1.2-4.2-5.7-7.5-9.8-7.2-2.5.2-4.1,2.1-4.4,3.8-.2,1.4,1,3.1,2.5,4l7.6,4.9h0ZM191.4,215.4c.5-1.8.3-4.4-1.7-6l-5.6-4.3c-1.9-1.4-3.3-2.7-5.6-2.5-1.5.2-2.2,2.8-3.6,3.8-5,3.6-8.1,9-6.6,15.5.3,1.5,2.1,2.4,3.1,2.5s2.5-.2,3.2-1.3c5.3-8,15-1.2,16.7-7.7h.1ZM219.2,220.2c1.6.4,3.3.6,4.7-.3,1.1-.7,5.2-8.4,2.2-13.6-1.3-2.3-5.8-5.8-8.2-3.2s-2.8,6.1-6.8,7.4c-1.3.4-2.1,2.4-2.4,3.4-.2,1.1.2,3.6,1.6,3.9l8.9,2.3h0ZM85.3,215.8c0-1.3-1.1-3.6-2.6-4.1-3.9-1.3-4.4-5-6.7-7.4-2.4-2.5-6.5.4-7.8,2.6-5,8.5,2,8,5.9,18.2,4,.4,11.1-5.8,11.3-9.4h-.1ZM120.5,216.3l8-4c-1.6-4.9-7.1-7.6-11.9-6.5-4.3.9-7.1-.8-11.2-1.9-3.1-.8-8.3,6.6-5.6,8.5l8.3,5.7c2.3,1.6,4.5,2.7,7,2.1,1.8-.5,3-2.7,5.4-3.9h0ZM163.1,236.9c1-1.1,1.2-2.6,0-3.8-3.1-3.2-1.6-7.9-4.9-8.8-4-1.1-4.6,4.1-11.6,1.3-2.1-.8-3.6,2.7-3.7,4.2,0,3.4,6.1,8.8,7.8,8.2,8.9-3,9.9,1.6,12.3-1.2h0Z"/>
      <path class="st2" d="M192.8,162.4c1,2.4,1.8,5.1,1.9,7.8-3.5.3-5.9-1.9-7.3,0-.6.8,1.9,7.1-.4,6.4-3.1-.9-5.3-3.2-8.8-1.8-2.6,1.1-7.4-.8-6.9-4.1.6-3.6,4.7-5.5,8-5.8-.9-2-2.3-3.4-3.4-4.1-.1-3.7,2.3-5,5.3-5.7,5.4-1.3,10.7,5,11.7,7.4h-.1Z"/>
      <path class="st2" d="M134.8,157.5c.7,2.5,3.6,3.4,2.9,6.1-.2.9-1.3,2.5-2.8,2.8l-12.9,2.6c-2.6-.2-4.6-4.2-6-5.8-.3-.8,0-1.7,0-2.2.4-2.3,1.5-4.5,2.7-5.5,4.3-3.5,9.6,1.6,16.1,2h0Z"/>
      <path class="st2" d="M116,161c0,.5-.3,1.5,0,2.2h-2.1c0-.6.2-1.4.7-1.7.4-.2,1-.2,1.5-.5h0Z"/>
      <path class="st2" d="M161.3,178.7c-7.3,2.7-8.5,9.7-15,6.4-3.9-2-7.7-2.9-12.8-2.6.9-8.4,11.5-7.7,20.3-15.3,2.7-2.4,10.7,1.7,11.2,5.8.3,2.6-.9,4.7-3.7,5.8h0Z"/>
      <path class="st2" d="M191.4,215.4c-1.7,6.5-11.4-.3-16.7,7.7-.7,1.1-2.2,1.5-3.2,1.3-1-.1-2.7-1.1-3.1-2.5-1.5-6.5,1.5-11.9,6.6-15.5,1.4-1,2.1-3.6,3.6-3.8,2.3-.2,3.7,1.1,5.6,2.5l5.6,4.3c2,1.6,2.2,4.1,1.7,6h-.1Z"/>
      <path class="st2" d="M120.5,216.3c-2.4,1.2-3.6,3.4-5.4,3.9-2.5.6-4.7-.6-7-2.1l-8.3-5.7c-2.7-1.9,2.5-9.3,5.6-8.5,4.2,1.1,6.9,2.8,11.2,1.9,4.8-1.1,10.3,1.6,11.9,6.5l-8,4h0Z"/>
      <path class="st2" d="M133,191.3c-5.4,2.1-13-7.4-20.7-6.2-2.3.4-4.8,3.4-7.8,1.3-2.4-1.7-2.1-6.2,0-8.9,1.6-2.1,5.9-4,8.7-1.6,3.8,3.4,7.7,3.5,12.5,3.8,1.7,1.2,4.4,3.4,7.1,4.1,1.8.4,2.2,6.1.3,7.5h-.1Z"/>
      <path class="st2" d="M85.3,215.8c0,3.6-7.2,9.8-11.3,9.4-3.9-10.2-10.8-9.7-5.9-18.2,1.3-2.2,5.4-5.1,7.8-2.6,2.3,2.3,2.8,6.1,6.7,7.4,1.5.5,2.6,2.8,2.6,4.1h.1Z"/>
      <path class="st2" d="M219.2,220.2l-8.9-2.3c-1.5-.4-1.9-2.9-1.7-3.9s1.1-3,2.4-3.4c4-1.4,4.5-4.9,6.8-7.4s6.9.9,8.2,3.2c3.1,5.2-1.1,12.9-2.2,13.6-1.4.9-3.1.7-4.7.3h0Z"/>
      <path class="st2" d="M163.1,236.9c-2.5,2.8-3.5-1.8-12.3,1.1-1.6.6-7.8-4.8-7.8-8.2s1.5-5.1,3.7-4.2c7.1,2.8,7.7-2.4,11.6-1.3,3.3.9,1.8,5.6,4.9,8.8,1.2,1.2.9,2.7,0,3.8h0Z"/>
      <path class="st2" d="M185.3,190.2c-.5,9.8-6.4,1.2-13.8,5.8-1.5.9-3.8.6-4.9-.6-.8-.8-1.6-2.4-1-4,.4-1.2,2.6-3.2,4.3-2.9,4.7.8,6.5-1.4,9.7-3.9,2.7-2.1,5.9,2.7,5.8,5.5h-.1Z"/>
      <path class="st2" d="M150,207.8l-7.6-4.9c-1.5-1-2.7-2.6-2.5-4,.3-1.7,1.8-3.6,4.4-3.8,4.2-.3,8.6,3.1,9.8,7.2.6,1.9-2.5,6.4-4,5.5h0Z"/>
      <path class="st2" d="M244.9,199.7c-.4,0-.8.5-1.2.8-2.1-1.1-7.1,0-8.1-2.8l-3.7-9.7c6.6-1.1,13.5,4.5,13,11.7h0Z"/>
      <path class="st2" d="M211.6,190.6c-1.5-1.7-3-2.9-5.8-3.4,3.5-3.4,7.9-5.8,12.3-3.1,3,1.9,3,4.7,1,7-2.1,2.4-5.1,2.3-7.6-.5h.1Z"/>
      <path class="st2" d="M95.8,192.6c-.9,3.7-7.5,7.4-10.1,6.6-1.4-.4-3.9-2.8-2.7-4.5,2.8-4.1,8.8-4.3,12.8-2.1h0Z"/>
      <path class="st2" d="M252.9,207.4l-1.5,1.2c-1.3-3.3-4.5-6.3-7.8-8,.4-.4.9-.8,1.2-.8,4-.9,7.7,2.5,8,7.6h.1Z"/>
      <path class="st2" d="M119,286.5l-.2.8c1.4,1.4.2,3.1-.9,4.4-.3-.4-.4-1.3-.3-2.3l-5.6,1.4,1.1,1c-.7-1-1.7,0-.7.6l-1.1-1c-.7-.7-1.9-1.9-2.8-1.9s-2.4,1.2-3.1,2.6c-1.7,1.3-3-.1-1.4-2.2-4.7-2.4-8.4,5.6-11.1.4h1c.6.1,1.8.3,2.6-.3,8.8-7.5,15.1.9,22.5-3.5h0Z"/>
      <path class="st2" d="M124.9,290.4c1.5.8,3.7,1.2,5,3,1.1,1.5,2.5,2.1,3.9,2l1.2,2c-.9,3-3.6,1.7-5.5.9-2-.8-2.2-3.2-4-4.1l-4.5-2h-.9l-2.2-.5c1.1-1.2,2.3-2.9.9-4.4l6.1,3.1h0Z"/>
      <path class="st2" d="M163.4,293.1c-1.3,1.8-2.3,3.4-4.7,3,1.4-1.5,2.6-1.8,3.3-4-1.7.6-2.3,1.6-4.6,1.4l3.4-5.6c6.1,5.1,11.5,8.5,18.9,10.2-6.7,3-12.8-.3-16.3-4.9h0Z"/>
      <path class="st2" d="M92.9,288.3h1v2.1h-1c-1.6.5-2.3,2.5-5,1.9,0-.8,1-1.4,1.6-1.9.4-.3,0-1.3-.7-1.5,0-.2-.3-.4-.5-.5-.9-.5-1.4-1.5-1.4-2.5h-.7l-1.8-.5-.6.5c.7,1-.4,2-1.2,1.4-.5-.4-1.1-1.2-1.4-2.4,0-1.9-2.2-1.6-1.4.6-1.3,1.3-4.5-.3-4.9-2,0-.5,2.5-2.2,1.7-2.6-.7-.3-1.9.3-2.8-1.2,1.6.3,2.8-.8,3.7-2.4,3.7,1.5,7.9,4.1,9.9,7.2l.3.4,1.4,2.9c0,.2.3.3.5.4,1.1.8,2.5,1,3.5,0h-.2ZM83.3,285.2c-.8-.4,1.5.3,0-1.7v1.7Z"/>
      <path class="st2" d="M252.9,272.6c1.1.2,1.9,1.2,2.5,2.4-1,1.4-2.2,3-4.1,2.9-1.6-.1-3.1-1.1-4.3-2.1l-.6-.5c-1.9-.4-3.8-1.4-6.7-.8.8.6,1.5.8,1.9,2.1-1.6.4-3,.9-3.4,1.6-.5.8-.3,2.4-.3,4.1-1.5-.9-1.5-2.3-.8-4.5-3.2,1.1-5.4,2.5-8.1,2.6-.6-.4-1.3-.4-2-.4l.2-2c1.4-.9,3.7-.9,5.5-1,2.3-5.3,12-5.1,14.7-2.6l.4.4c1.7-1.1,2.9-2.5,5.2-2.4h0v.2Z"/>
      <path class="st2" d="M49.3,275.5c-2.8-1.1-4.3-4.5-4.3-8.2-1.3.5-1.4,1.6-1.9,2-1,.9-2,0-2.7-1-.6-.8-.9-2.2.8-2.6l6.3-1.3c2.2,3,3.3,6.1,4.1,9.1-2.4-1-2.3-2.5-3-4.8-1.7,1.9-1.1,4.3.9,5.9.4.3.7.5,1,.5.9.3.6,1.4-.3,1.2-.5-.6-.8-.9-1-.9h.1ZM46,267c-.7,1.1.7,1.7,1.3,1.4.3-.2.6-.5.2-1.1-.2-.3-.9-1.4-1.6-.3h0Z"/>
      <path class="st2" d="M255.4,275c-.6-1.2-1.4-2.2-2.5-2.4-.2-.8.2-1.5.6-1.7.4-.2,2.1.3,2.4,0l4.2-7.6c-.3,0-.5,1.3-.3,1.6.2.5.9.6,1.2,0l.9-1.3c2.4-.2,1.7-2.4.1-1.6.1-.3.2-.8.2-1.2,0-.6,1.4-1,1.5-.3l.6,5.4c-1.3-1-2.3-.6-2.5-.1-.4,1,1.1,2.9.7,3.5-.2.3-.8.7-2.1.8-.2-.8.9-2.5-.9-4.4-1.1,3.3-2,6.5-4.1,9.2h0Z"/>
      <path class="st2" d="M261.9,262c0,.3.2,1.1-.1,1.6l-1.8-.3c0-.8,1.1-1,1.9-1.3h0Z"/>
      <path class="st2" d="M66.6,275.9c-3.2,1.8-5.6,1.5-8.5,1.7-2.4.1-5,1.8-6.8.4,1.3-3.1,3.1-5.4,5.8-5.1,0,1.2.4,2.5.9,2.9.4.3,6.3,1.1,9.2-1.8,1.8.4,1.2,2.8-.5,1.9h0Z"/>
      <path class="st2" d="M221.8,284.9c-.4,2.2-1.8,4-4.1,5.8-.9,0-1.2-1.3-1.8-1.1-.7.2-1.9,2.1-3.1,1.4-.2-.1,1.4-2.8.5-2.7l-2.6.3c-1.9.6-2.1-2.1,0-1.5,2.4-1.3,4.4-1.9,6.3-.8v1.5c0,.5,1,.8,1,0v-1.5c0-1.8,2.2-2,3.9-1.5h0Z"/>
      <path class="st2" d="M146.4,294.8c-.3-1.6,1.8-3.6,5.2-3.2-.6-1.5-1.6-1.8-3.2-2.1,1.4-2.1,2.1-.8,3.2-.4,1.2.5,1.8,1,1.1,2.4s-2.4.3-3.4,3.5c-.1.4-2,0-2.9-.3h0Z"/>
      <path class="st2" d="M134.9,297.5l-1.1-2c2.4-2.4,5.9,1.7,7.7-2.4.8,2.1.3,3.4-1.9,4.4-1.3.6-3,.8-4.6,0h0Z"/>
      <path class="st2" d="M204,286.1c-.5,1-1.4,2.2-2.3,2l-2.7-.8c-.7.6-2.2.1-2.2-1,5.2-2,7.7-2.9,7.2-.2Z"/>
      <path class="st2" d="M198.9,287.3l2.7.8c.9.3,1.9-1,2.3-2,0,.5.6,1.3,1,1.6.1.1.4.6,1.6,1-1.7-1.3-1.3.4-1.5.2l-.7-.7-3,3c-1.3-1.6-2.1-2.7-2.5-4h0Z"/>
      <path class="st2" d="M227.1,278.3l-.2,2c-4.6,3-4.2,9.8-9.2,10.4,2.3-1.8,3.7-3.6,4.1-5.8l1.9-3.7c1.1-2.1,2.5-2.2,3.5-2.9h-.1Z"/>
      <path class="st2" d="M40.5,264.4l-3.8-4.2c.9-1.8,2.2-.7,2.8,0,1.1,1.2,2.1,2,1,4.2h0Z"/>
      <path class="st2" d="M182.2,292.5c.7-.6,1.5-.2,1.8.3.5,1-1.3,2.4-1.5,2.4-.7-.2-.8-2.1-.3-2.6h0Z"/>
      <path class="st2" d="M124.9,290.4l-6.1-3.1.2-.8c2-.5,4.9,2.2,5.9,3.9Z"/>
      <path class="st2" d="M228.9,280.7c-.4,0-.8.9-1,1.3s-.9.3-1-.2v-1.5c.7,0,1.4,0,2,.4h0Z"/>
      <path class="st2" d="M188,288.2c1-2,3.3-3.2,5-2.5l-5,2.5Z"/>
      <path class="st2" d="M206.6,285.8h1.3-2,.7Z"/>
      <path class="st2" d="M216.9,286.3h1v1.5c0,.7-1,.4-1,0v-1.4h0Z"/>
      <path class="st2" d="M186.4,288.3v2-1.9h0Z"/>
      <path class="st2" d="M179.6,295.8h1.3-2,.7Z"/>
      <path class="st2" d="M111.4,293.3l-.5.5.5.5.5-.5-.5-.5Z"/>
      <path class="st2" d="M120,292.2h.9c-.2.7-1,.9-.9,0Z"/>
      <path class="st2" d="M210.4,291.3l-.5.5.5.5.5-.5-.5-.5Z"/>
      <path class="st2" d="M208.4,290.3l-.5.5.5.5.5-.5-.5-.5Z"/>
      <path class="st2" d="M184.4,290.3l-.5.5.5.5.5-.5-.5-.5Z"/>
      <path class="st2" d="M94,288.3h-1c-.2-1.1,1.1-1.1,1,0Z"/>
      <path class="st2" d="M256.9,235.5c-2.3,4.3-6.9,4.3-10.2,3.1-1.4,0-4.1,2.9-6.1,1.6-1.6-2.3,1.7-7.9,5.2-7.8l3.7,2c1.5.8,5.2-3.2,6.9-2.1.8.5,1.3,1.8.5,3.2h0Z"/>
      <path class="st2" d="M76.8,239.3c2,3.8,8.5-.5,8.5,4.5s-1.2,2.8-3.3,2.1c-2.1-.7-4.1,1.4-6.3,1.4-4.2,0-5.6-7.1-2.6-9.7,1.1-.9,3.2.8,3.6,1.8h.1Z"/>
      <path class="st2" d="M205.6,255.1c.9,3.9-6.1,8.1-8.8,5.5-2.4-2.4.1-5.1,1.8-6.3,1.8-1.2,6.2-2.6,7,.8Z"/>
      <path class="st2" d="M110.4,254.4c-1.3,3.7-11.4-.7-9.4-4.9,1.8-3.6,10.8.9,9.4,4.9Z"/>
      <path class="st2" d="M94.7,257.3c-1.2,3.5-4.4,1-5.5,0-1.2-1.1-3.9-3.9-1.7-5.8,2-1.7,8.1,3,7.2,5.8Z"/>
      <path class="st2" d="M186.8,251c-1.4,2.2-7.2,4.5-7.9,1.2s8.1-6.2,8.6-4c.1.6.3,1.3-.6,2.8h-.1Z"/>
      <path class="st2" d="M224.5,239c.9,2.5-3.2,7.1-5.4,6.4-3-.8-1.2-4.5.2-6.1,1-1.2,4.1-3.4,5.3-.3h-.1Z"/>
      <path class="st2" d="M144.1,260.6c1.7,1.2.5,3.3-.3,4.1-.9,1-3,2.4-4.7,1.3-1.5-1-.7-3.2,0-4.2.9-1.2,3.3-2.5,5-1.3h0Z"/>
      <path class="st2" d="M46,267c.7-1.1,1.4,0,1.6.3.4.5,0,.9-.2,1.1-.6.4-2-.3-1.3-1.4h0Z"/>
      <path class="st2" d="M548.9,360.5c-1.2-3.8-.3-8.9-3.4-12.3-2.1-2.3-7-1.5-10.1-3.5,3-1.6,7.8-1.1,10.3-4.1s1.8-7.4,3.2-11.5l2.6,10.3c1.1,4.3,7,3.6,11.4,5.1-3.8,1.8-8.4.8-10.8,4.5-2,3.1-1.4,7.6-3.2,11.4h0Z"/>
      <path class="st2" d="M89.6,435.1l-2.1-13.3c-2.8,2-4.7,4-7.8,5.1,1.1-2.9,3.2-4.1,5.3-6.5l-10.6-2.3,10.4-2-4.4-7,7.3,4.6,1.9-12.5,2.4,12.8c2.5-1.4,3.5-2.9,6.3-3.4-.8,2.9-2.4,3.8-3.9,5.8l9.9,1.7-10.3,2.1c1.7,2.6,3.2,4.1,3.9,6.8l-6.2-4.3-2.2,12.5h0Z"/>
      <path class="st2" d="M59.9,386.1l-2.1-9.2c-.7-3-5.6-2.4-8.4-3.7,2.2-1.2,5.9-.6,7.9-2.9,2.1-2.5,1.3-6.8,2.4-10.2,2,4.8.5,9.9,5.4,11.7,1.6.6,4-.1,5.3,2-2.7.3-6.4.3-8.2,3l-2.3,9.4h0Z"/>
    </g>
    <g>
      <path class="st3" d="M324,400.4c-1.4-3.4-1-7.9-3.4-11.3-2.1-2.9-6.2-2.5-10.2-3.9l10.4-3.4,3.1-12.6c1.4,4.6.5,9.6,3.8,12.9l8.9,3.1c-3.3,1.3-7.1,1.1-9.1,3.6-2.6,3.1-1.9,7.2-3.6,11.7h.1Z"/>
      <path class="st3" d="M539.7,41.3l13,8.9,3.3-21.1,4.2,21.1,15.1-8.6-10.5,12.9,19,3.1c-6.1,2.3-11.4,2-18,3.1,0,1.3.2,3.1,1,4.3l5,8.2h0c1.2.5.4,2.1-.8,1.1l-.7-.8c-3.3-2.1-5.7-5.4-10.9-6.5l-3.6,21.9-3.2-22.8-14.9,7.6,9.6-12.8-19.8-3.3,19.7-3.4-8.2-11.9c-.2-.3-.5-.6-.8-.6-.8-.9.5-1.5.9-.7,0,0,0,.2.2.3h.3Z"/>
      <path class="st1" d="M597.1,247.4c-1.5,11.2-12.9,20.5-23.1,27.2-22.7,14.9-46,27.3-70.4,39.5-21.4,10.7-42.2,20.5-64.9,28-26.5,8.7-59.3,16-80.2-3.5-5.8-5.4-10.4-11.4-11.3-19l5.1-.7c3.3,4.7,8.8,7.1,14.2,9,.3,2.1,2.9,4.8,5.1,5.5,4.6,1.5,8.9.3,12.3-1.9,8.6.4,17.2.2,25.6-1.9,4.9,4,10.5,6.4,17.4,4.5,5.3-1.5,9.6-6.6,12.2-12.2l9.7-2.7c5.1.3,9.8-.6,12.4-5.7l12.4-5.4c8.2,4.3,17.9,6.3,26.7,1.6,7.4-4,6.6-15.6,9.7-20.1,4.9-3.3,10.4-5,15.6-7.8l-.4-1.1c3.1,0,6.7.4,10,1,8.6,1.4,14.2-3.2,16.1-11l11-5.4c3,1.6,7.1,1.7,10,.5,0,.4,0,1.1-.2,1.4-.3.4-.9.7-1.8.7l-7-.3c-4.6-.2-6.8,2.9-7.2,7-.2,2.3-3.5,2.2-4.8,3.1-2.9,1.8-4.8,5.7-8.2,5.8l-16.7.4c-3.6,0-5.7,4.8-8.6,6.2-5.2,2.6-8.6,5.1-9.1,11.5-.1,1.4-2.6,3.9-1.3,6.4,6.3-1,11.4-5,17-8l24.1-12.9c4.8-2.5,8.2-5.4,12.3-8.5,1.8-1.4,4.8-1.4,5.8-4.5l7.3-2.5,10.2-8.1c0-1.4-2-3.1-2.4-5.4,6.3,0,11.6-2.3,11.8-8.4l-9.5.6c-1.2,6.4-8.4,15.7-11.1,15.6,3-3,3.7-6.9,4.3-11l7.6-6.2c2.9-2.4,8.5-.1,12.2-1.1h0v-.2Z"/>
      <path class="st6" d="M339.4,281.8c0,.4.4.8,1.4.8-.9.6,0,1.6.3,2.1,2.9,6.5,10.3,9.8,17.1,10.1h.7c6.9,6.5,14.1,13.3,23.6,16.6,18.5,6.4,38.1,7.3,57.7,5.5,0,1.7-.6,3.4-1.2,4.7-2.6,5.7-6.8,10.8-12.1,12.2-6.9,1.9-12.5-.6-17.4-4.5-5.4-4.4-8.7-9-15.8-4.4l-9.8,6.3c-3.4,2.2-7.7,3.4-12.3,1.9-2.2-.7-4.8-3.4-5.1-5.5-.4-3.2-.6-7.3-4.1-9.1-3.3-1.6-7-.3-10,.1l-5.1.7c-5.5.7-15.2-2.4-15.2-9.3s8.9-9.1,8.3-11.9c-.5-2.2-8.3-4.2-9.1-8.6-.9-4.9,4.2-7.7,8.2-7.8h-.1Z"/>
      <path class="st1" d="M592.2,201.6c5.3-.6,13.3,0,16.1,5.8,3.7,7.5-9.1,13.5-9.5,15.8-.5,3.8,11,9.7,6.2,18.4-1.6,2.8-5.2,5-8,5.7-3.8,1-9.3-1.3-12.2,1.1-.7,0-1.5.4-2.7-.2l5.8-3.8c2.4-1.6,3.8-4.3,3.6-7.1,0-2.3-1.6-4.8-3.4-6.6l-13.1-13.2c-2.3-2.5,5.6-5.6,13.4-14.5,1.1-1.2,2.3-1.2,3.6-1.4h.2Z"/>
      <path class="st6" d="M512.9,284.8c-1.4,1.5-2,3.3-3,4.7-3.1,4.5-2.3,16.1-9.7,20.1-8.8,4.7-18.5,2.7-26.7-1.6-1.4-.8-4.1-1.7-6.1-1.1-3.1,1-5.1,4.2-6.3,6.5-2.6,5.1-7.3,5.9-12.4,5.6-1.4-.4-3.1-.6-4-2.9,6.4-2,12.7-3.9,17.6-8.3,5.3-4.8,5.5-12.5.9-17.1l-2.2-7.1c17.2,2.5,34.5,2.7,51.9,1.1h0Z"/>
      <path class="st4" d="M463.3,290.8c4.6,4.7,4.4,12.4-1,17.1-4.9,4.4-11.2,6.4-17.6,8.3.9,2.3,2.6,2.5,4,2.9l-9.7,2.7c.6-1.4,1.2-3,1.2-4.7-19.7,1.7-39.2.9-57.7-5.5-9.5-3.3-16.8-10.1-23.6-16.6l1.4-.2c.7,1.4,2.7,1,4,1.2,17.4,16.4,49.3,19.8,73.6,17.5,11.4-1.1,26.2-7.8,23.9-15.6-1.6-5.2-9.8-6.3-15.3-3.9l-21.6,9.3c-15.1,6.5-31.7,3.6-42.4-8.2l8.9-.7c6.4,6,16.4,9.8,25.4,7.7l25.5-10.4c7.2-2.9,14.4-4.3,21.2-.9h-.2Z"/>
      <path class="st6" d="M577.2,254.7c-.6,4.1-1.2,8.1-4.3,11h-.6c-2.9,1.1-6.9,1-10-.5-2.1-1.1-5.2-4.5-8.5-1.7-1.7,1.5-2.1,5.2-2.6,7.1-1.9,7.8-7.6,12.4-16.1,11-3.3-.5-6.9-1-10-1,3.5-2.4,7.8-4.2,8-8.7,0-1.9-.2-3.8-1.4-5.8l-3.2-5.3-1.6-3.2c2.8-1.1,5.8-1.1,9.2-1,14,.2,27.6-1.7,40.9-5.8.3,1.5.2,2.7,0,3.8h.2Z"/>
      <path class="st1" d="M572.3,265.7h.6c2.7.2,9.9-9.1,11.1-15.5l9.5-.6c-.2,6.1-5.4,8.5-11.8,8.4.4,2.2,2.5,4,2.4,5.4l-10.2,8.1-7.3,2.5c-.9,3.2-4,3.2-5.8,4.5-4.1,3.1-7.6,6-12.3,8.5l-24.1,12.9c-5.6,3-10.7,7-17,8-1.3-2.6,1.2-5,1.3-6.4.5-6.4,3.9-8.9,9.1-11.5,2.9-1.4,5-6.1,8.6-6.2l16.7-.4c3.5,0,5.3-4,8.2-5.8,1.3-.8,4.6-.8,4.8-3.1.4-4.1,2.6-7.1,7.2-7l7,.3c.9,0,1.5-.3,1.8-.7.2-.3.3-1,.2-1.4h0Z"/>
      <path class="st4" d="M588.2,230.7c1.8,1.8,3.2,4.2,3.4,6.5.2,2.8-1.2,5.5-3.6,7.1l-5.8,3.8c1.1.6,2,.2,2.7.2l-7.6,6.2c0-1.1.2-2.4,0-3.8-13.3,4.1-26.8,6-40.9,5.8-3.4,0-6.4,0-9.2,1l-1.7-2.2c3.4.7,6.6-.3,10.2-.4,15.3-.8,42-4.5,51.3-13.7,2.1-2,2.4-5,.7-7.3-3.1-4.1-10.7-1.7-16.3,2.6-16.7,12.9-33.3,18.5-52.8,9.8,1.1-.2,2.5-2.3,3.7-2.9l7.2,2.1c8.1,2.2,17.6,2.6,25.8-1.2l17-11c5.3-3.5,10.4-4.7,16.2-2.8h0l-.3.2Z"/>
      <path class="st4" d="M533.2,272c-.2,4.4-4.6,6.2-8,8.6l.4,1.1c-4.6-.2-8.9,1.1-12.6,3-17.4,1.5-34.7,1.3-51.9-1.1-1.3-.2-1.7-1.7-2.7-2.1,5.1,1.5,10.3,1,16,.9,14-.3,27.7,0,41.4-2.4,6-1.1,10.8-3.1,14.4-7.4.7-.8,2.2-1,3.1-.7h-.1Z"/>
      <path class="st4" d="M409.5,329.5c-8.5,2.2-17.1,2.3-25.6,1.9l9.8-6.3c7.1-4.6,10.4,0,15.8,4.4h0Z"/>
      <path class="st4" d="M366.4,327.8c-5.4-1.9-10.9-4.2-14.2-8.9,3.1-.4,6.7-1.8,10-.1,3.6,1.8,3.7,5.9,4.1,9.1h.1Z"/>
      <path class="st4" d="M562.3,265.2l-11,5.4c.5-1.9.9-5.6,2.6-7.1,3.3-2.9,6.3.6,8.5,1.7h0Z"/>
      <path class="st4" d="M473.5,308l-12.4,5.4c1.2-2.3,3.2-5.6,6.3-6.5,2-.6,4.6.4,6.1,1.1h0Z"/>
      <path class="st4" d="M525.5,281.8c-5.2,2.7-10.7,4.4-15.6,7.8,1-1.4,1.6-3.3,3-4.7,3.8-1.9,8-3.2,12.6-3h0Z"/>
      <path class="st0" d="M575.2,217.5l13,13.2c-5.8-1.9-10.9-.7-16.2,2.8l-17,11c-8.2,3.8-17.7,3.4-25.8,1.2.5-2.6,2.6-4.6,5.2-5.9l28.1-14.8,12.6-7.5h.1Z"/>
      <path class="st0" d="M449.4,277.6l8.9,4c1,.4,1.5,1.9,2.7,2.1l2.2,7.1c-6.8-3.4-14-2.1-21.2.9l-25.5,10.4c-9,2.1-19-1.7-25.4-7.7,14.7-3,29.1-6.9,43.7-11.9l14.4-4.9h.2Z"/>
      <path class="st0" d="M364.2,295.9l.2-1c5.9,1.3,12,.5,18,.1,10.7,11.8,27.3,14.8,42.4,8.2l21.6-9.4c5.5-2.4,13.8-1.3,15.3,3.9,2.3,7.8-12.4,14.4-23.9,15.6-24.4,2.4-56.2-1-73.6-17.5h0Z"/>
      <path class="st0" d="M510.2,250.3c2.5,4,9.4,4,15.1,5.2l1.7,2.2,1.6,3.2c-8.4-1.1-15.9.1-23.4,4.8-14.6,9.2-21.4,10.3-38,5.3.3-1.1.9-1.8,2-2.3l27.6-12.3,13.4-6.1h0Z"/>
      <path class="st4" d="M528.6,260.9l3.2,5.3c1.2,2,1.5,3.9,1.4,5.8-.9-.3-2.5,0-3.1.7.5-2.2.5-4.9-1.4-6.9-1.1-1.2-3.5-2.4-5.9-2.7-12.3-1.4-24.5,11.9-40.8,14.2-7.8,1.1-15-1.9-22-3.6,1.7-2.1,4.6-3.5,7.1-2.7,16.7,5,23.4,3.9,38-5.3,7.5-4.7,15-5.9,23.4-4.9h0Z"/>
      <path class="st0" d="M525.3,255.5c-5.7-1.2-12.6-1.2-15.1-5.2l8.2-3.8c19.5,8.7,36.1,3.1,52.8-9.8,5.6-4.3,13.3-6.7,16.3-2.6,1.7,2.2,1.3,5.2-.7,7.3-9.4,9.2-36,13-51.3,13.7-3.6.2-6.8,1.2-10.2.4h0Z"/>
      <path class="st0" d="M530.1,272.7c-3.6,4.3-8.5,6.4-14.4,7.4-13.7,2.4-27.3,2.1-41.4,2.4-5.7.1-10.9.6-16-.9l-8.9-4c3.3-1.1,7.1-4.7,10.7-3.8,7,1.7,14.2,4.7,22,3.6,16.3-2.3,28.4-15.6,40.8-14.2,2.4.3,4.8,1.5,5.9,2.7,1.9,2,1.9,4.7,1.4,6.9h-.1Z"/>
      <path class="st1" d="M592.2,201.6c-1.3.2-2.6.1-3.6,1.4-7.8,8.9-15.8,11.9-13.4,14.5l-12.6,7.5-28.1,14.8c-2.6,1.4-4.8,3.3-5.2,5.9l-7.2-2.1,19.1-10c13.7-7.2,26.5-14.6,38.9-24,6.8-5.1,11.7-11.8,12.5-20.8-4.4-4.1-8.1-10.1-13.4-12.9-12.6-6.6-27.1-5.7-40.9-4.5-8.8.8-21.9.8-24.3,7.4,6.1-.9,11.9-2.2,17.5-.4l15,5c1.4.5,2,1.2,1.7,2.3l-7.5-2.5c-17.8-6-27.4-2.7-43.7,2.5-2.5-1.5,3.7-.8,8.9-5.3-2.6-1.9-4.9-.7-7.6.3l-16,6-23.9,9.1c-1.4.5-2.6,1.2-3,2.6-.4,1.2,1.3,3,3,3.1l13.7.4,10.2.9c4.6.4,16.3,5.7,17.1,9.1-24.7-11.9-44.4-12.2-68.8.5,14.3,2.4,26.9,5.1,40.1,8.7,11.3,3.1,22.6,3.4,34,.4-3.1,4.7-16,4.9-24.5,3.1l-24.2-5.2c-6.1-1.3-12.4-4.1-18.8-3.5-4.5.5-7.2-2.3-9.1-5.3-7.8,1-15.9,4.7-22.8,8l-8.2,4c-15.2,7.3-31.4,17-42.7,29.3-9.2,8.1-13.4,19.1-13.8,30.7-1,0-1.3-.4-1.4-.8-2.3-31.9,43.6-54.7,70.5-67.6,21.9-10.4,44.4-19.9,67.4-28.5l18.3-6.8c21.3-7.9,43.2-12.9,66.2-10.8,21,1.9,38.7,18.3,32.3,28.4-1.2,1.8-2.2,3.2-1.9,5.1h.2Z"/>
      <path class="st1" d="M522.1,243.6c-1.2.6-2.5,2.7-3.7,2.9l-8.2,3.8-13.4,6.1-27.6,12.3c-1.1.5-1.7,1.2-2,2.3-2.5-.8-5.4.6-7.1,2.7-3.6-.9-7.5,2.7-10.7,3.8l-14.4,4.9c-14.6,4.9-29,8.8-43.7,11.9l-8.8.7c-6,.4-12.1,1.2-18-.1l-2.6-1.1c-.5-.2-1.2.4-1.5,1l-1.4.2h-.7c-2.4-4.4-12-1.6-17.1-10.1-.2-.5-1.2-1.5-.3-2.1.5-11.6,4.6-22.6,13.8-30.7,11.4-12.4,27.5-22,42.7-29.3l8.2-3.9c6.9-3.3,15-7,22.8-8.1,1.9,3,4.6,5.7,9.1,5.3,6.5-.6,12.7,2.2,18.8,3.5l24.2,5.2c8.4,1.8,21.4,1.6,24.5-3.1l3.2-.9c.3,0,.8.8,1.1.9.5.1,1.2-.6,1.1-1.8,0-.4,1.2-.7,1.5-1.1.3-.5,0-1.2-.4-1.8-2.1-2.4-5.6-4.6-9-4.6s-1.8.2-2.8-.3c-.8-3.4-12.5-8.6-17.1-9.1l-10.2-.9-13.7-.4c-1.7,0-3.4-1.9-3-3.1.4-1.3,1.6-2,3-2.6l23.9-9.1,16-6c2.7-1,5-2.2,7.6-.3-5.2,4.5-11.5,3.8-8.9,5.3,0,.3.2.7.2,1-.1.8.3,1.8.8,1.8h2.1c0,.1,18.8,3.7,18.8,3.7l14.9,3.2c1.5.3,2.7.5,3.5-.8h2c0,.4-.2,1.2,0,1.5.2.4,1,.6,1.9.6h8.2c.8,0,1.6-.3,1.8-.6s.3-1,.2-1.4h2c1.9,1.8,5.6,1.4,7.1-.8.4-.6.8-1.1.8-1.9,0-1.3-9.5-6.1-12.1-6.2h-.9c.2-1.1-.3-1.8-1.7-2.3l-15-5c-5.6-1.8-11.3-.6-17.5.4,2.4-6.6,15.5-6.7,24.3-7.5,13.8-1.2,28.3-2.1,40.9,4.5,5.3,2.8,9,8.8,13.4,12.9-.8,9-5.7,15.7-12.5,20.8-12.4,9.4-25.2,16.8-38.9,24l-19.1,10h0l-.4-.2ZM431.8,252.3c8.2,1.1,15.6-1.2,22.8-5.1-29.4-16.8-54.7-23.2-83.4-2.8l29.7,3.6,30.9,4.2h0Z"/>
      <path class="st1" d="M358.2,294.9c-6.8-.3-14.2-3.6-17.1-10.1,5.1,8.5,14.8,5.8,17.1,10.1Z"/>
      <path class="st4" d="M499.5,211.9c1.1.5,1.8.3,2.8.3,2,2.7,5.7,3.6,9,4.6.5.6.8,1.3.5,1.8-.2.4-1.5.7-1.5,1.1-.8-.2-1.6.1-2.3.9l-3.2.8c-11.3,3-22.7,2.7-34-.4-13.2-3.6-25.8-6.3-40.1-8.7,24.3-12.8,44-12.4,68.8-.5h0Z"/>
      <path class="st4" d="M548.2,185.8h.9l12.1,6.2c0,.9-.4,1.3-.8,1.9-2.4-.5-4.7.8-7.1.8h-16.1l-9.1-1.8c-10.6-2-20.7-4.8-31-6.1,0-.3,0-.8-.2-1,16.3-5.2,25.9-8.5,43.7-2.5l7.5,2.5h0Z"/>
      <path class="st1" d="M364.4,294.9l-.2,1c-1.2-.1-3.2.2-4-1.2.3-.5,1.1-1.2,1.5-1l2.6,1.2h.1Z"/>
      <path class="st4" d="M431.8,252.3l-30.9-4.2-29.7-3.6c28.7-20.4,54-14,83.4,2.8-7.2,3.9-14.6,6.2-22.8,5.1h0Z"/>
      <path class="st1" d="M537.3,194.6c-.9,1.2-2,1.1-3.5.8l-14.9-3.2-18.8-3.5h-2.1c-.5-.2-.9-1.2-.8-1.9,10.3,1.3,20.3,4.1,31,6.1l9.1,1.8h0Z"/>
      <path class="st1" d="M551.4,194.8c0,.4,0,1.1-.2,1.4-.3.3-1,.6-1.8.6h-8.2c-.8,0-1.6-.3-1.8-.6s-.2-1.1,0-1.5h12.1,0Z"/>
      <path class="st1" d="M511.3,216.9c-3.2-1.1-7-1.9-9-4.6,3.4,0,6.9,2.2,9,4.6Z"/>
      <path class="st1" d="M560.4,193.9c-1.5,2.3-5.1,2.6-7.1.8,2.3,0,4.6-1.3,7.1-.8Z"/>
      <path class="st1" d="M510.3,219.8c.1,1.1-.6,1.9-1.1,1.8-.3,0-.8-.9-1.1-.9.7-.8,1.4-1.1,2.3-.9h0Z"/>
      <path class="st1" d="M561.2,192l-12.1-6.2c2.6,0,12,4.9,12.1,6.2Z"/>
      <path class="st3" d="M444.4,129.6c.3,1.2-.2,2.3-1.6,2.2-.9,0-1.8-.3-2.5-1.1.9-1.5,2.8-.8,4.1-1.1h0Z"/>
      <path class="st3" d="M350.2,113.8c-1,0-2.1.2-3.3-.2-.7-.2-.8-1.1-.8-1.9,1.7,0,3.4.6,4.1,2.1h0Z"/>
      <path class="st3" d="M499.8,67.2c-18-22.3-54.7-30.6-83.5-30.4-18.5.2-36,2.9-52.9,10-22.2,9.2-40.7,24.9-36.5,50.1.2.9-.9,3.3-1.7,3.4-10.9-3.4-25.4.3-31.9,9.5-.3,0-.8.8-1,1-7.9,5.8-8.9,23-3.1,35.4,4.6,9.8,12.8,17,22.2,22.8,12,7.4,26.3,9.4,40.2,11.7,3.7,1.2,5.4,6.1,7.8,8.1.4,1,1,1.6,2,1.8.6,2.5,3.4,3.8,5,5.4l1.9,1.8c3.3,3.3,7.5,5.5,11.9,8.3,8.8,5.7,19.4,6.7,29.8,8.2,21.9-10.4,44.4-19.9,67.4-28.5.4-1.5,1.2-2.9,2.2-4l.9-.9c4.3-4.6,7.6-10.2,10.1-16.1.4-.3.7-.7.9-1.1,11.2-22.4,15.8-46.2,16.4-71.9.2-9.1-2.3-17.5-8-24.6h0ZM318.8,153.5c-7.8-5-13.9-12.7-16.6-21.6-.6-2-1-4.3-.1-6.2.6-1.3,1.7-2.2,2.9-3.1,3.2-2.5,6.6-4.7,10.4-5.9,3.2-1,9.8-1.8,12.4,1.2,1.3,1.5,16.7,32.2,17.6,42.5-9.3.4-18.7-1.9-26.5-6.9h0ZM492.4,103.9c-17.2,21-59.6,28.8-86.1,26.2-18.9-1.8-37.2-5.9-53.1-16.2-11.9-7.7-20.7-20.1-15-32.5,3.7-8,10.5-14.2,18.2-17.6,0-.4.5-.9.9-1l9.5-4.7c33.1-11.4,69.4-11.7,102.1.9,10.4,4,19.1,10,25.3,18.7,6,8.3,4.5,18.5-1.8,26.2Z"/>
      <path class="st1" d="M485.5,107.6c-3,3.6-7.1,6.4-11.2,8.2-.3-2.9,3.4-3.6,4.8-5,2.5-2.5,4-2.8,6.4-3.2h0Z"/>
      <path class="st1" d="M394.3,126.7l-8.1-1c-1.5-.2-2.1-.7-2.2-1.9,2.3,0,4.5.7,7.3.9l2.3.2c.6,0,1,1.1.7,1.9h0Z"/>
      <path class="st1" d="M437.4,127c-2.6.4-5.4,1.5-8.1.6-.9-2.3,4.1-3,8.1-.6Z"/>
      <path class="st1" d="M465.4,118.9c-.5,2.4-3.2,2.3-5.1,2.8,0-2.4,3-2.9,5.1-2.8Z"/>
      <path class="st1" d="M448.4,125.2l-2.1.5v-1.5c.2-.5,1-.8,1.5-.5s.7.9.6,1.5h0Z"/>
      <path class="st1" d="M453.4,122.9c.1.7-.3,1.6-.8,1.6l-1.4.2c0-.3,0-1.2.2-1.5.4-.4,1.5-.5,2.1-.4h-.1Z"/>
      <path class="st1" d="M379.3,123.7c-.6,0-1.4,0-1.9-.6-.2-.3-.3-.9-.3-1.3.4,0,1-.2,1.6,0s.9,1.2.6,1.9h0Z"/>
      <path class="st1" d="M373.3,121.7l-2.2-.9c0-.7.3-1,.7-1.2.7-.3,1.3.2,1.4.6s.1,1,0,1.5h.1Z"/>
      <path class="st1" d="M368.2,119.8c-.5-.3-1.6-.6-2.1-.9,0-.6.4-1.1.7-1.2.6-.3,1.4,0,1.4.5.1.4,0,1,0,1.6Z"/>
      <path class="st1" d="M472.3,116.8l-2,1.1v-1.6c-.1-.4.8-.8,1.3-.6.3,0,.7.4.6,1.1h.1Z"/>
      <path class="st1" d="M357.4,113.6c-3.4,0-8.1-4.3-11.2-7.7,0-.9,1-1.5,1.7-.9l6.9,5.2c1.4,1,2.5,1.9,2.6,3.4h0Z"/>
      <path class="st1" d="M343.1,103.8c-3.4-3.9-6.3-14.2-3.9-18.1-.2,11.6,7,17,3.9,18.1Z"/>
      <path class="st1" d="M339.3,83.7c0-.8.2-1.7,1.1-2,.3.4,1.2.9.9,1.5-.4.8-1.4.7-2,.5h0Z"/>
      <path class="st1" d="M341.2,78.6c.7-1.6,2.6-3.1,3.8-4.4.4,2.3-.3,4.3-3,5.8-.6,0-1-.8-.9-1.4h.1Z"/>
      <path class="st1" d="M490.2,74.6c5.4,6.5,7.9,14.5,4.4,22.3-3.6-3.8,4-3.8-1.5-12.9l-4.1-6.9c-.2-.4-.5-1.4-.4-1.8.1-.5,1-.9,1.6-.8h0Z"/>
      <path class="st4" d="M366.3,73.8c.9.7,1.8.9,2.5,1,.2,1,0,2-.7,2.9.2.3,0,.8-.4.7-3.7,6.4-1.2,14.9,4.8,20.2,15.9,14.1,37.6,9.1,45.8,24,10.1-17.1,35.5-9.3,49-27.7,4.6-6.2,3.4-14.2-.4-21.3,3.7.6,4.9,3.9,7.4,5.3.3.2.7.5.5.9,6.5,7.9,5.4,18.9-2.9,25.8-18.3,15.1-38.5,6.8-53.8,18.6-8.2-6.4-17.5-7.4-27.4-8.9-18.4-2.7-37.4-12.4-33.8-29.2,1-4.8,4.5-10.3,9.4-12.3h0Z"/>
      <path class="st4" d="M377.5,83.2c.4,3.6,3.4,5.9,6.7,7.6,11.9,6.2,25.6,4.3,34,15.5,11.1-14.6,32.7-7.8,41.1-22,.7-.5,1.5,0,2.1,0l-.3,6.1c0,.2,0,.4-.2.6-2.2,3-4.3,7-8.1,9-12.1,6.2-24.8,4.8-34.4,14-9.7-10.6-24.9-7.5-35.8-15.7-5.4-4-8-9.6-7.4-15.8.6,0,1.8,0,2.3.4h0v.2Z"/>
      <path class="st4" d="M420.1,65.6v.9c-.9.9-2.5.9-3.5,1v-.9c-.4-3.4-1.1-7.2,1.6-10.7,3,2.9,1.8,6.7,1.9,9.7Z"/>
      <path class="st4" d="M405,60.7c.5,2.1,1.4,4.2,3.2,5.3v.3c.3.7.2,1.9-.6,2.2-.9.3-2.1.2-3.2-.3,0-.5-.4-1.2-1-1.5-1-1.8-1.8-3.8-2.1-6,.5-.6,1.1-2.2,2-1.5l1.8,1.4h0Z"/>
      <g>
        <path class="st1" d="M493.9,77.9c-6.2-8.7-14.9-14.7-25.3-18.7-32.7-12.7-69-12.4-102.1-1l-9.1,4.5c0,0-.1-.1-.1-.2-.4.2-.9.7-.9,1.1-.2.2-.5.4-.7.6-7.5,3.4-14.1,9.5-17.8,17.4-5.7,12.3,3.1,24.8,15,32.5,15.9,10.3,34.2,14.4,53.1,16.2,26.5,2.6,68.9-5.2,86.1-26.2,6.3-7.7,8-17.5,1.8-26.2ZM494.5,96.7c-3.4-3.7,4-3.8-1.4-12.8l-4.1-6.9c-.2-.5-.4-1.5-.4-1.8,0-.4.6-.7,1.2-.8,0,0,.2.2.2.3,5.3,6.4,7.8,14.3,4.5,22ZM470.9,61.9c7,2.6,11.5,6.7,13.1,7.6-2.6,2.1-7.7-4.6-17.3-7.3-1.5-.4-2.2-1.3-2.4-2.6l6.6,2.3ZM479.5,85.2c-.9-2.3-1.6-5.6-4.7-5.4,6.5,7.9,5.4,18.9-2.9,25.8-18.2,15.1-38.4,6.8-53.8,18.6-8.2-6.3-17.5-7.4-27.4-8.9-18.3-2.8-37.4-12.5-33.8-29.2,1-4.8,4.5-10.3,9.4-12.3h-.2c.4-.6.8-1.3,1.4-1.9-1.3.1-3.3,1.2-5.4,2.7,2.1-1.6,4.1-2.7,5.5-2.8.2,0,.5,0,.7,0,.2-.5.7-.9,1.3-.9s.5,0,.7,0c-.1-.6.4-1.3,1.1-.8h.7c.2-1.2.7-1.4,1.6-1.4s1.2,0,1.5.6c.4.7-.1,1.4-.5,1.5-.6.2-1.6,0-1.8.2-.5.7-1.6,1.8-1.7,2.7-.1.8.2,2.2-.6,3s-1.6.9-2.5,1.1c.2.3,0,.7-.4.7h0c-3.7,6.4-1.2,14.9,4.8,20.1,15.9,14.1,37.6,9.1,45.8,24,10.1-17.1,35.5-9.3,49-27.7,4.6-6.3,3.4-14.2-.4-21.3,3.7.7,4.9,3.8,7.3,5.3.4-2.8-4.1-5.9-7.7-5.8,0,0,0-.2,0-.3,3.8-.3,8.8,3,8.1,6,.4.2.7.6.5,1,3.1-.2,3.7,3.1,4.7,5.4,3.3,8-2.3,21.1-6.7,23.1l-15.2,6.8c-.7.3-1.4.6-2.2.8.6-.2,1.3-.4,1.9-.7l15.2-6.8c4.4-1.9,10-15,6.7-23.1ZM460.8,91.3c-2.1,3-4.3,7-8.1,9-12.1,6.1-24.8,4.7-34.4,14-9.7-10.6-24.9-7.6-35.8-15.7-5.3-4-7.9-9.4-7.4-15.4,0,0,0-.2.1-.3.6,0,1.6,0,2.1.3.4,3.4,3.3,5.6,6.7,7.4,11.9,6.2,25.6,4.3,34,15.5,10.9-14.3,31.8-8.1,40.5-21.1.4-.2.7-.5,1.1-.8.7-.6,1.6,0,2.1,0,1.4.3,2.7,1.4,1.8,3.6-.4.9-.8,2.1-2.1,2.6,0,.2,0,.4-.2.6.3,2.1-1.1,4.4,0,6.8.9-.4,1.6-.9,2.3-1.3-.8.6-1.7,1.1-2.7,1.6-1.1-2.3.3-4.7,0-6.8ZM418.2,55.9c3,2.9,1.9,6.7,1.9,9.7,2.4-2.2.5-10,4.3-10.5-3.1,1.1-1.5,8.3-3.8,10.4v.9c.1,2.7,2.1,3.3,4.7,3.3s.2,0,.4,0c-.3,0-.6.1-1,.1-2.7.1-4.7-.6-4.7-3.3-.9.9-2.5.9-3.5,1-.1.3-.3.5-.5.7.2-.2.3-.5.4-.7v-.9c-.7.2-1.1,0-1.1-.9,0,.7.4,1.1,1.1.9-.2-3.4-.9-7.2,1.8-10.7ZM451.1,83.6h-2.6l-.7-.2c-.3,1-1.7,1.5-3.3,1.2,1.4.1,2.5-.4,2.8-1.3-1.1.5-4.4-.1-4.6-1.9,1.9-2.8,6.5-2.9,9.5-2.9,0-.3,0-1-.2-1.4-.1-.1-.2-.2-.4-.3.4,0,.7,0,1,.4.3.4.2,1.1.2,1.4.4.4.9.9.7,1.4l-.8,1.6c.1,1.2-.5,2.1-1.6,2ZM439.2,74.5c-.7-.3-1.2-1.5-1.3-2.2.2,0,.4-.2.6-.3,0,0,0-.3.2-.4,3.3-5.8,8.5-6.4,7.8-5l-.5,1c.6.1,1.7,1,1.6,1.8-.8,6.1-11.3,6.5-7.4,9.3.2.2.6.6,1.1.8-.8,0-1.3-.6-1.7-.9-3.9-2.8,6.6-3.2,7.4-9.3-2.4,1.7-4.8,4-7.8,5.2ZM434.7,64.4c-.2.6-.3,1.1-1,1.2l-.8,1.9c-.7,1.7-2.2,4.1.1,5.3.5.2,1,.3,1.6.3-.8.1-1.6,0-2.2-.3-2.3-1.2-.8-3.6,0-5.3-.7.6-1.8,1.2-2.6,1.2-.8,0-1.3-.3-1.5-.8.2-.5.4-1.1.5-1.8v-.3c.3-.4.7-.8,1.3-1.1v-.7c-.1-.5-.4-2-.1-2.7.3-.5,1.5-.8,2.2-.5l.8-1c0-.6.4-1.3,1.1-.7h1.8l-1.1,5.3ZM424.4,71.4c11.6,2.8,18,13,15.8,17.5-1.2,2.4-13.2,2.8-21.5,10.4h0c-8.8-6.9-21.8-8.5-22.9-10.7-2.6-5.1,9.9-21.6,28.6-17.2ZM392.9,82.8c-.7,2.3-6.1.9-10.4-1.6,0-.6,0-1.2-.2-1.7,0-.1,0-.2,0-.3,6.1,0,11.4,1,10.7,3.6ZM385,84.6l7.8,1.3c.2,0,.3.2.4.4,0,0-.1,0-.2,0l-7.8-1.3c-1-.2-1.7-.7-2.1-1.3.4.5,1,.9,1.9,1ZM396.8,71.7c.2.2.4.4.6.6-.1-.1-.2-.2-.4-.4l-5.8-4.3s0,0,0,0l5.6,4.1ZM394.4,77.4c.8-.2,1.4,0,1.6.5-.3-.3-.8-.4-1.4-.3-2.5-1.1-4.5-3-5.8-4.7,1.3,1.7,3.3,3.5,5.6,4.5ZM391.3,72.3c-1.2-1.2-2.2-2.7-2.4-4.3h.2c.1,1.6,1,3.1,2.2,4.3ZM441,92.4l1.7-8.2c.2,0,.3.1.5.2l-1.7,8c-.2,0-.4,0-.5,0ZM437.9,53.2c0,.5-.1,1.2-.4,1.2l-3.5.2,3-.2c.3,0,.4-.8.3-1.3h.6ZM403.2,59.3l1.8,1.4c1.7,1.4,2.5,3.3,3.3,5.3v.3c.5,1.9,1.5,3.5,3.4,3.5-1.9,0-2.9-1.5-3.4-3.5.2.6,0,1.9-.7,2.2-.8.3-2.1.2-3.2-.3h-.1c0-.5-.4-1.1-1-1.4-2.1-.9-3.7-4.1-2.1-6,.5-.7,1.1-2.2,2-1.5ZM371,94.4c-1.8-1.9-2.9-4.8-2.9-7.6l-.4-8,.5,8.1c0,2.7,1.1,5.6,2.8,7.5ZM456.7,57.5c-.5,0-1.2,0-1.7,0-.5,0-1-.8-.9-1.5,1.2.2,2.1.2,2.6,1.5ZM403.4,52.5c-.2.3-.4.6-.4.9,0,0,0,0,0,0,0-.3.2-.7.5-.9ZM345,74.1s0,0,.1-.1c.3,2.2-.4,4.2-3,5.7-.6,0-1-.5-.9-1.1,0,0,0,0,0,0,.6-1.5,2.6-3.1,3.8-4.4ZM340.3,81.6c-.2-.2-.2-.5-.2-.8,0,.2,0,.4.2.6.3.4,1.2.9.9,1.5-.4.8-1.5.7-2,.5,0-.8.3-1.4,1.1-1.8ZM485.4,107.8c-3,3.5-7.1,6.4-11.2,8.2l-2,.9-1.9,1.1c-1.6.9-3.2,1.1-5,1.1-.4,2.3-3.2,2.2-5.1,2.8-2.3.7-4.4,1.6-6.8,1.1,0,.7-.2,1.6-.8,1.6l-1.4.2-2.8.5-2.1.5-8.9,1.4c-2.6.4-5.4,1.5-8.1.6l-1.6-.5c-.5,1.2-1.5,1.7-3.3,1.7l-17.6-.6c-3.4-.2-6.7.2-9.5-1.4-.7-.4-2.2-.1-3-.1l-8.1-1c-1.5-.2-2.2-.7-2.2-2h-4.7c-.7,0-1.4,0-1.9-.6-.3-.3-.3-.9-.3-1.4h-3.8l-2.2-.9c-1-.4-2-.5-2.9-1.1-.4-.4-1.6-.6-2.1-.9l-5.4-2.6c-1.6-.8-3.2-.9-3.3-2.7-3.4-.1-8.1-4.3-11.2-7.7-1-.6-2.3-1.3-3.1-2.2-3.5-4-6.3-14.2-3.9-18.1v-.3c-.2,11.6,7,17,3.9,18.1.9,1,2.2,1.7,3.1,2.2,0-.9,1-1.5,1.7-.9l6.9,5.2c1.4,1.1,2.6,2,2.6,3.4,0,1.7,1.7,1.9,3.3,2.7l5.4,2.6c0-.6.4-1,.7-1.2.6-.3,1.3,0,1.4.5,0,.5,0,1.1,0,1.6.9.6,1.9.7,2.9,1.1,0-.8.3-1.1.7-1.2.8-.2,1.4.2,1.5.6v1.6h3.8c.3,0,.9-.2,1.5,0,.6.2.9,1.2.6,2h4.7c2.3,0,4.5.7,7.3.9l2.3.2c.7,0,1.1,1.1.7,1.9.8,0,2.3-.3,3,0,4.6-2,10,0,11.6-1.6-1.4,1.8-7-.4-11.7,1.7,2.9,1.6,6.1,1.3,9.5,1.4l17.6.6c1.8,0,2.8-.5,3.3-1.7l-5.9-.8c2.3-3.1,5.5-5,9-6.2-3.4,1.2-6.4,3-8.7,6.1l5.9.8,1.6.5c-.9-2.3,4.1-3,8.1-.6l8.9-1.4c-.1-.5-.1-1.1,0-1.5.2-.5,1-.8,1.5-.5.6.4.7.9.6,1.5l2.8-.5c0-.3,0-1.2.2-1.5.4-.3,1.5-.4,2.1-.3,2.4.5,4.5-.4,6.8-1.1,0-2.4,3-2.8,5.1-2.8s3.4-.2,4.9-1.1v-1.6c0-.4.8-.8,1.4-.6.3,0,.6.4.6,1.1l2-.9c-.3-2.9,3.3-3.6,4.8-5,2.5-2.4,4-2.8,6.4-3.2,2.3-.4,3.9-1.6,5.2-3.2-1.3,1.7-2.9,3-5.4,3.4Z"/>
        <path class="st1" d="M474.3,78.8s0,0,0,0c0,0,0,.2,0,.2v-.2Z"/>
      </g>
      <path class="st4" d="M382.5,81.3c0-.6,0-1.3-.2-1.9,6.1,0,11.5,1,10.8,3.6-.7,2.4-6.3.9-10.6-1.7h0Z"/>
      <path class="st4" d="M373,70.9c-.5.6-1.6,1.8-1.7,2.7l-2.5,1.2c-.8,0-1.7-.3-2.5-1,.4-.6.8-1.3,1.4-1.9.2,0,.5,0,.7,0l1.3-.9h.7l1.1-.9h.7c0,0,.8,1,.8,1h0Z"/>
      <path class="st1" d="M373,70.9l-.8-.8c.2-1.2.8-1.4,1.6-1.4s1.1,0,1.5.6c.4.7-.2,1.4-.5,1.5-.5.2-1.5,0-1.8.2h0Z"/>
      <path class="st1" d="M368.2,77.7c.6-.9.8-1.9.7-2.9l2.5-1.2c-.1.8.2,2.2-.6,3-.5.5-1.6.9-2.5,1.1h-.1Z"/>
      <path class="st1" d="M403.4,66.7c-2.1-1-3.8-4.1-2.1-6,.3,2.2,1.1,4.2,2.1,6Z"/>
      <path class="st1" d="M408.2,66c-1.8-1.2-2.7-3.2-3.2-5.3,1.7,1.4,2.5,3.3,3.2,5.3Z"/>
      <path class="st1" d="M368.3,71.8c.1-.6.7-.9,1.3-.9l-1.3.9Z"/>
      <path class="st1" d="M370.3,70.8c-.1-.6.4-1.2,1.1-.9l-1.1.9Z"/>
      <path class="st1" d="M484.3,69.3c-2.5,2.8-7.7-4.2-17.6-7-1.6-.5-2.4-1.6-2.4-3.1l6.8,2.4c7.2,2.6,11.6,6.9,13.2,7.6h0Z"/>
      <path class="st1" d="M456.9,57.5c-.5,0-1.4.2-2,0-.6,0-1.1-1-.8-1.8,1.3.2,2.3.2,2.8,1.8Z"/>
      <path class="st4" d="M434.1,64.4l-1,1.2-.8,1.9c-.7.6-1.8,1.2-2.6,1.2-1.5,0-1.9-1.4-1.6-2.5v-.3c.7,0,1.2-.5,1.3-1.1v-.7c1.1-.8,1.8-2,2.1-3.2l.8-1,1.1-.9h1.8c0,0-1.1,5.4-1.1,5.4h0Z"/>
      <path class="st4" d="M452.4,78.7c.4.3,1,.9.7,1.4l-.8,1.6c-1.6,0-3.2.7-4.1,2l-.7-.2c-1.1.5-4.4,0-4.6-1.9,1.9-2.8,6.5-2.9,9.5-2.9h0Z"/>
      <path class="st4" d="M445.5,67.7c.6,0,1.7,1,1.6,1.8-2.4,1.7-4.8,4-7.8,5.2-.8-.3-1.4-2-1.3-2.5,0,0,0-.3.2-.4,2.1-1.5,4.4-4,7.3-4h0Z"/>
      <path class="st1" d="M461.1,90.6l.3-6.1c1.5.3,2.7,1.4,1.8,3.6-.4.9-.8,2-2.1,2.5h0Z"/>
      <path class="st1" d="M445.5,67.7c-2.9,0-5.1,2.5-7.3,4,3.3-5.9,8.5-6.5,7.8-5.1l-.5,1h0Z"/>
      <path class="st1" d="M452.4,81.7c.1,1.2-.5,2.2-1.6,2.1h-2.6c1-1.4,2.5-2,4.1-2.1h.1Z"/>
      <path class="st1" d="M431.5,60.9c-.3,1.3-1,2.4-2,3.2-.2-.5-.4-2-.1-2.7.2-.6,1.4-.9,2.1-.5Z"/>
      <path class="st1" d="M433.1,65.6l1-1.2c-.1.6-.3,1.1-1,1.2Z"/>
      <path class="st1" d="M428.2,65.9c.3-.5.7-.8,1.2-1.1,0,.6-.6,1-1.2,1.1Z"/>
      <path class="st1" d="M432.3,59.8c-.1-.6.3-1.3,1.1-.9l-1.1.9Z"/>
      <path class="st4" d="M418.7,99.3c-8.8-6.9-21.8-8.4-22.9-10.6-2.6-5.2,9.9-21.7,28.6-17.2,11.6,2.8,18.1,13,15.8,17.5-1.2,2.4-13.1,2.9-21.5,10.4h0Z"/>
      <path class="st3" d="M87.4,94.4l8.6,6,2.3-16.2,2.4,16.3,10.3-6-6.4,8.9,11.9,2.2-12.6,2.2,5.1,8.9-8-5.4-2.6,15.7-2.5-16.2c-2.9,1.6-4.9,3.9-8.8,4.6l5.7-7.8-13.4-2.3,13.4-1.9-5.5-8.3c-.2-.3-.4-.4-.6-.5-.4-.2-.3-.8.2-.8l.5.5h0Z"/>
      <path class="st3" d="M319.6,251.5c-.5,1.2-.8,2.6-1.5,4.1v2.1c-3.6,4.1-4.7,8.3-6.8,13.1l-80.8,186.9c-1.8,2.8-6.5,1.1-8.4,0-1.7-.9-5.8-3.4-4.3-6.5l85.5-181.9,6.7-12.9,2.4-6.5,9.7-20.5c1-2.1,2.7-2.9,4.1-2.4,1.8.5,2.8,2.6,2,4.4l-8.5,20.2h-.1Z"/>
      <path class="st3" d="M307.4,248.8c-1.8,3.7-3.9,6.9-5.8,11.2l-3,6.8-87.9,182.1c-2.9,3.2-13.1-2.2-12-6.6l40.9-79.6,50.7-97,3.9-8.3,6.1-10.6,11.9-22.3c.9-1.7,2.7-2,3.8-1.7,1.5.5,2.6,2.5,1.8,4.2l-10.4,21.7h0Z"/>
      <g>
        <path class="st0" d="M333.2,254.1c-3.7-2.8-9.4-2.2-13.5-2.9-.4.4-6.3,13-8.4,19.6,5.5,2.2,10.7,3.3,16.4,3.5l6.4-10c1.4-2.2,1.6-8.4-.8-10.2h-.1Z"/>
        <path class="st0" d="M300.2,246.9l-12-5.5c-2.3,3.5-4.4,6.2-5.7,9.5h0c-1.4,3.6-1.3,7.8-.5,12l8.2,2.9"/>
        <path class="st0" d="M307.4,248.8c-1.8,3.7-3.9,6.9-5.8,11.2l-3,6.8c1.4,1.5,2.9,2.1,4.7,2.4l6.7-12.9,2.3-6.5-4.9-1h0Z"/>
      </g>
      <path class="st4" d="M263.6,276.7c1.4,4.1-1.1,6.9-2.9,10.5-11.5,23.4-29.5,42.6-52.8,53.9-34.8,16.8-76,16.5-110.8,0-22-10.5-38.9-28.6-50.7-50.2-2.5-4.5-5.7-8.7-6.2-13.5,28.8,15.6,60.3,24.8,93.7,26.6l41.6-.2c31.8-1.9,61.3-11.3,88.1-27.1h0Z"/>
      <path class="st4" d="M261.8,263.6l-.9,1.3c-.4.5-1,.4-1.2,0-.1-.3,0-1.6.3-1.6l1.8.3h0Z"/>
      <path class="st4" d="M270.6,252.9c1,0,1.9.3,1.9,1.3,0,2.7-1.3,4.5-3.6,5.1-.8.2-1,.6-.4,1.1l1.1,1c.6,3.9-.8,7.6-2.3,11.1-27.7,17.5-59.3,27.3-92.6,29.5h-41.7c-33.6-1.9-65.1-11.6-93.9-27.8-2.4-4.1-3.1-9.4-4.9-13.8.7.4,1.8,0,1.8-.5,0-1.2-.7-1.7-1.1-2-.4-.3-1.2-.5-1.6.2-.8-1.9-.7-3.8-1.2-5.7l26.4,14.5c46.4,20.2,101.9,22.7,151.1,12.2,22.5-4.8,42.6-13.5,61-26.1h0ZM40.5,264.4c1.1-2.2,0-3-1-4.2-.6-.6-1.9-1.8-2.8,0l3.8,4.1h0ZM261.9,262c-.8.3-1.8.5-1.9,1.3l-4.2,7.6c-.3.3-2-.2-2.4,0s-.8,1-.6,1.7c-2.3,0-3.5,1.3-5.2,2.4-.3.2-.6.5-.7.8,1.2.9,2.7,2,4.3,2.1,2,.1,3.1-1.5,4.1-2.9,2-2.7,2.9-5.9,4.1-9.2,1.8,2,.7,3.6.9,4.4,1.3,0,1.9-.5,2.1-.8.4-.7-1.1-2.5-.7-3.5.2-.5,1.2-.9,2.5.1l-.6-5.4c0-.7-1.6-.3-1.5.3,0,.3,0,.9-.2,1.2h0ZM49.6,274.6c-2-1.6-2.6-4-.9-5.9.7,2.4.6,3.9,3,4.8-.8-3.1-1.9-6.1-4.1-9.1l-6.4,1.3c-1.7.3-1.4,1.8-.8,2.6.7.9,1.7,1.9,2.7,1,.5-.5.6-1.6,1.9-2,0,3.7,1.5,7.1,4.3,8.2l.3-.9h0ZM66.6,275.9c1.6.9,2.2-1.5.5-1.9-2.9,2.8-8.7,2.1-9.2,1.8-.5-.4-.8-1.8-.9-2.9-2.7-.3-4.5,2.1-5.8,5.1,1.8,1.4,4.5-.3,6.8-.4,2.9-.2,5.3.2,8.5-1.7h0ZM227.1,278.3c-1,.7-2.4.8-3.5,2.9l-1.9,3.7c-1.7-.6-3.8-.4-3.8,1.5h-1c-1.9-1.1-3.9-.5-6.3.8-2-.6-1.9,2,0,1.5l2.6-.3c.9-.1-.8,2.6-.5,2.7,1.2.7,2.4-1.1,3.1-1.4.6-.2.9,1,1.8,1.1,5-.6,4.7-7.4,9.2-10.4v1.5c0,.5.7.6,1,.2.2-.4.6-1.3,1-1.3,2.7-.2,4.9-1.5,8.1-2.6-.7,2.2-.7,3.6.8,4.4,0-1.7-.1-3.3.3-4.1.4-.7,1.9-1.3,3.4-1.6-.4-1.4-1.1-1.5-1.9-2.1,2.9-.6,4.8.3,6.7.8l.9-.7c-2.7-2.5-12.4-2.7-14.7,2.6-1.8.1-4.1.1-5.5,1.1h0l.2-.3ZM50.6,275.1l-.3,1.2c.9.2,1.2-.9.3-1.2ZM87.4,284.5c-1.9-3.1-6.2-5.7-9.9-7.2-1,1.6-2.1,2.7-3.7,2.4.9,1.5,2.1.9,2.8,1.2.8.3-1.8,2.1-1.7,2.6.4,1.6,3.6,3.2,4.9,2-.8-2.1,1.5-2.5,1.4-.6.2,1.2.9,2.1,1.4,2.4.8.6,2-.5,1.2-1.4l-.6-.6c-.8-.4,1.5.3,0-1.6.5,1.3,1,1.6,1.1,1.7l1.8.4,1.2-1.2h0ZM198.9,287.3c.5,1.3,1.2,2.4,2.5,4l3-3,.5-.5c-.3-.4-1-1.2-1-1.6.5-2.7-2.1-1.8-7.2.2,0,1.1,1.5,1.5,2.2,1h0ZM87.6,284.9l-.7.9c0,1,.5,2,1.4,2.5l.7-.5-1.4-2.9h0ZM188,288.2l5-2.5c-1.7-.7-4,.6-5,2.5ZM206.6,285.8h-.6,1.9-1.4,0ZM93.9,290.4v-2.1c.2-1.1-1.2-1.1-1,0-1,1-2.3.8-3.5,0l-.6.6c.7.2,1,1.2.7,1.5-.6.5-1.5,1.1-1.6,1.9,2.7.6,3.5-1.4,5-2,2.7,5.1,6.4-2.8,11.1-.4-1.6,2.1-.4,3.5,1.3,2.2.7-1.4,2-2.6,3.1-2.6s2.1,1.2,2.8,1.9l.7-.6,5.6-1.4c-.2,1,0,2,.3,2.3l2.2.5c0,1,.8.8.9,0l4.5,2c1.8.8,2,3.2,4,4.1,1.9.8,4.6,2.1,5.5-.9,1.7.8,3.3.6,4.6,0,2.2-1.1,2.7-2.3,1.9-4.4-1.8,4.1-5.3,0-7.7,2.4-1.5,0-2.9-.5-3.9-2-1.2-1.8-3.4-2.2-5-3-1-1.7-3.9-4.4-5.9-3.9-7.4,4.4-13.7-4-22.5,3.5-.7.6-1.9.5-2.5.4h0ZM146.4,294.8c.9.3,2.7.7,2.9.3,1-3.2,2.7-2.1,3.4-3.5s.1-1.9-1.1-2.4c-1.1-.5-1.7-1.7-3.2.4,1.7.3,2.6.5,3.2,2.1-3.4-.4-5.5,1.6-5.2,3.2h0ZM163.4,293.1c3.5,4.6,9.6,7.9,16.3,4.9-7.3-1.7-12.8-5.1-18.9-10.2l-3.4,5.6c2.3.3,2.9-.8,4.6-1.3-.7,2.2-1.9,2.5-3.3,4,2.4.4,3.4-1.2,4.7-3h0ZM186.4,288.3v1.9-1.9h0ZM205.1,289l1.5-.2c-1.7-1.3-1.3.4-1.5.2ZM184.4,290.3l-.5.5.5.5.5-.5-.5-.5ZM208.4,290.3l-.5.5.5.5.5-.5-.5-.5ZM112.3,292.4l.7-.6c-.7-1-1.7,0-.7.6ZM210.4,291.3l-.5.5.5.5.5-.5-.5-.5ZM182.2,292.5c-.6.5-.4,2.4.3,2.6.2,0,2-1.4,1.5-2.4-.2-.5-1.1-.9-1.8-.3h0ZM111.4,293.3l-.5.5.5.5.5-.5-.5-.5ZM179.6,295.8h-.6,1.9-1.4,0Z"/>
      <path class="st4" d="M261.8,263.6c.3-.5.1-1.2.1-1.6,1.6-.8,2.3,1.4-.1,1.6Z"/>
      <path class="st4" d="M40.9,239.8l6.3,5.4c14.8,9,30.5,15.3,47.9,19.1,41.2,8.9,83.6,8.1,124.3-2.4,16-4.1,30-10.6,43.1-20,2-1.5,2.2-2.5,2.5-4.8,2.4.8,4.3-.9,5.7-3.1l6.3-9.9c1.4,1.6,1,3.7.6,5.7l-3.6,17.3c-46.7,37-121.3,42-178.4,29.6-18.4-4-35.2-10.5-51.4-19.7l-13.3-8.8-4-25.1c1.2,0,1.7.7,2.2,1.8,2.6,6.3,7.2,10.8,11.8,14.7h0v.2Z"/>
      <path class="st4" d="M109.7,162.5c-7.2,2.9-12.7,4.3-14,13.8-5.3-.1-10.2.3-14.1,3.7-3.4,2.9-3,8.2-4,11.9l-11.6,4.1c-10.1,3.6-8,10.4-9.1,11.7-1.3,1.6-5.3-.4-8,2-4.1,3.7,1.5,12.4-4.7,15.7-1.9,1-3.8,1.3-4.5,3.2-1.9,4.9,3.4,7.4,1.3,11.2-4.6-4-9.2-8.5-11.8-14.7-.5-1.1-.9-1.8-2.2-1.8-1.5-9.5-.2-18.5,6.5-26.6,17.3-20.8,50.8-30.8,76.3-34.1h-.1Z"/>
      <path class="st4" d="M207.9,341.1c-.2,22.1-32.6,28.3-54,28.3s-54.7-5-56.8-28.4c34.8,16.6,76,16.9,110.8,0h0Z"/>
      <path class="st4" d="M277,224.2l-6.3,9.9c-1.4,2.2-3.4,3.8-5.7,3.1l1.3-7.8c.6-3.4-1.6-5.8-4.9-6.6-4-1,.9-6.7-2-11.3-1.3-2.1-3.8-3.9-6.5-4.1-.3-5.1-4.1-8.5-8-7.6.4-7.2-6.4-12.8-13-11.7-2.8-1.1-6.3-3.7-10.1-4.3-1.1-5.6-3.6-10.1-7.6-12.2-9.8-5.2-15.3,3.7-19.5-1.3-.1-2.7-.9-5.4-1.9-7.8,25.6,3,60.7,12.9,77.6,32.3,7.5,8.6,10.3,19.3,6.6,29.5h0Z"/>
      <path class="st3" d="M270.6,252.9c-18.4,12.6-38.5,21.2-61,26.1-49.2,10.6-104.7,8.1-151.1-12.2l-26.4-14.5-1.1-3.9,13.3,8.8c16.1,9.2,32.9,15.7,51.4,19.7,57.1,12.4,131.8,7.4,178.4-29.6-.5,2.6-1.3,4.1-3.4,5.6h0Z"/>
      <path class="st3" d="M267.3,272.4c-.9,2.1-1.9,3.3-3.7,4.3-26.9,15.8-56.4,25.2-88.1,27.1l-41.6.2c-33.4-1.8-64.9-11-93.7-26.6,0-.9-.7-2.5-1.1-3.3,28.8,16.3,60.3,25.9,93.9,27.9h41.7c33.3-2.2,64.9-12,92.6-29.5h0Z"/>
      <path class="st1" d="M34.2,260.2l-.9-2.3c.4-.7,1.2-.6,1.6-.2.4.4,1.2.8,1.1,2,0,.5-1.1.9-1.8.5Z"/>
      <path class="st1" d="M269.6,261.3l-1.1-1c-.6-.5-.4-.9.4-1.1.5,0,1.2-.2,1.6-.1.4,0,.8,1,.4,1.5-.3.3-.7.6-1.2.7h0Z"/>
      <path class="st5" d="M65.9,196c-2.5,3.9-2.8,8.2-2.9,13.1l-7.8,5.4c-4.1,2.8-5.9,7.6-4.8,12.7.9,3.9,4.5,7.1,8.7,8.8-.2.9-.3,2.1-1.4,3.2-1.7,1.8-.7,7,2.4,6.5,1.8-.3,3.8-3.4,7-2.5.7.2,1.2-1.9.6-2.3-3.4-2.2-6.1-2-6.6-4.2,12.5,3,23.4-9.7,29.7,1.7,3.4,6.2,10.6,7.8,17.6,6l11.4-2.9-3.4,5.9c2.3,3.2,5.4,1,7.9-.8l4.8.4c1.1,0,2-1.9,3-3.2,3.7,1.5,6.9,4.1,10.3,6.7,9.6,7.4,21.6,7.1,30.2-2,3.5-3.7,6.6-8.5,12.4-9.6,2.8-.5,5.3,1.1,7.6,2.5,6.2,3.8,15.2,4.9,19.5-1.2l7-9.9c2.7-3.8,7.7-4.5,11.6-2.1,5.4,3.3,10.9,1.9,15.5-1.8,5.6-4.6,8-11.3,5.2-18l1.5-1.2c2.7.2,5.2,2,6.5,4.1,2.9,4.6-1.9,10.4,2,11.3,3.3.8,5.5,3.2,4.9,6.6l-1.3,7.8c-.4,2.2-.5,3.3-2.5,4.8-13.1,9.4-27.1,15.9-43.1,20-40.8,10.5-83.2,11.2-124.3,2.4-17.4-3.7-33.1-10.1-47.9-19.1l-6.3-5.4c2.1-3.8-3.2-6.3-1.3-11.2.7-1.8,2.6-2.1,4.5-3.2,6.2-3.4.6-12,4.7-15.7,2.8-2.5,6.7-.4,8-2,1.1-1.3-1-8.1,9.1-11.7h0ZM256.9,235.5c.7-1.4.3-2.7-.5-3.2-1.7-1.1-5.3,2.9-6.9,2.1l-3.7-2c-3.5,0-6.8,5.4-5.2,7.8,2.1,1.3,4.7-1.5,6.1-1.6,3.3,1.2,7.9,1.1,10.2-3.1h0ZM76.8,239.3c-.5-.9-2.5-2.7-3.6-1.8-3,2.6-1.6,9.8,2.6,9.7,2.2,0,4.3-2.1,6.3-1.4,2,.7,3.3-1,3.3-2.1,0-5-6.5-.7-8.5-4.5h-.1ZM224.5,239c-1.2-3.1-4.2-.8-5.3.3-1.4,1.6-3.1,5.2-.2,6.1,2.2.6,6.4-3.9,5.4-6.4h.1ZM186.8,251c.9-1.5.8-2.1.6-2.8-.5-2.2-9.2.8-8.6,4,.7,3.2,6.5,1,7.9-1.2h.1ZM110.4,254.4c1.4-4-7.6-8.5-9.4-4.9-2.1,4.1,8.1,8.6,9.4,4.9ZM94.7,257.3c.9-2.8-5.2-7.5-7.2-5.8-2.2,1.8.5,4.7,1.7,5.8,1.1,1,4.3,3.5,5.5,0ZM205.6,255.1c-.8-3.4-5.2-2-7-.8-1.7,1.1-4.2,3.9-1.8,6.3s9.7-1.6,8.8-5.5ZM144.1,260.6c-1.7-1.2-4.1,0-5,1.3-.7.9-1.5,3.2,0,4.2,1.7,1.1,3.8-.4,4.7-1.3.8-.8,2.1-2.9.3-4.1h0Z"/>
      <path class="st4" d="M132.1,243.9c-1,1.3-1.9,3.3-3,3.2l-4.8-.4c-2.5,1.8-5.6,4-7.9.8l3.4-5.9c4.3-1.1,8.2.6,12.3,2.2h0Z"/>
      <path class="st4" d="M61.1,236.8c.6,2.2,3.3,1.9,6.7,4.2.5.4,0,2.5-.6,2.3-3.2-.9-5.2,2.2-7,2.5-3.1.5-4.1-4.7-2.4-6.5,1-1.1,1.1-2.3,1.4-3.2l2,.8h0Z"/>
      <path class="st0" d="M175.8,160.7c1.1.7,2.5,2.1,3.4,4.1-3.3.3-7.4,2.2-8,5.8-.5,3.2,4.3,5.2,6.9,4.1,3.5-1.4,5.7.9,8.8,1.8,2.3.7-.2-5.6.4-6.4,1.3-1.8,3.8.4,7.3,0,4.2,5,9.7-3.9,19.5,1.3,3.9,2.1,6.5,6.7,7.6,12.2,3.7.6,7.3,3.2,10.1,4.3l3.7,9.7c1.1,2.7,6.1,1.8,8.1,2.8,3.3,1.7,6.4,4.7,7.8,8,2.7,6.7.4,13.5-5.2,18-4.6,3.8-10.1,5.1-15.5,1.8-3.9-2.4-8.9-1.7-11.6,2.1l-7,9.9c-4.3,6.1-13.3,5-19.5,1.2-2.3-1.4-4.8-3-7.6-2.5-5.8,1.1-8.9,5.8-12.4,9.6-8.5,9.1-20.5,9.3-30.2,2-3.4-2.6-6.7-5.2-10.3-6.7-4.1-1.7-8-3.3-12.3-2.2l-11.4,2.9c-7,1.8-14.2.2-17.6-6-6.3-11.4-17.2,1.3-29.7-1.7l-2-.8c-4.2-1.7-7.8-4.9-8.7-8.8-1.1-5.1.7-9.9,4.8-12.7l7.8-5.4c.2-4.9.4-9.2,2.9-13.1l11.6-4.1c1-3.7.7-9,4-11.9,3.9-3.4,8.8-3.8,14.1-3.7,1.3-9.5,6.7-10.9,14-13.8,1.2,1.5,3,.7,4.1.8h2.1c1.4,1.6,3.5,5.5,6.1,5.8l12.9-2.6c1.5-.3,2.5-1.9,2.8-2.8.7-2.6-2.2-3.6-2.9-6,2.3-2.4,5.2-5.6,9.1-6.2,5.9-1,10.7,2.5,15.1,6l9.7-.7c2.8-.2,5,2.8,7.1,4.1h0v-.2ZM161.3,178.7c2.8-1,4-3.2,3.7-5.8-.5-4.1-8.5-8.2-11.2-5.8-8.8,7.7-19.4,6.9-20.3,15.3,5-.2,8.8.6,12.8,2.6,6.6,3.3,7.7-3.7,15-6.4h0ZM133,191.3c1.8-1.4,1.5-7.1-.3-7.5-2.7-.6-5.4-2.9-7.1-4.1-4.8-.3-8.6-.4-12.5-3.8-2.8-2.4-7.1-.5-8.7,1.6-2.1,2.7-2.4,7.2,0,8.9,3,2.1,5.6-.9,7.8-1.3,7.7-1.2,15.3,8.3,20.7,6.2h0ZM211.6,190.6c2.4,2.8,5.5,2.9,7.6.5,1.9-2.3,2-5.1-1-7-4.4-2.7-8.8-.3-12.3,3.1,2.8.4,4.3,1.6,5.8,3.4h-.1ZM185.3,190.2c.1-2.8-3-7.7-5.8-5.5-3.2,2.5-5,4.6-9.7,3.9-1.7-.3-3.8,1.7-4.3,2.9-.5,1.6.3,3.1,1,3.9,1.1,1.2,3.4,1.5,4.9.6,7.4-4.5,13.3,4,13.8-5.8h.1ZM95.8,192.6c-4-2.3-10-2.1-12.8,2.1-1.2,1.8,1.4,4.1,2.7,4.5,2.6.8,9.2-2.9,10.1-6.6h0ZM150,207.8c1.5,1,4.6-3.5,4-5.5-1.2-4.2-5.7-7.5-9.8-7.2-2.5.2-4.1,2.1-4.4,3.8-.2,1.4,1,3.1,2.5,4l7.6,4.9h0ZM191.4,215.4c.5-1.8.3-4.4-1.7-6l-5.6-4.3c-1.9-1.4-3.3-2.7-5.6-2.5-1.5.2-2.2,2.8-3.6,3.8-5,3.6-8.1,9-6.6,15.5.3,1.5,2.1,2.4,3.1,2.5s2.5-.2,3.2-1.3c5.3-8,15-1.2,16.7-7.7h.1ZM219.2,220.2c1.6.4,3.3.6,4.7-.3,1.1-.7,5.2-8.4,2.2-13.6-1.3-2.3-5.8-5.8-8.2-3.2s-2.8,6.1-6.8,7.4c-1.3.4-2.1,2.4-2.4,3.4-.2,1.1.2,3.6,1.6,3.9l8.9,2.3h0ZM85.3,215.8c0-1.3-1.1-3.6-2.6-4.1-3.9-1.3-4.4-5-6.7-7.4-2.4-2.5-6.5.4-7.8,2.6-5,8.5,2,8,5.9,18.2,4,.4,11.1-5.8,11.3-9.4h-.1ZM120.5,216.3l8-4c-1.6-4.9-7.1-7.6-11.9-6.5-4.3.9-7.1-.8-11.2-1.9-3.1-.8-8.3,6.6-5.6,8.5l8.3,5.7c2.3,1.6,4.5,2.7,7,2.1,1.8-.5,3-2.7,5.4-3.9h0ZM163.1,236.9c1-1.1,1.2-2.6,0-3.8-3.1-3.2-1.6-7.9-4.9-8.8-4-1.1-4.6,4.1-11.6,1.3-2.1-.8-3.6,2.7-3.7,4.2,0,3.4,6.1,8.8,7.8,8.2,8.9-3,9.9,1.6,12.3-1.2h0Z"/>
      <path class="st7" d="M192.8,162.4c1,2.4,1.8,5.1,1.9,7.8-3.5.3-5.9-1.9-7.3,0-.6.8,1.9,7.1-.4,6.4-3.1-.9-5.3-3.2-8.8-1.8-2.6,1.1-7.4-.8-6.9-4.1.6-3.6,4.7-5.5,8-5.8-.9-2-2.3-3.4-3.4-4.1-.1-3.7,2.3-5,5.3-5.7,5.4-1.3,10.7,5,11.7,7.4h-.1Z"/>
      <path class="st7" d="M134.8,157.5c.7,2.5,3.6,3.4,2.9,6.1-.2.9-1.3,2.5-2.8,2.8l-12.9,2.6c-2.6-.2-4.6-4.2-6-5.8-.3-.8,0-1.7,0-2.2.4-2.3,1.5-4.5,2.7-5.5,4.3-3.5,9.6,1.6,16.1,2h0Z"/>
      <path class="st4" d="M116,161c0,.5-.3,1.5,0,2.2h-2.1c0-.6.2-1.4.7-1.7.4-.2,1-.2,1.5-.5h0Z"/>
      <path class="st7" d="M161.3,178.7c-7.3,2.7-8.5,9.7-15,6.4-3.9-2-7.7-2.9-12.8-2.6.9-8.4,11.5-7.7,20.3-15.3,2.7-2.4,10.7,1.7,11.2,5.8.3,2.6-.9,4.7-3.7,5.8h0Z"/>
      <path class="st7" d="M191.4,215.4c-1.7,6.5-11.4-.3-16.7,7.7-.7,1.1-2.2,1.5-3.2,1.3-1-.1-2.7-1.1-3.1-2.5-1.5-6.5,1.5-11.9,6.6-15.5,1.4-1,2.1-3.6,3.6-3.8,2.3-.2,3.7,1.1,5.6,2.5l5.6,4.3c2,1.6,2.2,4.1,1.7,6h-.1Z"/>
      <path class="st7" d="M120.5,216.3c-2.4,1.2-3.6,3.4-5.4,3.9-2.5.6-4.7-.6-7-2.1l-8.3-5.7c-2.7-1.9,2.5-9.3,5.6-8.5,4.2,1.1,6.9,2.8,11.2,1.9,4.8-1.1,10.3,1.6,11.9,6.5l-8,4h0Z"/>
      <path class="st7" d="M133,191.3c-5.4,2.1-13-7.4-20.7-6.2-2.3.4-4.8,3.4-7.8,1.3-2.4-1.7-2.1-6.2,0-8.9,1.6-2.1,5.9-4,8.7-1.6,3.8,3.4,7.7,3.5,12.5,3.8,1.7,1.2,4.4,3.4,7.1,4.1,1.8.4,2.2,6.1.3,7.5h-.1Z"/>
      <path class="st7" d="M85.3,215.8c0,3.6-7.2,9.8-11.3,9.4-3.9-10.2-10.8-9.7-5.9-18.2,1.3-2.2,5.4-5.1,7.8-2.6,2.3,2.3,2.8,6.1,6.7,7.4,1.5.5,2.6,2.8,2.6,4.1h.1Z"/>
      <path class="st7" d="M219.2,220.2l-8.9-2.3c-1.5-.4-1.9-2.9-1.7-3.9s1.1-3,2.4-3.4c4-1.4,4.5-4.9,6.8-7.4s6.9.9,8.2,3.2c3.1,5.2-1.1,12.9-2.2,13.6-1.4.9-3.1.7-4.7.3h0Z"/>
      <path class="st7" d="M163.1,236.9c-2.5,2.8-3.5-1.8-12.3,1.1-1.6.6-7.8-4.8-7.8-8.2s1.5-5.1,3.7-4.2c7.1,2.8,7.7-2.4,11.6-1.3,3.3.9,1.8,5.6,4.9,8.8,1.2,1.2.9,2.7,0,3.8h0Z"/>
      <path class="st7" d="M185.3,190.2c-.5,9.8-6.4,1.2-13.8,5.8-1.5.9-3.8.6-4.9-.6-.8-.8-1.6-2.4-1-4,.4-1.2,2.6-3.2,4.3-2.9,4.7.8,6.5-1.4,9.7-3.9,2.7-2.1,5.9,2.7,5.8,5.5h-.1Z"/>
      <path class="st7" d="M150,207.8l-7.6-4.9c-1.5-1-2.7-2.6-2.5-4,.3-1.7,1.8-3.6,4.4-3.8,4.2-.3,8.6,3.1,9.8,7.2.6,1.9-2.5,6.4-4,5.5h0Z"/>
      <path class="st5" d="M244.9,199.7c-.4,0-.8.5-1.2.8-2.1-1.1-7.1,0-8.1-2.8l-3.7-9.7c6.6-1.1,13.5,4.5,13,11.7h0Z"/>
      <path class="st7" d="M211.6,190.6c-1.5-1.7-3-2.9-5.8-3.4,3.5-3.4,7.9-5.8,12.3-3.1,3,1.9,3,4.7,1,7-2.1,2.4-5.1,2.3-7.6-.5h.1Z"/>
      <path class="st7" d="M95.8,192.6c-.9,3.7-7.5,7.4-10.1,6.6-1.4-.4-3.9-2.8-2.7-4.5,2.8-4.1,8.8-4.3,12.8-2.1h0Z"/>
      <path class="st4" d="M252.9,207.4l-1.5,1.2c-1.3-3.3-4.5-6.3-7.8-8,.4-.4.9-.8,1.2-.8,4-.9,7.7,2.5,8,7.6h.1Z"/>
      <path class="st1" d="M119,286.5l-.2.8c1.4,1.4.2,3.1-.9,4.4-.3-.4-.4-1.3-.3-2.3l-5.6,1.4,1.1,1c-.7-1-1.7,0-.7.6l-1.1-1c-.7-.7-1.9-1.9-2.8-1.9s-2.4,1.2-3.1,2.6c-1.7,1.3-3-.1-1.4-2.2-4.7-2.4-8.4,5.6-11.1.4h1c.6.1,1.8.3,2.6-.3,8.8-7.5,15.1.9,22.5-3.5h0Z"/>
      <path class="st4" d="M124.9,290.4c1.5.8,3.7,1.2,5,3,1.1,1.5,2.5,2.1,3.9,2l1.2,2c-.9,3-3.6,1.7-5.5.9-2-.8-2.2-3.2-4-4.1l-4.5-2h-.9l-2.2-.5c1.1-1.2,2.3-2.9.9-4.4l6.1,3.1h0Z"/>
      <path class="st1" d="M163.4,293.1c-1.3,1.8-2.3,3.4-4.7,3,1.4-1.5,2.6-1.8,3.3-4-1.7.6-2.3,1.6-4.6,1.4l3.4-5.6c6.1,5.1,11.5,8.5,18.9,10.2-6.7,3-12.8-.3-16.3-4.9h0Z"/>
      <path class="st1" d="M92.9,288.3h1v2.1h-1c-1.6.5-2.3,2.5-5,1.9,0-.8,1-1.4,1.6-1.9.4-.3,0-1.3-.7-1.5,0-.2-.3-.4-.5-.5-.9-.5-1.4-1.5-1.4-2.5h-.7l-1.8-.5-.6.5c.7,1-.4,2-1.2,1.4-.5-.4-1.1-1.2-1.4-2.4,0-1.9-2.2-1.6-1.4.6-1.3,1.3-4.5-.3-4.9-2,0-.5,2.5-2.2,1.7-2.6-.7-.3-1.9.3-2.8-1.2,1.6.3,2.8-.8,3.7-2.4,3.7,1.5,7.9,4.1,9.9,7.2l.3.4,1.4,2.9c0,.2.3.3.5.4,1.1.8,2.5,1,3.5,0h-.2ZM83.3,285.2c-.8-.4,1.5.3,0-1.7v1.7Z"/>
      <path class="st1" d="M252.9,272.6c1.1.2,1.9,1.2,2.5,2.4-1,1.4-2.2,3-4.1,2.9-1.6-.1-3.1-1.1-4.3-2.1l-.6-.5c-1.9-.4-3.8-1.4-6.7-.8.8.6,1.5.8,1.9,2.1-1.6.4-3,.9-3.4,1.6-.5.8-.3,2.4-.3,4.1-1.5-.9-1.5-2.3-.8-4.5-3.2,1.1-5.4,2.5-8.1,2.6-.6-.4-1.3-.4-2-.4l.2-2c1.4-.9,3.7-.9,5.5-1,2.3-5.3,12-5.1,14.7-2.6l.4.4c1.7-1.1,2.9-2.5,5.2-2.4h0v.2Z"/>
      <path class="st1" d="M49.3,275.5c-2.8-1.1-4.3-4.5-4.3-8.2-1.3.5-1.4,1.6-1.9,2-1,.9-2,0-2.7-1-.6-.8-.9-2.2.8-2.6l6.3-1.3c2.2,3,3.3,6.1,4.1,9.1-2.4-1-2.3-2.5-3-4.8-1.7,1.9-1.1,4.3.9,5.9.4.3.7.5,1,.5.9.3.6,1.4-.3,1.2-.5-.6-.8-.9-1-.9h.1ZM46,267c-.7,1.1.7,1.7,1.3,1.4.3-.2.6-.5.2-1.1-.2-.3-.9-1.4-1.6-.3h0Z"/>
      <path class="st1" d="M255.4,275c-.6-1.2-1.4-2.2-2.5-2.4-.2-.8.2-1.5.6-1.7.4-.2,2.1.3,2.4,0l4.2-7.6c-.3,0-.5,1.3-.3,1.6.2.5.9.6,1.2,0l.9-1.3c2.4-.2,1.7-2.4.1-1.6.1-.3.2-.8.2-1.2,0-.6,1.4-1,1.5-.3l.6,5.4c-1.3-1-2.3-.6-2.5-.1-.4,1,1.1,2.9.7,3.5-.2.3-.8.7-2.1.8-.2-.8.9-2.5-.9-4.4-1.1,3.3-2,6.5-4.1,9.2h0Z"/>
      <path class="st1" d="M261.9,262c0,.3.2,1.1-.1,1.6l-1.8-.3c0-.8,1.1-1,1.9-1.3h0Z"/>
      <path class="st1" d="M66.6,275.9c-3.2,1.8-5.6,1.5-8.5,1.7-2.4.1-5,1.8-6.8.4,1.3-3.1,3.1-5.4,5.8-5.1,0,1.2.4,2.5.9,2.9.4.3,6.3,1.1,9.2-1.8,1.8.4,1.2,2.8-.5,1.9h0Z"/>
      <path class="st1" d="M221.8,284.9c-.4,2.2-1.8,4-4.1,5.8-.9,0-1.2-1.3-1.8-1.1-.7.2-1.9,2.1-3.1,1.4-.2-.1,1.4-2.8.5-2.7l-2.6.3c-1.9.6-2.1-2.1,0-1.5,2.4-1.3,4.4-1.9,6.3-.8v1.5c0,.5,1,.8,1,0v-1.5c0-1.8,2.2-2,3.9-1.5h0Z"/>
      <path class="st1" d="M146.4,294.8c-.3-1.6,1.8-3.6,5.2-3.2-.6-1.5-1.6-1.8-3.2-2.1,1.4-2.1,2.1-.8,3.2-.4,1.2.5,1.8,1,1.1,2.4s-2.4.3-3.4,3.5c-.1.4-2,0-2.9-.3h0Z"/>
      <path class="st1" d="M134.9,297.5l-1.1-2c2.4-2.4,5.9,1.7,7.7-2.4.8,2.1.3,3.4-1.9,4.4-1.3.6-3,.8-4.6,0h0Z"/>
      <path class="st4" d="M204,286.1c-.5,1-1.4,2.2-2.3,2l-2.7-.8c-.7.6-2.2.1-2.2-1,5.2-2,7.7-2.9,7.2-.2Z"/>
      <path class="st1" d="M198.9,287.3l2.7.8c.9.3,1.9-1,2.3-2,0,.5.6,1.3,1,1.6.1.1.4.6,1.6,1-1.7-1.3-1.3.4-1.5.2l-.7-.7-3,3c-1.3-1.6-2.1-2.7-2.5-4h0Z"/>
      <path class="st1" d="M227.1,278.3l-.2,2c-4.6,3-4.2,9.8-9.2,10.4,2.3-1.8,3.7-3.6,4.1-5.8l1.9-3.7c1.1-2.1,2.5-2.2,3.5-2.9h-.1Z"/>
      <path class="st1" d="M40.5,264.4l-3.8-4.2c.9-1.8,2.2-.7,2.8,0,1.1,1.2,2.1,2,1,4.2h0Z"/>
      <path class="st1" d="M182.2,292.5c.7-.6,1.5-.2,1.8.3.5,1-1.3,2.4-1.5,2.4-.7-.2-.8-2.1-.3-2.6h0Z"/>
      <path class="st3" d="M124.9,290.4l-6.1-3.1.2-.8c2-.5,4.9,2.2,5.9,3.9Z"/>
      <path class="st3" d="M228.9,280.7c-.4,0-.8.9-1,1.3s-.9.3-1-.2v-1.5c.7,0,1.4,0,2,.4h0Z"/>
      <path class="st1" d="M188,288.2c1-2,3.3-3.2,5-2.5l-5,2.5Z"/>
      <path class="st1" d="M206.6,285.8h1.3-2,.7Z"/>
      <path class="st1" d="M216.9,286.3h1v1.5c0,.7-1,.4-1,0v-1.4h0Z"/>
      <path class="st1" d="M186.4,288.3v2-1.9h0Z"/>
      <path class="st1" d="M179.6,295.8h1.3-2,.7Z"/>
      <path class="st1" d="M111.4,293.3l-.5.5.5.5.5-.5-.5-.5Z"/>
      <path class="st1" d="M120,292.2h.9c-.2.7-1,.9-.9,0Z"/>
      <path class="st1" d="M210.4,291.3l-.5.5.5.5.5-.5-.5-.5Z"/>
      <path class="st1" d="M208.4,290.3l-.5.5.5.5.5-.5-.5-.5Z"/>
      <path class="st1" d="M184.4,290.3l-.5.5.5.5.5-.5-.5-.5Z"/>
      <path class="st1" d="M94,288.3h-1c-.2-1.1,1.1-1.1,1,0Z"/>
      <path class="st4" d="M256.9,235.5c-2.3,4.3-6.9,4.3-10.2,3.1-1.4,0-4.1,2.9-6.1,1.6-1.6-2.3,1.7-7.9,5.2-7.8l3.7,2c1.5.8,5.2-3.2,6.9-2.1.8.5,1.3,1.8.5,3.2h0Z"/>
      <path class="st4" d="M76.8,239.3c2,3.8,8.5-.5,8.5,4.5s-1.2,2.8-3.3,2.1c-2.1-.7-4.1,1.4-6.3,1.4-4.2,0-5.6-7.1-2.6-9.7,1.1-.9,3.2.8,3.6,1.8h.1Z"/>
      <path class="st4" d="M205.6,255.1c.9,3.9-6.1,8.1-8.8,5.5-2.4-2.4.1-5.1,1.8-6.3,1.8-1.2,6.2-2.6,7,.8Z"/>
      <path class="st4" d="M110.4,254.4c-1.3,3.7-11.4-.7-9.4-4.9,1.8-3.6,10.8.9,9.4,4.9Z"/>
      <path class="st4" d="M94.7,257.3c-1.2,3.5-4.4,1-5.5,0-1.2-1.1-3.9-3.9-1.7-5.8,2-1.7,8.1,3,7.2,5.8Z"/>
      <path class="st4" d="M186.8,251c-1.4,2.2-7.2,4.5-7.9,1.2s8.1-6.2,8.6-4c.1.6.3,1.3-.6,2.8h-.1Z"/>
      <path class="st4" d="M224.5,239c.9,2.5-3.2,7.1-5.4,6.4-3-.8-1.2-4.5.2-6.1,1-1.2,4.1-3.4,5.3-.3h-.1Z"/>
      <path class="st4" d="M144.1,260.6c1.7,1.2.5,3.3-.3,4.1-.9,1-3,2.4-4.7,1.3-1.5-1-.7-3.2,0-4.2.9-1.2,3.3-2.5,5-1.3h0Z"/>
      <path class="st4" d="M46,267c.7-1.1,1.4,0,1.6.3.4.5,0,.9-.2,1.1-.6.4-2-.3-1.3-1.4h0Z"/>
      <path class="st3" d="M548.9,360.5c-1.2-3.8-.3-8.9-3.4-12.3-2.1-2.3-7-1.5-10.1-3.5,3-1.6,7.8-1.1,10.3-4.1s1.8-7.4,3.2-11.5l2.6,10.3c1.1,4.3,7,3.6,11.4,5.1-3.8,1.8-8.4.8-10.8,4.5-2,3.1-1.4,7.6-3.2,11.4h0Z"/>
      <path class="st3" d="M89.6,435.1l-2.1-13.3c-2.8,2-4.7,4-7.8,5.1,1.1-2.9,3.2-4.1,5.3-6.5l-10.6-2.3,10.4-2-4.4-7,7.3,4.6,1.9-12.5,2.4,12.8c2.5-1.4,3.5-2.9,6.3-3.4-.8,2.9-2.4,3.8-3.9,5.8l9.9,1.7-10.3,2.1c1.7,2.6,3.2,4.1,3.9,6.8l-6.2-4.3-2.2,12.5h0Z"/>
      <path class="st3" d="M59.9,386.1l-2.1-9.2c-.7-3-5.6-2.4-8.4-3.7,2.2-1.2,5.9-.6,7.9-2.9,2.1-2.5,1.3-6.8,2.4-10.2,2,4.8.5,9.9,5.4,11.7,1.6.6,4-.1,5.3,2-2.7.3-6.4.3-8.2,3l-2.3,9.4h0Z"/>
    </g>
  </g>
</svg>